{
  "accessors": [
    {
      "bufferView": 1,
      "componentType": 5126,
      "count": 1840,
      "max": [
        6.626439094543457,
        0.12356585264205933,
        -2.6928348541259766
      ],
      "min": [
        6.5467948913574219,
        -0.024935957044363022,
        -2.7071449756622314
      ],
      "type": "VEC3"
    },
    {
      "bufferView": 1,
      "byteOffset": 22080,
      "componentType": 5126,
      "count": 1840,
      "max": [
        0.007752732839435339,
        0.0097337458282709122,
        0.006174896378070116
      ],
      "min": [
        -0.007752732839435339,
        -0.0097337458282709122,
        -0.006174896378070116
      ],
      "type": "VEC3"
    },
    {
      "bufferView": 0,
      "componentType": 5125,
      "count": 2100,
      "max": [
        1839
      ],
      "min": [
        0
      ],
      "type": "SCALAR"
    },
    {
      "bufferView": 1,
      "byteOffset": 44160,
      "componentType": 5126,
      "count": 1181,
      "max": [
        6.622288703918457,
        0.1188625767827034,
        -2.691258430480957
      ],
      "min": [
        6.536919116973877,
        -0.064425073564052582,
        -2.71040940284729
      ],
      "type": "VEC3"
    },
    {
      "bufferView": 1,
      "byteOffset": 58332,
      "componentType": 5126,
      "count": 1181,
      "max": [
        0.0077527323737740517,
        0.0097337458282709122,
        0.006174896378070116
      ],
      "min": [
        -0.0077527319081127644,
        -0.0097337458282709122,
        -0.006174896378070116
      ],
      "type": "VEC3"
    },
    {
      "bufferView": 0,
      "byteOffset": 8400,
      "componentType": 5125,
      "count": 1359,
      "max": [
        1180
      ],
      "min": [
        0
      ],
      "type": "SCALAR"
    },
    {
      "bufferView": 1,
      "byteOffset": 72504,
      "componentType": 5126,
      "count": 754,
      "max": [
        6.5885319709777832,
        0.12054783850908279,
        -2.6914699077606201
      ],
      "min": [
        6.5363831520080566,
        -0.063658267259597778,
        -2.7070751190185547
      ],
      "type": "VEC3"
    },
    {
      "bufferView": 1,
      "byteOffset": 81552,
      "componentType": 5126,
      "count": 754,
      "max": [
        0.0077527319081127644,
        0.0097337476909160614,
        0.006174896378070116
      ],
      "min": [
        -0.0077523789368569851,
        -0.0097337458282709122,
        -0.006174896378070116
      ],
      "type": "VEC3"
    },
    {
      "bufferView": 0,
      "byteOffset": 13836,
      "componentType": 5125,
      "count": 912,
      "max": [
        753
      ],
      "min": [
        0
      ],
      "type": "SCALAR"
    },
    {
      "bufferView": 1,
      "byteOffset": 90600,
      "componentType": 5126,
      "count": 287,
      "max": [
        6.6253890991210938,
        0.11817717552185059,
        -2.6919512748718262
      ],
      "min": [
        6.5558009147644043,
        0.060251820832490921,
        -2.7098367214202881
      ],
      "type": "VEC3"
    },
    {
      "bufferView": 1,
      "byteOffset": 94044,
      "componentType": 5126,
      "count": 287,
      "max": [
        0.0076650902628898621,
        0.0090439878404140472,
        0.006174896378070116
      ],
      "min": [
        -0.007708823774009943,
        -0.0092780385166406631,
        -0.006174896378070116
      ],
      "type": "VEC3"
    },
    {
      "bufferView": 0,
      "byteOffset": 17484,
      "componentType": 5125,
      "count": 294,
      "max": [
        286
      ],
      "min": [
        0
      ],
      "type": "SCALAR"
    },
    {
      "bufferView": 1,
      "byteOffset": 97488,
      "componentType": 5126,
      "count": 231,
      "max": [
        6.5581426620483398,
        0.11553527414798737,
        -2.6984105110168457
      ],
      "min": [
        6.5389399528503418,
        0.096926599740982056,
        -2.7033777236938477
      ],
      "type": "VEC3"
    },
    {
      "bufferView": 1,
      "byteOffset": 100260,
      "componentType": 5126,
      "count": 231,
      "max": [
        0.0077507584355771542,
        0.0096871079877018929,
        0.006174896378070116
      ],
      "min": [
        -0.007734665647149086,
        -0.0097337346524000168,
        -0.006174896378070116
      ],
      "type": "VEC3"
    },
    {
      "bufferView": 0,
      "byteOffset": 18660,
      "componentType": 5125,
      "count": 240,
      "max": [
        230
      ],
      "min": [
        0
      ],
      "type": "SCALAR"
    },
    {
      "bufferView": 1,
      "byteOffset": 103032,
      "componentType": 5126,
      "count": 2464,
      "max": [
        6.6275749206542969,
        0.12544631958007812,
        -2.6936511993408203
      ],
      "min": [
        6.5322132110595703,
        -0.061910849064588547,
        -2.7081367969512939
      ],
      "type": "VEC3"
    },
    {
      "bufferView": 1,
      "byteOffset": 132600,
      "componentType": 5126,
      "count": 2464,
      "max": [
        0.0077527319081127644,
        0.0097337458282709122,
        0.006174896378070116
      ],
      "min": [
        -0.0077527323737740517,
        -0.0097337458282709122,
        -0.006174896378070116
      ],
      "type": "VEC3"
    },
    {
      "bufferView": 0,
      "byteOffset": 19620,
      "componentType": 5125,
      "count": 2922,
      "max": [
        2463
      ],
      "min": [
        0
      ],
      "type": "SCALAR"
    },
    {
      "bufferView": 1,
      "byteOffset": 162168,
      "componentType": 5126,
      "count": 96,
      "max": [
        6.5804128646850586,
        0.068600155413150787,
        -2.7015087604522705
      ],
      "min": [
        6.574498176574707,
        0.057733282446861267,
        -2.7075273990631104
      ],
      "type": "VEC3"
    },
    {
      "bufferView": 1,
      "byteOffset": 163320,
      "componentType": 5126,
      "count": 96,
      "max": [
        0.0076181525364518166,
        0.0093502514064311981,
        0.006174896378070116
      ],
      "min": [
        -0.0076181557960808277,
        -0.0095647787675261497,
        -0.006174896378070116
      ],
      "type": "VEC3"
    },
    {
      "bufferView": 0,
      "byteOffset": 31308,
      "componentType": 5125,
      "count": 108,
      "max": [
        95
      ],
      "min": [
        0
      ],
      "type": "SCALAR"
    },
    {
      "bufferView": 1,
      "byteOffset": 164472,
      "componentType": 5126,
      "count": 156,
      "max": [
        6.5566196441650391,
        0.061416074633598328,
        -2.6976802349090576
      ],
      "min": [
        6.5490117073059082,
        0.054583556950092316,
        -2.7042691707611084
      ],
      "type": "VEC3"
    },
    {
      "bufferView": 1,
      "byteOffset": 166344,
      "componentType": 5126,
      "count": 156,
      "max": [
        0.0070232246071100235,
        -0.00074151618173345923,
        0.0061492449603974819
      ],
      "min": [
        -0.0070232213474810123,
        -0.0097337448969483376,
        -0.0061492440290749073
      ],
      "type": "VEC3"
    },
    {
      "bufferView": 0,
      "byteOffset": 31740,
      "componentType": 5125,
      "count": 156,
      "max": [
        155
      ],
      "min": [
        0
      ],
      "type": "SCALAR"
    },
    {
      "bufferView": 1,
      "byteOffset": 168216,
      "componentType": 5126,
      "count": 46,
      "max": [
        6.5542941093444824,
        0.077544897794723511,
        -2.6996943950653076
      ],
      "min": [
        6.5513372421264648,
        0.076965264976024628,
        -2.7022552490234375
      ],
      "type": "VEC3"
    },
    {
      "bufferView": 1,
      "byteOffset": 168768,
      "componentType": 5126,
      "count": 46,
      "max": [
        0.0070436890237033367,
        0.0097337448969483376,
        0.006174896378070116
      ],
      "min": [
        -0.0070436890237033367,
        -1.9770261872054107e-08,
        -0.006174896378070116
      ],
      "type": "VEC3"
    },
    {
      "bufferView": 0,
      "byteOffset": 32364,
      "componentType": 5125,
      "count": 48,
      "max": [
        45
      ],
      "min": [
        0
      ],
      "type": "SCALAR"
    },
    {
      "bufferView": 1,
      "byteOffset": 169320,
      "componentType": 5126,
      "count": 306,
      "max": [
        6.5567970275878906,
        0.077581919729709625,
        -2.6975266933441162
      ],
      "min": [
        6.5488343238830566,
        0.061416070908308029,
        -2.7044227123260498
      ],
      "type": "VEC3"
    },
    {
      "bufferView": 1,
      "byteOffset": 172992,
      "componentType": 5126,
      "count": 306,
      "max": [
        0.0070436946116387844,
        0.0097337448969483376,
        0.006174896378070116
      ],
      "min": [
        -0.0070436946116387844,
        -0.0097337448969483376,
        -0.006174896378070116
      ],
      "type": "VEC3"
    },
    {
      "bufferView": 0,
      "byteOffset": 32556,
      "componentType": 5125,
      "count": 324,
      "max": [
        305
      ],
      "min": [
        0
      ],
      "type": "SCALAR"
    },
    {
      "bufferView": 2,
      "componentType": 5126,
      "count": 1,
      "max": [
        1,
        0,
        0,
        0,
        0,
        1,
        0,
        0,
        0,
        0,
        1,
        0,
        0,
        0,
        0,
        1
      ],
      "min": [
        1,
        0,
        0,
        0,
        0,
        1,
        0,
        0,
        0,
        0,
        1,
        0,
        0,
        0,
        0,
        1
      ],
      "type": "MAT4"
    }
  ],
  "asset": {
    "extras": {
      "author": "TastyTony (https://sketchfab.com/TastyTony)",
      "license": "CC-BY-4.0 (http://creativecommons.org/licenses/by/4.0/)",
      "source": "https://sketchfab.com/3d-models/low-poly-m1911-117f542d21954ae0a59afaedadcff338",
      "title": "Low-Poly M1911"
    },
    "generator": "Sketchfab-6.84.0",
    "version": "2.0"
  },
  "bufferViews": [
    {
      "buffer": 0,
      "byteLength": 33852,
      "byteOffset": 0,
      "name": "floatBufferViews",
      "target": 34963
    },
    {
      "buffer": 0,
      "byteLength": 176664,
      "byteOffset": 33852,
      "byteStride": 12,
      "name": "floatBufferViews",
      "target": 34962
    },
    {
      "buffer": 0,
      "byteLength": 64,
      "byteOffset": 210516,
      "byteStride": 64,
      "name": "floatBufferViews"
    }
  ],
  "buffers": [
    {
      "byteLength": 210580,
      "uri": "scene.bin"
    }
  ],
  "materials": [
    {
      "doubleSided": true,
      "emissiveFactor": [
        0,
        0,
        0
      ],
      "name": "Material.004",
      "pbrMetallicRoughness": {
        "baseColorFactor": [
          0.1002182397,
          0.096062368300000006,
          0.090398999800000004,
          1
        ],
        "metallicFactor": 0,
        "roughnessFactor": 1
      }
    },
    {
      "doubleSided": true,
      "emissiveFactor": [
        0,
        0,
        0
      ],
      "name": "Material.005",
      "pbrMetallicRoughness": {
        "baseColorFactor": [
          0.11866639616649274,
          0.11393844987694243,
          0.10380277098380605,
          1
        ],
        "metallicFactor": 0,
        "roughnessFactor": 1
      }
    },
    {
      "doubleSided": true,
      "emissiveFactor": [
        0,
        0,
        0
      ],
      "name": "Material.006",
      "pbrMetallicRoughness": {
        "baseColorFactor": [
          0.094797705942038901,
          0.090126291474327908,
          0.090126291474327908,
          1
        ],
        "metallicFactor": 0,
        "roughnessFactor": 1
      }
    },
    {
      "doubleSided": true,
      "emissiveFactor": [
        0,
        0,
        0
      ],
      "name": "Material.007",
      "pbrMetallicRoughness": {
        "baseColorFactor": [
          0.10829235995947611,
          0.065226718787456908,
          0.051056549757544145,
          1
        ],
        "metallicFactor": 0,
        "roughnessFactor": 1
      }
    },
    {
      "doubleSided": true,
      "emissiveFactor": [
        0,
        0,
        0
      ],
      "name": "Material.008",
      "pbrMetallicRoughness": {
        "baseColorFactor": [
          0.17172344719999999,
          0.16529301669999999,
          0.16529301669999999,
          1
        ],
        "metallicFactor": 0,
        "roughnessFactor": 1
      }
    },
    {
      "doubleSided": true,
      "emissiveFactor": [
        0,
        0,
        0
      ],
      "name": "material_0",
      "pbrMetallicRoughness": {
        "baseColorFactor": [
          0.0925066477,
          0.089913128999999994,
          0.086706377400000006,
          1
        ],
        "metallicFactor": 0,
        "roughnessFactor": 1
      }
    },
    {
      "doubleSided": true,
      "emissiveFactor": [
        0,
        0,
        0
      ],
      "name": "Material.009",
      "pbrMetallicRoughness": {
        "baseColorFactor": [
          0.0925066477,
          0.089238535899999999,
          0.078797645299999997,
          1
        ],
        "metallicFactor": 0,
        "roughnessFactor": 1
      }
    },
    {
      "doubleSided": true,
      "emissiveFactor": [
        0,
        0,
        0
      ],
      "name": "Material.002",
      "pbrMetallicRoughness": {
        "baseColorFactor": [
          0.80000000000000004,
          0.80000000000000004,
          0.80000000000000004,
          1
        ],
        "metallicFactor": 0,
        "roughnessFactor": 0.95770514949999996
      }
    },
    {
      "doubleSided": true,
      "emissiveFactor": [
        0,
        0,
        0
      ],
      "name": "Material.003",
      "pbrMetallicRoughness": {
        "baseColorFactor": [
          0.80000000000000004,
          0.80000000000000004,
          0.80000000000000004,
          1
        ],
        "metallicFactor": 0,
        "roughnessFactor": 0.95770514949999996
      }
    },
    {
      "doubleSided": true,
      "emissiveFactor": [
        0,
        0,
        0
      ],
      "name": "Material.001",
      "pbrMetallicRoughness": {
        "baseColorFactor": [
          0.80000000000000004,
          0.80000000000000004,
          0.80000000000000004,
          1
        ],
        "metallicFactor": 0,
        "roughnessFactor": 0.95770514949999996
      }
    }
  ],
  "meshes": [
    {
      "primitives": [
        {
          "attributes": {
            "NORMAL": 1,
            "POSITION": 0
          },
          "indices": 2,
          "material": 0,
          "mode": 4
        }
      ]
    },
    {
      "primitives": [
        {
          "attributes": {
            "NORMAL": 4,
            "POSITION": 3
          },
          "indices": 5,
          "material": 1,
          "mode": 4
        }
      ]
    },
    {
      "primitives": [
        {
          "attributes": {
            "NORMAL": 7,
            "POSITION": 6
          },
          "indices": 8,
          "material": 2,
          "mode": 4
        }
      ]
    },
    {
      "primitives": [
        {
          "attributes": {
            "NORMAL": 10,
            "POSITION": 9
          },
          "indices": 11,
          "material": 3,
          "mode": 4
        }
      ]
    },
    {
      "primitives": [
        {
          "attributes": {
            "NORMAL": 13,
            "POSITION": 12
          },
          "indices": 14,
          "material": 4,
          "mode": 4
        }
      ]
    },
    {
      "primitives": [
        {
          "attributes": {
            "NORMAL": 16,
            "POSITION": 15
          },
          "indices": 17,
          "material": 5,
          "mode": 4
        }
      ]
    },
    {
      "primitives": [
        {
          "attributes": {
            "NORMAL": 19,
            "POSITION": 18
          },
          "indices": 20,
          "material": 6,
          "mode": 4
        }
      ]
    },
    {
      "primitives": [
        {
          "attributes": {
            "NORMAL": 22,
            "POSITION": 21
          },
          "indices": 23,
          "material": 7,
          "mode": 4
        }
      ]
    },
    {
      "primitives": [
        {
          "attributes": {
            "NORMAL": 25,
            "POSITION": 24
          },
          "indices": 26,
          "material": 8,
          "mode": 4
        }
      ]
    },
    {
      "primitives": [
        {
          "attributes": {
            "NORMAL": 28,
            "POSITION": 27
          },
          "indices": 29,
          "material": 9,
          "mode": 4
        }
      ]
    }
  ],
  "nodes": [
    {
      "children": [
        1
      ],
      "name": "RootNode (gltf orientation matrix)",
      "rotation": [
        -0.70710678118654746,
        -0,
        -0,
        0.70710678118654757
      ]
    },
    {
      "children": [
        2
      ],
      "name": "RootNode (model correction matrix)"
    },
    {
      "children": [
        3
      ],
      "matrix": [
        1,
        0,
        0,
        0,
        0,
        0,
        1,
        0,
        0,
        -1,
        0,
        0,
        0,
        0,
        0,
        1
      ],
      "name": "d2531ed5103a4f1abd59743b5e144158.fbx"
    },
    {
      "children": [
        4,
        7,
        9
      ],
      "name": "RootNode"
    },
    {
      "children": [
        5
      ],
      "matrix": [
        0.46970600820279707,
        93.784805248839618,
        -34.701436291644768,
        0,
        0.00033927879325990062,
        34.701817601202265,
        93.785840376134487,
        0,
        99.998889245358924,
        -0.44063542808666273,
        0.16267831786154238,
        0,
        5.0858550071716309,
        836.57562255859375,
        2156.1953125,
        1
      ],
      "name": "Lamp"
    },
    {
      "children": [
        6
      ],
      "matrix": [
        1,
        0,
        0,
        0,
        0,
        2.2204460492503131e-16,
        1,
        0,
        0,
        -1,
        2.2204460492503131e-16,
        0,
        0,
        0,
        0,
        1
      ],
      "name": ""
    },
    {
      "name": ""
    },
    {
      "children": [
        8
      ],
      "matrix": [
        1.9470721841536002e-05,
        0,
        -100.00001525878717,
        0,
        5.0242969719640575e-13,
        100.00001525878906,
        9.7826673887978993e-20,
        0,
        99.99999999999811,
        -5.0242962053173926e-13,
        1.9470718870540082e-05,
        0,
        28.675729751586914,
        19.348537445068359,
        1887.6715087890625,
        1
      ],
      "name": "Camera"
    },
    {
      "name": ""
    },
    {
      "children": [
        10
      ],
      "matrix": [
        9.7382302728969798e-06,
        -128.98677062988239,
        3.8441039616206918e-06,
        0,
        -3.6391033341209599e-05,
        -3.84410669681867e-06,
        -128.98677062987761,
        0,
        128.9867706298773,
        9.7382291773857486e-06,
        -3.6391033620457558e-05,
        0,
        160.28271484375,
        154.47554016113281,
        1.2530705134849995e-05,
        1
      ],
      "name": "Armature"
    },
    {
      "children": [
        11,
        12
      ],
      "name": ""
    },
    {
      "name": "_rootJoint"
    },
    {
      "children": [
        13,
        14,
        15,
        16,
        17,
        18,
        19,
        20,
        21,
        22
      ],
      "matrix": [
        48.849433643243529,
        4.8804187893950081e-06,
        2.6666562838104095e-12,
        0,
        2.1239379726241349e-12,
        4.5578716310533414e-14,
        -38.907589218906473,
        0,
        -4.8804182645666897e-06,
        48.849428390094729,
        5.7224924944366611e-14,
        0,
        -320.33348644908665,
        131.93709728404642,
        1.3220507033759364e-05,
        1
      ],
      "name": ""
    },
    {
      "mesh": 0,
      "name": ""
    },
    {
      "mesh": 1,
      "name": ""
    },
    {
      "mesh": 2,
      "name": ""
    },
    {
      "mesh": 3,
      "name": ""
    },
    {
      "mesh": 4,
      "name": ""
    },
    {
      "mesh": 5,
      "name": ""
    },
    {
      "mesh": 6,
      "name": ""
    },
    {
      "mesh": 7,
      "name": ""
    },
    {
      "mesh": 8,
      "name": ""
    },
    {
      "mesh": 9,
      "name": ""
    }
  ],
  "scene": 0,
  "scenes": [
    {
      "name": "OSG_Scene",
      "nodes": [
        0
      ]
    }
  ],
  "skins": [
    {
      "inverseBindMatrices": 30,
      "joints": [
        11
      ],
      "skeleton": 11
    }
  ]
}

