{
  "accessors": [
    {
      "bufferView": 2,
      "componentType": 5126,
      "count": 892,
      "max": [
        0.26101070642471313,
        1.2332570552825928,
        1
      ],
      "min": [
        -0.26101082563400269,
        -1.2332572937011719,
        -0.95501673221588135
      ],
      "type": "VEC3"
    },
    {
      "bufferView": 2,
      "byteOffset": 10704,
      "componentType": 5126,
      "count": 892,
      "max": [
        1,
        1,
        1
      ],
      "min": [
        -1,
        -1,
        -1
      ],
      "type": "VEC3"
    },
    {
      "bufferView": 3,
      "componentType": 5126,
      "count": 892,
      "max": [
        1,
        1,
        1,
        1
      ],
      "min": [
        -1,
        -1,
        -1,
        1
      ],
      "type": "VEC4"
    },
    {
      "bufferView": 1,
      "componentType": 5126,
      "count": 892,
      "max": [
        0.99831724166870117,
        0.99896723031997681
      ],
      "min": [
        -2.2945589535083855e-06,
        -0.0021272357553243637
      ],
      "type": "VEC2"
    },
    {
      "bufferView": 0,
      "componentType": 5125,
      "count": 1386,
      "max": [
        891
      ],
      "min": [
        0
      ],
      "type": "SCALAR"
    }
  ],
  "asset": {
    "extras": {
      "author": "Ricardo Sanchez (https://sketchfab.com/380660711785)",
      "license": "CC-BY-4.0 (http://creativecommons.org/licenses/by/4.0/)",
      "source": "https://sketchfab.com/3d-models/concrete-fence-low-poly-c4779b41937f4a188abb1fbe48bc5b02",
      "title": "Concrete Fence Low-Poly"
    },
    "generator": "Sketchfab-8.10.0",
    "version": "2.0"
  },
  "bufferViews": [
    {
      "buffer": 0,
      "byteLength": 5544,
      "byteOffset": 0,
      "name": "floatBufferViews",
      "target": 34963
    },
    {
      "buffer": 0,
      "byteLength": 7136,
      "byteOffset": 5544,
      "byteStride": 8,
      "name": "floatBufferViews",
      "target": 34962
    },
    {
      "buffer": 0,
      "byteLength": 21408,
      "byteOffset": 12680,
      "byteStride": 12,
      "name": "floatBufferViews",
      "target": 34962
    },
    {
      "buffer": 0,
      "byteLength": 14272,
      "byteOffset": 34088,
      "byteStride": 16,
      "name": "floatBufferViews",
      "target": 34962
    }
  ],
  "buffers": [
    {
      "byteLength": 48360,
      "uri": "scene.bin"
    }
  ],
  "images": [
    {
      "uri": "textures/Material.005_baseColor.jpg"
    },
    {
      "uri": "textures/Material.005_metallicRoughness.jpg"
    },
    {
      "uri": "textures/Material.005_normal.jpg"
    }
  ],
  "materials": [
    {
      "doubleSided": true,
      "emissiveFactor": [
        0,
        0,
        0
      ],
      "name": "Material.005",
      "normalTexture": {
        "index": 2,
        "scale": 1,
        "texCoord": 0
      },
      "pbrMetallicRoughness": {
        "baseColorFactor": [
          1,
          1,
          1,
          1
        ],
        "baseColorTexture": {
          "index": 0,
          "texCoord": 0
        },
        "metallicFactor": 0,
        "metallicRoughnessTexture": {
          "index": 1,
          "texCoord": 0
        },
        "roughnessFactor": 1
      }
    }
  ],
  "meshes": [
    {
      "name": "Fence1_Material.005_0",
      "primitives": [
        {
          "attributes": {
            "NORMAL": 1,
            "POSITION": 0,
            "TANGENT": 2,
            "TEXCOORD_0": 3
          },
          "indices": 4,
          "material": 0,
          "mode": 4
        }
      ]
    }
  ],
  "nodes": [
    {
      "children": [
        1
      ],
      "name": "RootNode (gltf orientation matrix)",
      "rotation": [
        -0.70710678118654746,
        -0,
        -0,
        0.70710678118654757
      ]
    },
    {
      "children": [
        2
      ],
      "matrix": [
        1,
        0,
        0,
        0,
        0,
        1,
        0,
        0,
        0,
        0,
        1,
        0,
        0,
        -4.5668593884329312e-06,
        0,
        1
      ],
      "name": "RootNode (model correction matrix)"
    },
    {
      "children": [
        3
      ],
      "matrix": [
        1,
        0,
        0,
        0,
        0,
        0,
        1,
        0,
        0,
        -1,
        0,
        0,
        0,
        0,
        0,
        1
      ],
      "name": "Concrete fence1.fbx"
    },
    {
      "children": [
        4
      ],
      "name": "RootNode"
    },
    {
      "children": [
        5
      ],
      "matrix": [
        100,
        0,
        0,
        0,
        0,
        -1.6292067939183141e-05,
        -99.999999999998678,
        0,
        0,
        99.999999999998678,
        -1.6292067939183141e-05,
        0,
        0,
        0,
        0,
        1
      ],
      "name": "Fence1"
    },
    {
      "mesh": 0,
      "name": "Fence1_Material.005_0"
    }
  ],
  "samplers": [
    {
      "magFilter": 9729,
      "minFilter": 9987,
      "wrapS": 10497,
      "wrapT": 10497
    }
  ],
  "scene": 0,
  "scenes": [
    {
      "name": "OSG_Scene",
      "nodes": [
        0
      ]
    }
  ],
  "textures": [
    {
      "sampler": 0,
      "source": 0
    },
    {
      "sampler": 0,
      "source": 1
    },
    {
      "sampler": 0,
      "source": 2
    }
  ]
}

