{
  "accessors": [
    {
      "bufferView": 2,
      "componentType": 5126,
      "count": 2054,
      "max": [
        10.009230613708496,
        32.630012512207031,
        14.802492141723633
      ],
      "min": [
        -10.009230613708496,
        1.2019937038421631,
        -14.802492141723633
      ],
      "type": "VEC3"
    },
    {
      "bufferView": 2,
      "byteOffset": 24648,
      "componentType": 5126,
      "count": 2054,
      "max": [
        0.99944794178009033,
        0.99918502569198608,
        0.99998027086257935
      ],
      "min": [
        -0.99944007396697998,
        -0.99878889322280884,
        -0.99731022119522095
      ],
      "type": "VEC3"
    },
    {
      "bufferView": 3,
      "componentType": 5126,
      "count": 2054,
      "max": [
        0.99999988079071045,
        0.99935001134872437,
        0.99878478050231934,
        1
      ],
      "min": [
        -1,
        -0.99998021125793457,
        -0.9988446831703186,
        -1
      ],
      "type": "VEC4"
    },
    {
      "bufferView": 1,
      "componentType": 5126,
      "count": 2054,
      "max": [
        0.998046875,
        0.95718157291412354
      ],
      "min": [
        0.001953125,
        -0.0016448397655040026
      ],
      "type": "VEC2"
    },
    {
      "bufferView": 0,
      "componentType": 5125,
      "count": 7599,
      "max": [
        2053
      ],
      "min": [
        0
      ],
      "type": "SCALAR"
    }
  ],
  "asset": {
    "extras": {
      "author": "annzep (https://sketchfab.com/annzep)",
      "license": "CC-BY-4.0 (http://creativecommons.org/licenses/by/4.0/)",
      "source": "https://sketchfab.com/3d-models/low-poly-skull-00bdf83344db408abea079f0df04523f",
      "title": "Low poly skull"
    },
    "generator": "Sketchfab-9.66.0",
    "version": "2.0"
  },
  "bufferViews": [
    {
      "buffer": 0,
      "byteLength": 30396,
      "byteOffset": 0,
      "name": "floatBufferViews",
      "target": 34963
    },
    {
      "buffer": 0,
      "byteLength": 16432,
      "byteOffset": 30396,
      "byteStride": 8,
      "name": "floatBufferViews",
      "target": 34962
    },
    {
      "buffer": 0,
      "byteLength": 49296,
      "byteOffset": 46828,
      "byteStride": 12,
      "name": "floatBufferViews",
      "target": 34962
    },
    {
      "buffer": 0,
      "byteLength": 32864,
      "byteOffset": 96124,
      "byteStride": 16,
      "name": "floatBufferViews",
      "target": 34962
    }
  ],
  "buffers": [
    {
      "byteLength": 128988,
      "uri": "scene.bin"
    }
  ],
  "images": [
    {
      "uri": "textures/skull_full_mtl_baseColor.jpg"
    },
    {
      "uri": "textures/skull_full_mtl_metallicRoughness.jpg"
    },
    {
      "uri": "textures/skull_full_mtl_normal.jpg"
    }
  ],
  "materials": [
    {
      "doubleSided": true,
      "name": "skull_full_mtl",
      "normalTexture": {
        "index": 2,
        "scale": 1,
        "texCoord": 0
      },
      "occlusionTexture": {
        "index": 1,
        "strength": 1,
        "texCoord": 0
      },
      "pbrMetallicRoughness": {
        "baseColorFactor": [
          1,
          1,
          1,
          1
        ],
        "baseColorTexture": {
          "index": 0,
          "texCoord": 0
        },
        "metallicFactor": 0,
        "metallicRoughnessTexture": {
          "index": 1,
          "texCoord": 0
        },
        "roughnessFactor": 1
      }
    }
  ],
  "meshes": [
    {
      "name": "polySurface1_skull_full_mtl_0",
      "primitives": [
        {
          "attributes": {
            "NORMAL": 1,
            "POSITION": 0,
            "TANGENT": 2,
            "TEXCOORD_0": 3
          },
          "indices": 4,
          "material": 0,
          "mode": 4
        }
      ]
    }
  ],
  "nodes": [
    {
      "children": [
        1
      ],
      "name": "RootNode (gltf orientation matrix)",
      "rotation": [
        -0.70710678118654746,
        -0,
        -0,
        0.70710678118654757
      ]
    },
    {
      "children": [
        2
      ],
      "name": "RootNode (model correction matrix)"
    },
    {
      "children": [
        3
      ],
      "matrix": [
        1,
        0,
        0,
        0,
        0,
        0,
        1,
        0,
        0,
        -1,
        0,
        0,
        0,
        0,
        0,
        1
      ],
      "name": "9dd6786acc214e7c9dea556d3d1d035e.fbx"
    },
    {
      "children": [
        4
      ],
      "name": "RootNode"
    },
    {
      "children": [
        5
      ],
      "name": "polySurface1"
    },
    {
      "mesh": 0,
      "name": "polySurface1_skull_full_mtl_0"
    }
  ],
  "samplers": [
    {
      "magFilter": 9729,
      "minFilter": 9987,
      "wrapS": 10497,
      "wrapT": 10497
    }
  ],
  "scene": 0,
  "scenes": [
    {
      "name": "OSG_Scene",
      "nodes": [
        0
      ]
    }
  ],
  "textures": [
    {
      "sampler": 0,
      "source": 0
    },
    {
      "sampler": 0,
      "source": 1
    },
    {
      "sampler": 0,
      "source": 2
    }
  ]
}

