{
  "accessors": [
    {
      "bufferView": 1,
      "componentType": 5126,
      "count": 3735,
      "max": [
        -20.112913131713867,
        0.57341760396957397,
        -28.898324966430664
      ],
      "min": [
        -20.304502487182617,
        -0.73787307739257812,
        -29.005035400390625
      ],
      "type": "VEC3"
    },
    {
      "bufferView": 1,
      "byteOffset": 44820,
      "componentType": 5126,
      "count": 3735,
      "max": [
        0.0099999997764825821,
        0.0083796791732311249,
        0.011933631263673306
      ],
      "min": [
        -0.0099999997764825821,
        -0.0083796791732311249,
        -0.011933631263673306
      ],
      "type": "VEC3"
    },
    {
      "bufferView": 0,
      "componentType": 5125,
      "count": 4416,
      "max": [
        3734
      ],
      "min": [
        0
      ],
      "type": "SCALAR"
    },
    {
      "bufferView": 1,
      "byteOffset": 89640,
      "componentType": 5126,
      "count": 825,
      "max": [
        -20.101478576660156,
        0.55312556028366089,
        -28.899394989013672
      ],
      "min": [
        -20.275934219360352,
        -0.72836834192276001,
        -28.992544174194336
      ],
      "type": "VEC3"
    },
    {
      "bufferView": 1,
      "byteOffset": 99540,
      "componentType": 5126,
      "count": 825,
      "max": [
        0.0088648013770580292,
        0.0083796791732311249,
        0.011933631263673306
      ],
      "min": [
        -0.0088648078963160515,
        -0.0083796791732311249,
        -0.011933631263673306
      ],
      "type": "VEC3"
    },
    {
      "bufferView": 0,
      "byteOffset": 17664,
      "componentType": 5125,
      "count": 960,
      "max": [
        824
      ],
      "min": [
        0
      ],
      "type": "SCALAR"
    },
    {
      "bufferView": 1,
      "byteOffset": 109440,
      "componentType": 5126,
      "count": 994,
      "max": [
        -20.143161773681641,
        0.45380553603172302,
        -28.917539596557617
      ],
      "min": [
        -20.304561614990234,
        -0.79759126901626587,
        -28.990863800048828
      ],
      "type": "VEC3"
    },
    {
      "bufferView": 1,
      "byteOffset": 121368,
      "componentType": 5126,
      "count": 994,
      "max": [
        0.0096622621640563011,
        0.0083796791732311249,
        0.011933631263673306
      ],
      "min": [
        -0.0099997427314519882,
        -0.0083796791732311249,
        -0.011933631263673306
      ],
      "type": "VEC3"
    },
    {
      "bufferView": 0,
      "byteOffset": 21504,
      "componentType": 5125,
      "count": 1044,
      "max": [
        993
      ],
      "min": [
        0
      ],
      "type": "SCALAR"
    },
    {
      "bufferView": 1,
      "byteOffset": 133296,
      "componentType": 5126,
      "count": 1667,
      "max": [
        -19.93431282043457,
        1.1167440414428711,
        -28.905691146850586
      ],
      "min": [
        -20.305992126464844,
        0.012323199771344662,
        -28.981243133544922
      ],
      "type": "VEC3"
    },
    {
      "bufferView": 1,
      "byteOffset": 153300,
      "componentType": 5126,
      "count": 1667,
      "max": [
        0.0099999997764825821,
        0.0083796791732311249,
        0.011933631263673306
      ],
      "min": [
        -0.0099999997764825821,
        -0.0083796791732311249,
        -0.011933631263673306
      ],
      "type": "VEC3"
    },
    {
      "bufferView": 0,
      "byteOffset": 25680,
      "componentType": 5125,
      "count": 2322,
      "max": [
        1666
      ],
      "min": [
        0
      ],
      "type": "SCALAR"
    },
    {
      "bufferView": 1,
      "byteOffset": 173304,
      "componentType": 5126,
      "count": 922,
      "max": [
        -20.157581329345703,
        0.25146543979644775,
        -28.919708251953125
      ],
      "min": [
        -20.261236190795898,
        -0.33262956142425537,
        -29.05169677734375
      ],
      "type": "VEC3"
    },
    {
      "bufferView": 1,
      "byteOffset": 184368,
      "componentType": 5126,
      "count": 922,
      "max": [
        0.0099999997764825821,
        0.0083796782419085503,
        0.011933631263673306
      ],
      "min": [
        -0.0099999997764825821,
        -0.0083796782419085503,
        -0.011933631263673306
      ],
      "type": "VEC3"
    },
    {
      "bufferView": 0,
      "byteOffset": 34968,
      "componentType": 5125,
      "count": 996,
      "max": [
        921
      ],
      "min": [
        0
      ],
      "type": "SCALAR"
    },
    {
      "bufferView": 1,
      "byteOffset": 195432,
      "componentType": 5126,
      "count": 1961,
      "max": [
        -20.01994514465332,
        0.5716862678527832,
        -28.918401718139648
      ],
      "min": [
        -20.298282623291016,
        -0.76809316873550415,
        -28.976251602172852
      ],
      "type": "VEC3"
    },
    {
      "bufferView": 1,
      "byteOffset": 218964,
      "componentType": 5126,
      "count": 1961,
      "max": [
        0.0099999997764825821,
        0.0083796791732311249,
        0.011933631263673306
      ],
      "min": [
        -0.0099999997764825821,
        -0.0083796791732311249,
        -0.011933631263673306
      ],
      "type": "VEC3"
    },
    {
      "bufferView": 0,
      "byteOffset": 38952,
      "componentType": 5125,
      "count": 2040,
      "max": [
        1960
      ],
      "min": [
        0
      ],
      "type": "SCALAR"
    },
    {
      "bufferView": 1,
      "byteOffset": 242496,
      "componentType": 5126,
      "count": 4524,
      "max": [
        -19.653547286987305,
        0.63011407852172852,
        -28.912937164306641
      ],
      "min": [
        -20.29926872253418,
        -0.058180015534162521,
        -28.977859497070312
      ],
      "type": "VEC3"
    },
    {
      "bufferView": 1,
      "byteOffset": 296784,
      "componentType": 5126,
      "count": 4524,
      "max": [
        0.010000000707805157,
        0.0083796791732311249,
        0.011933631263673306
      ],
      "min": [
        -0.0099999997764825821,
        -0.0083796791732311249,
        -0.011933631263673306
      ],
      "type": "VEC3"
    },
    {
      "bufferView": 0,
      "byteOffset": 47112,
      "componentType": 5125,
      "count": 5250,
      "max": [
        4523
      ],
      "min": [
        0
      ],
      "type": "SCALAR"
    },
    {
      "bufferView": 1,
      "byteOffset": 351072,
      "componentType": 5126,
      "count": 144,
      "max": [
        -20.11662483215332,
        0.24483034014701843,
        -28.927495956420898
      ],
      "min": [
        -20.15631103515625,
        0.24224673211574554,
        -28.962673187255859
      ],
      "type": "VEC3"
    },
    {
      "bufferView": 1,
      "byteOffset": 352800,
      "componentType": 5126,
      "count": 144,
      "max": [
        0.0082978727295994759,
        0.0083764456212520599,
        0.011933631263673306
      ],
      "min": [
        -0.0082978531718254089,
        -0.00030383490957319736,
        -0.011933631263673306
      ],
      "type": "VEC3"
    },
    {
      "bufferView": 0,
      "byteOffset": 68112,
      "componentType": 5125,
      "count": 144,
      "max": [
        143
      ],
      "min": [
        0
      ],
      "type": "SCALAR"
    },
    {
      "bufferView": 1,
      "byteOffset": 354528,
      "componentType": 5126,
      "count": 466,
      "max": [
        -20.116897583007812,
        0.16529105603694916,
        -28.928207397460938
      ],
      "min": [
        -20.161262512207031,
        0.13047747313976288,
        -28.962989807128906
      ],
      "type": "VEC3"
    },
    {
      "bufferView": 1,
      "byteOffset": 360120,
      "componentType": 5126,
      "count": 466,
      "max": [
        0.00828520767390728,
        6.2881706980988383e-05,
        0.01193295419216156
      ],
      "min": [
        -0.0083036134019494057,
        -0.0083764465525746346,
        -0.011933188885450363
      ],
      "type": "VEC3"
    },
    {
      "bufferView": 0,
      "byteOffset": 68688,
      "componentType": 5125,
      "count": 468,
      "max": [
        465
      ],
      "min": [
        0
      ],
      "type": "SCALAR"
    },
    {
      "bufferView": 1,
      "byteOffset": 365712,
      "componentType": 5126,
      "count": 216,
      "max": [
        -19.65583610534668,
        0.28490197658538818,
        -28.911060333251953
      ],
      "min": [
        -20.300436019897461,
        -0.049320966005325317,
        -28.979736328125
      ],
      "type": "VEC3"
    },
    {
      "bufferView": 1,
      "byteOffset": 368304,
      "componentType": 5126,
      "count": 216,
      "max": [
        0.0086602624505758286,
        0.0083796791732311249,
        0.011933631263673306
      ],
      "min": [
        -0.0086602624505758286,
        -0.0083796791732311249,
        -0.011933631263673306
      ],
      "type": "VEC3"
    },
    {
      "bufferView": 0,
      "byteOffset": 70560,
      "componentType": 5125,
      "count": 246,
      "max": [
        215
      ],
      "min": [
        0
      ],
      "type": "SCALAR"
    },
    {
      "bufferView": 1,
      "byteOffset": 370896,
      "componentType": 5126,
      "count": 393,
      "max": [
        -19.82745361328125,
        0.57213181257247925,
        -28.915531158447266
      ],
      "min": [
        -20.092727661132812,
        0.4246278703212738,
        -28.975265502929688
      ],
      "type": "VEC3"
    },
    {
      "bufferView": 1,
      "byteOffset": 375612,
      "componentType": 5126,
      "count": 393,
      "max": [
        0.0098389452323317528,
        0.0083796735852956772,
        0.011933631263673306
      ],
      "min": [
        -0.0099924439564347267,
        -0.0083796791732311249,
        -0.011933631263673306
      ],
      "type": "VEC3"
    },
    {
      "bufferView": 0,
      "byteOffset": 71544,
      "componentType": 5125,
      "count": 408,
      "max": [
        392
      ],
      "min": [
        0
      ],
      "type": "SCALAR"
    },
    {
      "bufferView": 1,
      "byteOffset": 380328,
      "componentType": 5126,
      "count": 2030,
      "max": [
        -19.93040657043457,
        1.1030223369598389,
        -28.890834808349609
      ],
      "min": [
        -20.281160354614258,
        -0.31391546130180359,
        -28.999961853027344
      ],
      "type": "VEC3"
    },
    {
      "bufferView": 1,
      "byteOffset": 404688,
      "componentType": 5126,
      "count": 2030,
      "max": [
        0.0099999997764825821,
        0.0083796791732311249,
        0.011933631263673306
      ],
      "min": [
        -0.0099999997764825821,
        -0.0083796791732311249,
        -0.011933631263673306
      ],
      "type": "VEC3"
    },
    {
      "bufferView": 0,
      "byteOffset": 73176,
      "componentType": 5125,
      "count": 2370,
      "max": [
        2029
      ],
      "min": [
        0
      ],
      "type": "SCALAR"
    },
    {
      "bufferView": 2,
      "componentType": 5126,
      "count": 1,
      "max": [
        1,
        0,
        0,
        0,
        0,
        1,
        0,
        0,
        0,
        0,
        1,
        0,
        0,
        0,
        0,
        1
      ],
      "min": [
        1,
        0,
        0,
        0,
        0,
        1,
        0,
        0,
        0,
        0,
        1,
        0,
        0,
        0,
        0,
        1
      ],
      "type": "MAT4"
    }
  ],
  "asset": {
    "extras": {
      "author": "TastyTony (https://sketchfab.com/TastyTony)",
      "license": "CC-BY-4.0 (http://creativecommons.org/licenses/by/4.0/)",
      "source": "https://sketchfab.com/3d-models/low-poly-akm-849b7cdf8622487485febc40db89e734",
      "title": "Low-Poly AKM"
    },
    "generator": "Sketchfab-6.84.0",
    "version": "2.0"
  },
  "bufferViews": [
    {
      "buffer": 0,
      "byteLength": 82656,
      "byteOffset": 0,
      "name": "floatBufferViews",
      "target": 34963
    },
    {
      "buffer": 0,
      "byteLength": 429048,
      "byteOffset": 82656,
      "byteStride": 12,
      "name": "floatBufferViews",
      "target": 34962
    },
    {
      "buffer": 0,
      "byteLength": 64,
      "byteOffset": 511704,
      "byteStride": 64,
      "name": "floatBufferViews"
    }
  ],
  "buffers": [
    {
      "byteLength": 511768,
      "uri": "scene.bin"
    }
  ],
  "materials": [
    {
      "doubleSided": true,
      "emissiveFactor": [
        0,
        0,
        0
      ],
      "name": "Material.005",
      "pbrMetallicRoughness": {
        "baseColorFactor": [
          0.053573780633981286,
          0.053573780633981286,
          0.053573780633981286,
          1
        ],
        "metallicFactor": 0,
        "roughnessFactor": 1
      }
    },
    {
      "doubleSided": true,
      "emissiveFactor": [
        0,
        0,
        0
      ],
      "name": "Material.010",
      "pbrMetallicRoughness": {
        "baseColorFactor": [
          0.094054878048780488,
          0.094054878048780488,
          0.094054878048780488,
          1
        ],
        "metallicFactor": 0,
        "roughnessFactor": 1
      }
    },
    {
      "doubleSided": true,
      "emissiveFactor": [
        0,
        0,
        0
      ],
      "name": "Material.006",
      "pbrMetallicRoughness": {
        "baseColorFactor": [
          0.06966463414634147,
          0.06966463414634147,
          0.06966463414634147,
          1
        ],
        "metallicFactor": 0,
        "roughnessFactor": 1
      }
    },
    {
      "doubleSided": true,
      "emissiveFactor": [
        0,
        0,
        0
      ],
      "name": "Material",
      "pbrMetallicRoughness": {
        "baseColorFactor": [
          0.061168677160403105,
          0.061168677160403105,
          0.061168677160403105,
          1
        ],
        "metallicFactor": 0,
        "roughnessFactor": 1
      }
    },
    {
      "doubleSided": true,
      "emissiveFactor": [
        0,
        0,
        0
      ],
      "name": "Material.012",
      "pbrMetallicRoughness": {
        "baseColorFactor": [
          0.10021823973063392,
          0.10021823973063392,
          0.10021823973063392,
          1
        ],
        "metallicFactor": 0,
        "roughnessFactor": 1
      }
    },
    {
      "doubleSided": true,
      "emissiveFactor": [
        0,
        0,
        0
      ],
      "name": "material_0",
      "pbrMetallicRoughness": {
        "baseColorFactor": [
          0.094054878048780488,
          0.094054878048780488,
          0.094054878048780488,
          1
        ],
        "metallicFactor": 0,
        "roughnessFactor": 1
      }
    },
    {
      "doubleSided": true,
      "emissiveFactor": [
        0,
        0,
        0
      ],
      "name": "Material.004",
      "pbrMetallicRoughness": {
        "baseColorFactor": [
          0.12332317073170732,
          0.12332317073170732,
          0.12332317073170732,
          1
        ],
        "metallicFactor": 0,
        "roughnessFactor": 1
      }
    },
    {
      "doubleSided": true,
      "emissiveFactor": [
        0,
        0,
        0
      ],
      "name": "Material.003",
      "pbrMetallicRoughness": {
        "baseColorFactor": [
          0.80000000000000004,
          0.80000000000000004,
          0.80000000000000004,
          1
        ],
        "metallicFactor": 0,
        "roughnessFactor": 0.95770514949999996
      }
    },
    {
      "doubleSided": true,
      "emissiveFactor": [
        0,
        0,
        0
      ],
      "name": "Material.002",
      "pbrMetallicRoughness": {
        "baseColorFactor": [
          0.80000000000000004,
          0.80000000000000004,
          0.80000000000000004,
          1
        ],
        "metallicFactor": 0,
        "roughnessFactor": 0.95770514949999996
      }
    },
    {
      "doubleSided": true,
      "emissiveFactor": [
        0,
        0,
        0
      ],
      "name": "Material.009",
      "pbrMetallicRoughness": {
        "baseColorFactor": [
          0.098932926829268297,
          0.098932926829268297,
          0.098932926829268297,
          1
        ],
        "metallicFactor": 0,
        "roughnessFactor": 1
      }
    },
    {
      "doubleSided": true,
      "emissiveFactor": [
        0,
        0,
        0
      ],
      "name": "Material.007",
      "pbrMetallicRoughness": {
        "baseColorFactor": [
          0.090015850884717488,
          0.065287593693767285,
          0.065287593693767285,
          1
        ],
        "metallicFactor": 0,
        "roughnessFactor": 1
      }
    },
    {
      "doubleSided": true,
      "emissiveFactor": [
        0,
        0,
        0
      ],
      "name": "Material.008",
      "pbrMetallicRoughness": {
        "baseColorFactor": [
          0.16111610572391852,
          0.10222036338135677,
          0.071546281950746013,
          1
        ],
        "metallicFactor": 0,
        "roughnessFactor": 1
      }
    }
  ],
  "meshes": [
    {
      "primitives": [
        {
          "attributes": {
            "NORMAL": 1,
            "POSITION": 0
          },
          "indices": 2,
          "material": 0,
          "mode": 4
        }
      ]
    },
    {
      "primitives": [
        {
          "attributes": {
            "NORMAL": 4,
            "POSITION": 3
          },
          "indices": 5,
          "material": 1,
          "mode": 4
        }
      ]
    },
    {
      "primitives": [
        {
          "attributes": {
            "NORMAL": 7,
            "POSITION": 6
          },
          "indices": 8,
          "material": 2,
          "mode": 4
        }
      ]
    },
    {
      "primitives": [
        {
          "attributes": {
            "NORMAL": 10,
            "POSITION": 9
          },
          "indices": 11,
          "material": 3,
          "mode": 4
        }
      ]
    },
    {
      "primitives": [
        {
          "attributes": {
            "NORMAL": 13,
            "POSITION": 12
          },
          "indices": 14,
          "material": 4,
          "mode": 4
        }
      ]
    },
    {
      "primitives": [
        {
          "attributes": {
            "NORMAL": 16,
            "POSITION": 15
          },
          "indices": 17,
          "material": 5,
          "mode": 4
        }
      ]
    },
    {
      "primitives": [
        {
          "attributes": {
            "NORMAL": 19,
            "POSITION": 18
          },
          "indices": 20,
          "material": 6,
          "mode": 4
        }
      ]
    },
    {
      "primitives": [
        {
          "attributes": {
            "NORMAL": 22,
            "POSITION": 21
          },
          "indices": 23,
          "material": 7,
          "mode": 4
        }
      ]
    },
    {
      "primitives": [
        {
          "attributes": {
            "NORMAL": 25,
            "POSITION": 24
          },
          "indices": 26,
          "material": 8,
          "mode": 4
        }
      ]
    },
    {
      "primitives": [
        {
          "attributes": {
            "NORMAL": 28,
            "POSITION": 27
          },
          "indices": 29,
          "material": 9,
          "mode": 4
        }
      ]
    },
    {
      "primitives": [
        {
          "attributes": {
            "NORMAL": 31,
            "POSITION": 30
          },
          "indices": 32,
          "material": 10,
          "mode": 4
        }
      ]
    },
    {
      "primitives": [
        {
          "attributes": {
            "NORMAL": 34,
            "POSITION": 33
          },
          "indices": 35,
          "material": 11,
          "mode": 4
        }
      ]
    }
  ],
  "nodes": [
    {
      "children": [
        1
      ],
      "name": "RootNode (gltf orientation matrix)",
      "rotation": [
        -0.70710678118654746,
        -0,
        -0,
        0.70710678118654757
      ]
    },
    {
      "children": [
        2
      ],
      "name": "RootNode (model correction matrix)"
    },
    {
      "children": [
        3
      ],
      "matrix": [
        1,
        0,
        0,
        0,
        0,
        0,
        1,
        0,
        0,
        -1,
        0,
        0,
        0,
        0,
        0,
        1
      ],
      "name": "2b315c2dd5944749a790272bb83fbf91.fbx"
    },
    {
      "children": [
        4,
        7,
        9
      ],
      "name": "RootNode"
    },
    {
      "children": [
        5
      ],
      "matrix": [
        0.46969890955639304,
        94.970177605584382,
        -31.312054364064341,
        0,
        0.00034680593534730519,
        31.31239822122399,
        94.971225734509801,
        0,
        99.998889278676003,
        -0.44618736968895523,
        0.14674461959257118,
        0,
        5.0858497619628906,
        400.37432861328125,
        1041.401611328125,
        1
      ],
      "name": "Lamp"
    },
    {
      "children": [
        6
      ],
      "matrix": [
        1,
        0,
        0,
        0,
        0,
        2.2204460492503131e-16,
        1,
        0,
        0,
        -1,
        2.2204460492503131e-16,
        0,
        0,
        0,
        0,
        1
      ],
      "name": ""
    },
    {
      "name": ""
    },
    {
      "children": [
        8
      ],
      "matrix": [
        1.9470721841536002e-05,
        0,
        -100.00001525878717,
        0,
        5.0242969719640575e-13,
        100.00001525878906,
        9.7826673887978993e-20,
        0,
        99.99999999999811,
        -5.0242962053173926e-13,
        1.9470718870540082e-05,
        0,
        -6.3277797698974609,
        -3.1838815212249756,
        787.686279296875,
        1
      ],
      "name": "Camera"
    },
    {
      "name": ""
    },
    {
      "children": [
        10
      ],
      "matrix": [
        7.5497899709731087e-06,
        -99.999999999999673,
        2.9802311840576579e-06,
        0,
        -2.8212996699972237e-05,
        -2.9802333045836349e-06,
        -99.999999999995964,
        0,
        99.999999999995723,
        7.5497891216524948e-06,
        -2.8212996916465727e-05,
        0,
        73.704719543457031,
        68.854019165039062,
        8.7702519522281364e-06,
        1
      ],
      "name": "Armature"
    },
    {
      "children": [
        11,
        12
      ],
      "name": ""
    },
    {
      "name": "_rootJoint"
    },
    {
      "children": [
        13,
        14,
        15,
        16,
        17,
        18,
        19,
        20,
        21,
        22,
        23,
        24
      ],
      "matrix": [
        4.1313409805300161,
        5.8204454640687822e-15,
        -4.7767779315366354e-15,
        0,
        -5.7004306559875609e-15,
        3.0188706994812958e-16,
        -4.9301899969578677,
        0,
        -5.8204454640686765e-15,
        4.1313409805299415,
        2.5297167539961405e-16,
        0,
        83.31305190148197,
        119.58330998022393,
        1.5929357233234885e-05,
        1
      ],
      "name": ""
    },
    {
      "mesh": 0,
      "name": ""
    },
    {
      "mesh": 1,
      "name": ""
    },
    {
      "mesh": 2,
      "name": ""
    },
    {
      "mesh": 3,
      "name": ""
    },
    {
      "mesh": 4,
      "name": ""
    },
    {
      "mesh": 5,
      "name": ""
    },
    {
      "mesh": 6,
      "name": ""
    },
    {
      "mesh": 7,
      "name": ""
    },
    {
      "mesh": 8,
      "name": ""
    },
    {
      "mesh": 9,
      "name": ""
    },
    {
      "mesh": 10,
      "name": ""
    },
    {
      "mesh": 11,
      "name": ""
    }
  ],
  "scene": 0,
  "scenes": [
    {
      "name": "OSG_Scene",
      "nodes": [
        0
      ]
    }
  ],
  "skins": [
    {
      "inverseBindMatrices": 36,
      "joints": [
        11
      ],
      "skeleton": 11
    }
  ]
}

