{
    "asset" : {
        "generator" : "Khronos glTF Blender I/O v1.4.40",
        "version" : "2.0"
    },
    "scene" : 0,
    "scenes" : [
        {
            "name" : "Scene",
            "nodes" : [
                11,
                12,
                13
            ]
        }
    ],
    "nodes" : [
        {
            "mesh" : 0,
            "name" : "Box006_01 - Default_0.139"
        },
        {
            "mesh" : 1,
            "name" : "Box006_01 - Default_0.140"
        },
        {
            "mesh" : 2,
            "name" : "Box006_01 - Default_0.141"
        },
        {
            "mesh" : 3,
            "name" : "Box006_01 - Default_0.142"
        },
        {
            "mesh" : 4,
            "name" : "Box006_01 - Default_0.143"
        },
        {
            "mesh" : 5,
            "name" : "Box006_01 - Default_0.144"
        },
        {
            "children" : [
                0,
                1,
                2,
                3,
                4,
                5
            ],
            "name" : "Node_5",
            "translation" : [
                720,
                0,
                150
            ]
        },
        {
            "children" : [
                6
            ],
            "name" : "Box006",
            "rotation" : [
                -0.7071068286895752,
                0,
                0,
                0.7071068286895752
            ],
            "scale" : [
                0.033685486763715744,
                0.033685486763715744,
                0.033685486763715744
            ]
        },
        {
            "children" : [
                7
            ],
            "name" : "RootNode"
        },
        {
            "children" : [
                8
            ],
            "name" : "cfd3770f69024209a79a9dd701a36d52.fbx",
            "rotation" : [
                0.7071068286895752,
                0,
                0,
                0.7071068286895752
            ]
        },
        {
            "children" : [
                9
            ],
            "name" : "RootNode (model correction matrix)"
        },
        {
            "children" : [
                10
            ],
            "name" : "RootNode (gltf orientation matrix)",
            "rotation" : [
                -0.7071068286895752,
                0,
                0,
                0.7071068286895752
            ]
        },
        {
            "name" : "Light",
            "rotation" : [
                0.16907575726509094,
                0.7558803558349609,
                -0.27217137813568115,
                0.570947527885437
            ],
            "translation" : [
                4.076245307922363,
                5.903861999511719,
                -1.0054539442062378
            ]
        },
        {
            "name" : "Camera",
            "rotation" : [
                0.483536034822464,
                0.33687159419059753,
                -0.20870360732078552,
                0.7804827094078064
            ],
            "translation" : [
                7.358891487121582,
                4.958309173583984,
                6.925790786743164
            ]
        }
    ],
    "materials" : [
        {
            "doubleSided" : true,
            "emissiveFactor" : [
                0.017149390652775764,
                0.017149390652775764,
                0.017149390652775764
            ],
            "emissiveTexture" : {
                "index" : 0,
                "texCoord" : 0
            },
            "name" : "01_-_Default",
            "normalTexture" : {
                "index" : 1,
                "texCoord" : 0
            },
            "pbrMetallicRoughness" : {
                "baseColorTexture" : {
                    "index" : 2,
                    "texCoord" : 0
                },
                "metallicFactor" : 0,
                "roughnessFactor" : 0.10537347197532654
            }
        }
    ],
    "meshes" : [
        {
            "name" : "Box006_01 - Default_0.139",
            "primitives" : [
                {
                    "attributes" : {
                        "POSITION" : 0,
                        "NORMAL" : 1,
                        "TEXCOORD_0" : 2
                    },
                    "indices" : 3,
                    "material" : 0
                }
            ]
        },
        {
            "name" : "Box006_01 - Default_0.140",
            "primitives" : [
                {
                    "attributes" : {
                        "POSITION" : 4,
                        "NORMAL" : 5,
                        "TEXCOORD_0" : 6
                    },
                    "indices" : 7,
                    "material" : 0
                }
            ]
        },
        {
            "name" : "Box006_01 - Default_0.141",
            "primitives" : [
                {
                    "attributes" : {
                        "POSITION" : 8,
                        "NORMAL" : 9,
                        "TEXCOORD_0" : 10
                    },
                    "indices" : 3,
                    "material" : 0
                }
            ]
        },
        {
            "name" : "Box006_01 - Default_0.142",
            "primitives" : [
                {
                    "attributes" : {
                        "POSITION" : 11,
                        "NORMAL" : 12,
                        "TEXCOORD_0" : 13
                    },
                    "indices" : 7,
                    "material" : 0
                }
            ]
        },
        {
            "name" : "Box006_01 - Default_0.143",
            "primitives" : [
                {
                    "attributes" : {
                        "POSITION" : 14,
                        "NORMAL" : 15,
                        "TEXCOORD_0" : 16
                    },
                    "indices" : 17,
                    "material" : 0
                }
            ]
        },
        {
            "name" : "Box006_01 - Default_0.144",
            "primitives" : [
                {
                    "attributes" : {
                        "POSITION" : 18,
                        "NORMAL" : 19,
                        "TEXCOORD_0" : 20
                    },
                    "indices" : 7,
                    "material" : 0
                }
            ]
        }
    ],
    "textures" : [
        {
            "sampler" : 0,
            "source" : 0
        },
        {
            "sampler" : 0,
            "source" : 1
        },
        {
            "sampler" : 0,
            "source" : 2
        }
    ],
    "images" : [
        {
            "mimeType" : "image/jpeg",
            "name" : "01_-_Default_emissive",
            "uri" : "01_-_Default_emissive.jpg"
        },
        {
            "mimeType" : "image/png",
            "name" : "01_-_Default_normal",
            "uri" : "01_-_Default_normal.jpg"
        },
        {
            "mimeType" : "image/jpeg",
            "name" : "01_-_Default_baseColor",
            "uri" : "01_-_Default_baseColor.jpg"
        }
    ],
    "accessors" : [
        {
            "bufferView" : 0,
            "componentType" : 5126,
            "count" : 4,
            "max" : [
                -668.7280883789062,
                107.50000762939453,
                -167.83779907226562
            ],
            "min" : [
                -771.2280883789062,
                -107.49999237060547,
                -167.83779907226562
            ],
            "type" : "VEC3"
        },
        {
            "bufferView" : 1,
            "componentType" : 5126,
            "count" : 4,
            "type" : "VEC3"
        },
        {
            "bufferView" : 2,
            "componentType" : 5126,
            "count" : 4,
            "type" : "VEC2"
        },
        {
            "bufferView" : 3,
            "componentType" : 5123,
            "count" : 6,
            "type" : "SCALAR"
        },
        {
            "bufferView" : 4,
            "componentType" : 5126,
            "count" : 6,
            "max" : [
                -668.7280883789062,
                107.50001525878906,
                -102.83778381347656
            ],
            "min" : [
                -771.2280883789062,
                -107.49998474121094,
                -102.83781433105469
            ],
            "type" : "VEC3"
        },
        {
            "bufferView" : 5,
            "componentType" : 5126,
            "count" : 6,
            "type" : "VEC3"
        },
        {
            "bufferView" : 6,
            "componentType" : 5126,
            "count" : 6,
            "type" : "VEC2"
        },
        {
            "bufferView" : 7,
            "componentType" : 5123,
            "count" : 6,
            "type" : "SCALAR"
        },
        {
            "bufferView" : 8,
            "componentType" : 5126,
            "count" : 4,
            "max" : [
                -668.7280883789062,
                -107.49998474121094,
                -102.83778381347656
            ],
            "min" : [
                -771.2280883789062,
                -107.49999237060547,
                -167.83779907226562
            ],
            "type" : "VEC3"
        },
        {
            "bufferView" : 9,
            "componentType" : 5126,
            "count" : 4,
            "type" : "VEC3"
        },
        {
            "bufferView" : 10,
            "componentType" : 5126,
            "count" : 4,
            "type" : "VEC2"
        },
        {
            "bufferView" : 11,
            "componentType" : 5126,
            "count" : 6,
            "max" : [
                -668.7280883789062,
                107.50001525878906,
                -102.83778381347656
            ],
            "min" : [
                -668.7280883789062,
                -107.49999237060547,
                -167.83779907226562
            ],
            "type" : "VEC3"
        },
        {
            "bufferView" : 12,
            "componentType" : 5126,
            "count" : 6,
            "type" : "VEC3"
        },
        {
            "bufferView" : 13,
            "componentType" : 5126,
            "count" : 6,
            "type" : "VEC2"
        },
        {
            "bufferView" : 14,
            "componentType" : 5126,
            "count" : 6,
            "max" : [
                -668.7280883789062,
                107.50001525878906,
                -102.83781433105469
            ],
            "min" : [
                -771.2280883789062,
                107.50000762939453,
                -167.83779907226562
            ],
            "type" : "VEC3"
        },
        {
            "bufferView" : 15,
            "componentType" : 5126,
            "count" : 6,
            "type" : "VEC3"
        },
        {
            "bufferView" : 16,
            "componentType" : 5126,
            "count" : 6,
            "type" : "VEC2"
        },
        {
            "bufferView" : 17,
            "componentType" : 5123,
            "count" : 6,
            "type" : "SCALAR"
        },
        {
            "bufferView" : 18,
            "componentType" : 5126,
            "count" : 6,
            "max" : [
                -771.2280883789062,
                107.50001525878906,
                -102.83778381347656
            ],
            "min" : [
                -771.2280883789062,
                -107.49999237060547,
                -167.83779907226562
            ],
            "type" : "VEC3"
        },
        {
            "bufferView" : 19,
            "componentType" : 5126,
            "count" : 6,
            "type" : "VEC3"
        },
        {
            "bufferView" : 20,
            "componentType" : 5126,
            "count" : 6,
            "type" : "VEC2"
        }
    ],
    "bufferViews" : [
        {
            "buffer" : 0,
            "byteLength" : 48,
            "byteOffset" : 0
        },
        {
            "buffer" : 0,
            "byteLength" : 48,
            "byteOffset" : 48
        },
        {
            "buffer" : 0,
            "byteLength" : 32,
            "byteOffset" : 96
        },
        {
            "buffer" : 0,
            "byteLength" : 12,
            "byteOffset" : 128
        },
        {
            "buffer" : 0,
            "byteLength" : 72,
            "byteOffset" : 140
        },
        {
            "buffer" : 0,
            "byteLength" : 72,
            "byteOffset" : 212
        },
        {
            "buffer" : 0,
            "byteLength" : 48,
            "byteOffset" : 284
        },
        {
            "buffer" : 0,
            "byteLength" : 12,
            "byteOffset" : 332
        },
        {
            "buffer" : 0,
            "byteLength" : 48,
            "byteOffset" : 344
        },
        {
            "buffer" : 0,
            "byteLength" : 48,
            "byteOffset" : 392
        },
        {
            "buffer" : 0,
            "byteLength" : 32,
            "byteOffset" : 440
        },
        {
            "buffer" : 0,
            "byteLength" : 72,
            "byteOffset" : 472
        },
        {
            "buffer" : 0,
            "byteLength" : 72,
            "byteOffset" : 544
        },
        {
            "buffer" : 0,
            "byteLength" : 48,
            "byteOffset" : 616
        },
        {
            "buffer" : 0,
            "byteLength" : 72,
            "byteOffset" : 664
        },
        {
            "buffer" : 0,
            "byteLength" : 72,
            "byteOffset" : 736
        },
        {
            "buffer" : 0,
            "byteLength" : 48,
            "byteOffset" : 808
        },
        {
            "buffer" : 0,
            "byteLength" : 12,
            "byteOffset" : 856
        },
        {
            "buffer" : 0,
            "byteLength" : 72,
            "byteOffset" : 868
        },
        {
            "buffer" : 0,
            "byteLength" : 72,
            "byteOffset" : 940
        },
        {
            "buffer" : 0,
            "byteLength" : 48,
            "byteOffset" : 1012
        }
    ],
    "samplers" : [
        {
            "magFilter" : 9729,
            "minFilter" : 9986
        }
    ],
    "buffers" : [
        {
            "byteLength" : 1060,
            "uri" : "scene.bin"
        }
    ]
}
