{
    "asset" : {
        "generator" : "Khronos glTF Blender I/O v1.4.40",
        "version" : "2.0"
    },
    "scene" : 0,
    "scenes" : [
        {
            "name" : "Scene",
            "nodes" : [
                21,
                22,
                23
            ]
        }
    ],
    "nodes" : [
        {
            "mesh" : 0,
            "name" : "Box577_Material #17_0"
        },
        {
            "children" : [
                0
            ],
            "name" : "Box577",
            "rotation" : [
                0.7071068286895752,
                0,
                0.7071067094802856,
                -1.4189487274052226e-07
            ],
            "translation" : [
                144.06280517578125,
                3.7431650161743164,
                -24.64311981201172
            ]
        },
        {
            "mesh" : 1,
            "name" : "Box582_Material #17_0"
        },
        {
            "children" : [
                2
            ],
            "name" : "Box582",
            "rotation" : [
                0.7071068286895752,
                0.7071068286895752,
                0,
                -4.216082594155068e-09
            ],
            "translation" : [
                119.97518920898438,
                -3.6197519302368164,
                -26.195287704467773
            ]
        },
        {
            "mesh" : 2,
            "name" : "Box584_Material #17_0"
        },
        {
            "children" : [
                4
            ],
            "name" : "Box584",
            "rotation" : [
                -0.5,
                -0.5,
                -0.4999999403953552,
                0.5000000596046448
            ],
            "translation" : [
                120.0134506225586,
                12.63648796081543,
                -8.66562271118164
            ]
        },
        {
            "mesh" : 3,
            "name" : "Box585_Material #17_0"
        },
        {
            "children" : [
                6
            ],
            "name" : "Node_11",
            "translation" : [
                0,
                0,
                -0.19576072692871094
            ]
        },
        {
            "children" : [
                7
            ],
            "name" : "Box585",
            "translation" : [
                120.24674987792969,
                3.683868885040283,
                -7.5255231857299805
            ]
        },
        {
            "mesh" : 4,
            "name" : "Box588_Material #17_0"
        },
        {
            "children" : [
                9
            ],
            "name" : "Node_14",
            "translation" : [
                0,
                0,
                -0.18524169921875
            ]
        },
        {
            "children" : [
                10
            ],
            "name" : "Box588",
            "rotation" : [
                0,
                -0.7071067094802856,
                0,
                0.7071068286895752
            ],
            "translation" : [
                96.57557678222656,
                3.7165534496307373,
                -16.705190658569336
            ]
        },
        {
            "mesh" : 5,
            "name" : "Box589_Material #17_0"
        },
        {
            "children" : [
                12
            ],
            "name" : "Box589",
            "rotation" : [
                -0.7071068286895752,
                0,
                0,
                0.7071068286895752
            ],
            "translation" : [
                120.19295501708984,
                12.11016845703125,
                -16.742158889770508
            ]
        },
        {
            "mesh" : 6,
            "name" : "Box590_Material #17_0"
        },
        {
            "children" : [
                14
            ],
            "name" : "Box590",
            "rotation" : [
                -0.7071068286895752,
                0,
                0,
                0.7071068286895752
            ],
            "translation" : [
                120.19295501708984,
                -5.618391990661621,
                -16.742158889770508
            ]
        },
        {
            "mesh" : 7,
            "name" : "Object001_Material #17_0"
        },
        {
            "children" : [
                16
            ],
            "name" : "Object001",
            "rotation" : [
                -0.4999999701976776,
                0.5000000596046448,
                0.49999985098838806,
                0.5000001192092896
            ],
            "translation" : [
                120.20616149902344,
                -5.577996730804443,
                -8.485591888427734
            ]
        },
        {
            "children" : [
                1,
                3,
                5,
                8,
                11,
                13,
                15,
                17
            ],
            "name" : "RootNode",
            "translation" : [
                -120,
                0,
                17
            ]
        },
        {
            "children" : [
                18
            ],
            "name" : "box_lp.FBX",
            "rotation" : [
                0.7071068286895752,
                0,
                0,
                0.7071068286895752
            ]
        },
        {
            "children" : [
                19
            ],
            "name" : "RootNode (model correction matrix)"
        },
        {
            "children" : [
                20
            ],
            "name" : "RootNode (gltf orientation matrix)",
            "rotation" : [
                -0.7071068286895752,
                0,
                0,
                0.7071068286895752
            ]
        },
        {
            "name" : "Light",
            "rotation" : [
                0.16907575726509094,
                0.7558803558349609,
                -0.27217137813568115,
                0.570947527885437
            ],
            "translation" : [
                4.076245307922363,
                5.903861999511719,
                -1.0054539442062378
            ]
        },
        {
            "name" : "Camera",
            "rotation" : [
                0.483536034822464,
                0.33687159419059753,
                -0.20870360732078552,
                0.7804827094078064
            ],
            "translation" : [
                7.358891487121582,
                4.958309173583984,
                6.925790786743164
            ]
        }
    ],
    "materials" : [
        {
            "doubleSided" : true,
            "name" : "Material_17",
            "normalTexture" : {
                "index" : 0,
                "scale" : 0.5306851267814636,
                "texCoord" : 0
            },
            "occlusionTexture" : {
                "index" : 1,
                "texCoord" : 0
            },
            "pbrMetallicRoughness" : {
                "baseColorTexture" : {
                    "index" : 2,
                    "texCoord" : 0
                },
                "metallicFactor" : 0,
                "metallicRoughnessTexture" : {
                    "index" : 1,
                    "texCoord" : 0
                }
            }
        }
    ],
    "meshes" : [
        {
            "name" : "Box577_Material #17_0",
            "primitives" : [
                {
                    "attributes" : {
                        "POSITION" : 0,
                        "NORMAL" : 1,
                        "TEXCOORD_0" : 2
                    },
                    "indices" : 3,
                    "material" : 0
                }
            ]
        },
        {
            "name" : "Box582_Material #17_0",
            "primitives" : [
                {
                    "attributes" : {
                        "POSITION" : 4,
                        "NORMAL" : 5,
                        "TEXCOORD_0" : 6
                    },
                    "indices" : 7,
                    "material" : 0
                }
            ]
        },
        {
            "name" : "Box584_Material #17_0",
            "primitives" : [
                {
                    "attributes" : {
                        "POSITION" : 8,
                        "NORMAL" : 9,
                        "TEXCOORD_0" : 10
                    },
                    "indices" : 11,
                    "material" : 0
                }
            ]
        },
        {
            "name" : "Box585_Material #17_0",
            "primitives" : [
                {
                    "attributes" : {
                        "POSITION" : 12,
                        "NORMAL" : 13,
                        "TEXCOORD_0" : 14
                    },
                    "indices" : 15,
                    "material" : 0
                }
            ]
        },
        {
            "name" : "Box588_Material #17_0",
            "primitives" : [
                {
                    "attributes" : {
                        "POSITION" : 16,
                        "NORMAL" : 17,
                        "TEXCOORD_0" : 18
                    },
                    "indices" : 19,
                    "material" : 0
                }
            ]
        },
        {
            "name" : "Box589_Material #17_0",
            "primitives" : [
                {
                    "attributes" : {
                        "POSITION" : 20,
                        "NORMAL" : 21,
                        "TEXCOORD_0" : 22
                    },
                    "indices" : 23,
                    "material" : 0
                }
            ]
        },
        {
            "name" : "Box590_Material #17_0",
            "primitives" : [
                {
                    "attributes" : {
                        "POSITION" : 24,
                        "NORMAL" : 25,
                        "TEXCOORD_0" : 26
                    },
                    "indices" : 27,
                    "material" : 0
                }
            ]
        },
        {
            "name" : "Object001_Material #17_0",
            "primitives" : [
                {
                    "attributes" : {
                        "POSITION" : 28,
                        "NORMAL" : 29,
                        "TEXCOORD_0" : 30
                    },
                    "indices" : 31,
                    "material" : 0
                }
            ]
        }
    ],
    "textures" : [
        {
            "sampler" : 0,
            "source" : 0
        },
        {
            "sampler" : 0,
            "source" : 1
        },
        {
            "sampler" : 0,
            "source" : 2
        }
    ],
    "images" : [
        {
            "mimeType" : "image/jpeg",
            "name" : "Material_17_normal",
            "uri" : "Material_17_normal.jpg"
        },
        {
            "mimeType" : "image/jpeg",
            "name" : "Material_17_metallicRoughness",
            "uri" : "Material_17_metallicRoughness.jpg"
        },
        {
            "mimeType" : "image/jpeg",
            "name" : "Material_17_baseColor",
            "uri" : "Material_17_baseColor.jpg"
        }
    ],
    "accessors" : [
        {
            "bufferView" : 0,
            "componentType" : 5126,
            "count" : 258,
            "max" : [
                17.380172729492188,
                8.83057689666748,
                0.5092594027519226
            ],
            "min" : [
                -1.574803113937378,
                -8.84199333190918,
                -48.267677307128906
            ],
            "type" : "VEC3"
        },
        {
            "bufferView" : 1,
            "componentType" : 5126,
            "count" : 258,
            "type" : "VEC3"
        },
        {
            "bufferView" : 2,
            "componentType" : 5126,
            "count" : 258,
            "type" : "VEC2"
        },
        {
            "bufferView" : 3,
            "componentType" : 5123,
            "count" : 288,
            "type" : "SCALAR"
        },
        {
            "bufferView" : 4,
            "componentType" : 5126,
            "count" : 310,
            "max" : [
                16.221187591552734,
                24.742822647094727,
                0.5491392612457275
            ],
            "min" : [
                -1.495351791381836,
                -24.225000381469727,
                -19.461217880249023
            ],
            "type" : "VEC3"
        },
        {
            "bufferView" : 5,
            "componentType" : 5126,
            "count" : 310,
            "type" : "VEC3"
        },
        {
            "bufferView" : 6,
            "componentType" : 5126,
            "count" : 310,
            "type" : "VEC2"
        },
        {
            "bufferView" : 7,
            "componentType" : 5123,
            "count" : 360,
            "type" : "SCALAR"
        },
        {
            "bufferView" : 8,
            "componentType" : 5126,
            "count" : 150,
            "max" : [
                1.8180971145629883,
                24.774316787719727,
                0.5664058923721313
            ],
            "min" : [
                -17.866947174072266,
                -24.3905086517334,
                -0.14345420897006989
            ],
            "type" : "VEC3"
        },
        {
            "bufferView" : 9,
            "componentType" : 5126,
            "count" : 150,
            "type" : "VEC3"
        },
        {
            "bufferView" : 10,
            "componentType" : 5126,
            "count" : 150,
            "type" : "VEC2"
        },
        {
            "bufferView" : 11,
            "componentType" : 5123,
            "count" : 186,
            "type" : "SCALAR"
        },
        {
            "bufferView" : 12,
            "componentType" : 5126,
            "count" : 42,
            "max" : [
                23.805450439453125,
                8.097724914550781,
                0.4249277114868164
            ],
            "min" : [
                -23.792022705078125,
                -8.089571952819824,
                -18.469457626342773
            ],
            "type" : "VEC3"
        },
        {
            "bufferView" : 13,
            "componentType" : 5126,
            "count" : 42,
            "type" : "VEC3"
        },
        {
            "bufferView" : 14,
            "componentType" : 5126,
            "count" : 42,
            "type" : "VEC2"
        },
        {
            "bufferView" : 15,
            "componentType" : 5123,
            "count" : 60,
            "type" : "SCALAR"
        },
        {
            "bufferView" : 16,
            "componentType" : 5126,
            "count" : 42,
            "max" : [
                8.92723274230957,
                8.058158874511719,
                0.40361690521240234
            ],
            "min" : [
                -8.932785987854004,
                -8.058160781860352,
                -47.22166442871094
            ],
            "type" : "VEC3"
        },
        {
            "bufferView" : 17,
            "componentType" : 5126,
            "count" : 42,
            "type" : "VEC3"
        },
        {
            "bufferView" : 18,
            "componentType" : 5126,
            "count" : 42,
            "type" : "VEC2"
        },
        {
            "bufferView" : 19,
            "componentType" : 5123,
            "count" : 60,
            "type" : "SCALAR"
        },
        {
            "bufferView" : 20,
            "componentType" : 5126,
            "count" : 24,
            "max" : [
                23.81609344482422,
                9.337211608886719,
                0.5075254440307617
            ],
            "min" : [
                -23.785850524902344,
                -9.39634895324707,
                0.041229248046875
            ],
            "type" : "VEC3"
        },
        {
            "bufferView" : 21,
            "componentType" : 5126,
            "count" : 24,
            "type" : "VEC3"
        },
        {
            "bufferView" : 22,
            "componentType" : 5126,
            "count" : 24,
            "type" : "VEC2"
        },
        {
            "bufferView" : 23,
            "componentType" : 5123,
            "count" : 36,
            "type" : "SCALAR"
        },
        {
            "bufferView" : 24,
            "componentType" : 5126,
            "count" : 26,
            "max" : [
                24.225975036621094,
                10.012773513793945,
                0.5075254440307617
            ],
            "min" : [
                -24.19031524658203,
                -9.921392440795898,
                0.041229233145713806
            ],
            "type" : "VEC3"
        },
        {
            "bufferView" : 25,
            "componentType" : 5126,
            "count" : 26,
            "type" : "VEC3"
        },
        {
            "bufferView" : 26,
            "componentType" : 5126,
            "count" : 26,
            "type" : "VEC2"
        },
        {
            "bufferView" : 27,
            "componentType" : 5123,
            "count" : 36,
            "type" : "SCALAR"
        },
        {
            "bufferView" : 28,
            "componentType" : 5126,
            "count" : 90,
            "max" : [
                17.32209014892578,
                22.993579864501953,
                0.005377054214477539
            ],
            "min" : [
                -0.7010459899902344,
                -23.258621215820312,
                -1.1564337015151978
            ],
            "type" : "VEC3"
        },
        {
            "bufferView" : 29,
            "componentType" : 5126,
            "count" : 90,
            "type" : "VEC3"
        },
        {
            "bufferView" : 30,
            "componentType" : 5126,
            "count" : 90,
            "type" : "VEC2"
        },
        {
            "bufferView" : 31,
            "componentType" : 5123,
            "count" : 90,
            "type" : "SCALAR"
        }
    ],
    "bufferViews" : [
        {
            "buffer" : 0,
            "byteLength" : 3096,
            "byteOffset" : 0
        },
        {
            "buffer" : 0,
            "byteLength" : 3096,
            "byteOffset" : 3096
        },
        {
            "buffer" : 0,
            "byteLength" : 2064,
            "byteOffset" : 6192
        },
        {
            "buffer" : 0,
            "byteLength" : 576,
            "byteOffset" : 8256
        },
        {
            "buffer" : 0,
            "byteLength" : 3720,
            "byteOffset" : 8832
        },
        {
            "buffer" : 0,
            "byteLength" : 3720,
            "byteOffset" : 12552
        },
        {
            "buffer" : 0,
            "byteLength" : 2480,
            "byteOffset" : 16272
        },
        {
            "buffer" : 0,
            "byteLength" : 720,
            "byteOffset" : 18752
        },
        {
            "buffer" : 0,
            "byteLength" : 1800,
            "byteOffset" : 19472
        },
        {
            "buffer" : 0,
            "byteLength" : 1800,
            "byteOffset" : 21272
        },
        {
            "buffer" : 0,
            "byteLength" : 1200,
            "byteOffset" : 23072
        },
        {
            "buffer" : 0,
            "byteLength" : 372,
            "byteOffset" : 24272
        },
        {
            "buffer" : 0,
            "byteLength" : 504,
            "byteOffset" : 24644
        },
        {
            "buffer" : 0,
            "byteLength" : 504,
            "byteOffset" : 25148
        },
        {
            "buffer" : 0,
            "byteLength" : 336,
            "byteOffset" : 25652
        },
        {
            "buffer" : 0,
            "byteLength" : 120,
            "byteOffset" : 25988
        },
        {
            "buffer" : 0,
            "byteLength" : 504,
            "byteOffset" : 26108
        },
        {
            "buffer" : 0,
            "byteLength" : 504,
            "byteOffset" : 26612
        },
        {
            "buffer" : 0,
            "byteLength" : 336,
            "byteOffset" : 27116
        },
        {
            "buffer" : 0,
            "byteLength" : 120,
            "byteOffset" : 27452
        },
        {
            "buffer" : 0,
            "byteLength" : 288,
            "byteOffset" : 27572
        },
        {
            "buffer" : 0,
            "byteLength" : 288,
            "byteOffset" : 27860
        },
        {
            "buffer" : 0,
            "byteLength" : 192,
            "byteOffset" : 28148
        },
        {
            "buffer" : 0,
            "byteLength" : 72,
            "byteOffset" : 28340
        },
        {
            "buffer" : 0,
            "byteLength" : 312,
            "byteOffset" : 28412
        },
        {
            "buffer" : 0,
            "byteLength" : 312,
            "byteOffset" : 28724
        },
        {
            "buffer" : 0,
            "byteLength" : 208,
            "byteOffset" : 29036
        },
        {
            "buffer" : 0,
            "byteLength" : 72,
            "byteOffset" : 29244
        },
        {
            "buffer" : 0,
            "byteLength" : 1080,
            "byteOffset" : 29316
        },
        {
            "buffer" : 0,
            "byteLength" : 1080,
            "byteOffset" : 30396
        },
        {
            "buffer" : 0,
            "byteLength" : 720,
            "byteOffset" : 31476
        },
        {
            "buffer" : 0,
            "byteLength" : 180,
            "byteOffset" : 32196
        }
    ],
    "samplers" : [
        {
            "magFilter" : 9729,
            "minFilter" : 9986
        }
    ],
    "buffers" : [
        {
            "byteLength" : 32376,
            "uri" : "scene.bin"
        }
    ]
}
