{
    "asset" : {
        "generator" : "Khronos glTF Blender I/O v1.4.40",
        "version" : "2.0"
    },
    "scene" : 0,
    "scenes" : [
        {
            "name" : "Scene",
            "nodes" : [
                8,
                9,
                10
            ]
        }
    ],
    "nodes" : [
        {
            "name" : "Plane001",
            "rotation" : [
                -0.7071068286895752,
                0,
                0,
                0.7071068286895752
            ]
        },
        {
            "mesh" : 0,
            "name" : "tak_M_bark_0"
        },
        {
            "mesh" : 1,
            "name" : "tak_M_leaf_0"
        },
        {
            "children" : [
                1,
                2
            ],
            "name" : "Node_5",
            "rotation" : [
                0.22653552889823914,
                0,
                0,
                0.9740028977394104
            ],
            "translation" : [
                -0.44721317291259766,
                118.0359878540039,
                65.30335998535156
            ]
        },
        {
            "children" : [
                3
            ],
            "name" : "tak",
            "rotation" : [
                -0.7071068286895752,
                0,
                0,
                0.7071068286895752
            ],
            "scale" : [
                1.2075532674789429,
                1.2075532674789429,
                1.2075532674789429
            ]
        },
        {
            "children" : [
                0,
                4
            ],
            "name" : "RootNode"
        },
        {
            "children" : [
                5
            ],
            "name" : "a73d7c3a320148b0838cf80dd4fef368.fbx",
            "rotation" : [
                0.7071068286895752,
                0,
                0,
                0.7071068286895752
            ]
        },
        {
            "children" : [
                6
            ],
            "name" : "RootNode (model correction matrix)"
        },
        {
            "children" : [
                7
            ],
            "name" : "RootNode (gltf orientation matrix)",
            "rotation" : [
                -0.7071068286895752,
                0,
                0,
                0.7071068286895752
            ],
            "scale" : [
                0.10000000149011612,
                0.10000000149011612,
                0.10000000149011612
            ]
        },
        {
            "name" : "Light",
            "rotation" : [
                0.16907575726509094,
                0.7558803558349609,
                -0.27217137813568115,
                0.570947527885437
            ],
            "translation" : [
                4.076245307922363,
                5.903861999511719,
                -1.0054539442062378
            ]
        },
        {
            "name" : "Camera",
            "rotation" : [
                0.483536034822464,
                0.33687159419059753,
                -0.20870360732078552,
                0.7804827094078064
            ],
            "translation" : [
                7.358891487121582,
                4.958309173583984,
                6.925790786743164
            ]
        }
    ],
    "materials" : [
        {
            "doubleSided" : true,
            "name" : "M_bark",
            "normalTexture" : {
                "index" : 0,
                "scale" : 0.510757565498352,
                "texCoord" : 0
            },
            "pbrMetallicRoughness" : {
                "baseColorTexture" : {
                    "index" : 1,
                    "texCoord" : 0
                },
                "metallicFactor" : 0,
                "metallicRoughnessTexture" : {
                    "index" : 2,
                    "texCoord" : 0
                }
            }
        },
        {
            "alphaCutoff" : 0.75,
            "alphaMode" : "MASK",
            "doubleSided" : true,
            "name" : "M_leaf",
            "normalTexture" : {
                "index" : 3,
                "scale" : 0.25,
                "texCoord" : 0
            },
            "pbrMetallicRoughness" : {
                "baseColorTexture" : {
                    "index" : 4,
                    "texCoord" : 0
                },
                "metallicFactor" : 0,
                "metallicRoughnessTexture" : {
                    "index" : 5,
                    "texCoord" : 0
                },
                "roughnessFactor" : 0.8999999761581421
            }
        }
    ],
    "meshes" : [
        {
            "name" : "tak_M_bark_0",
            "primitives" : [
                {
                    "attributes" : {
                        "POSITION" : 0,
                        "NORMAL" : 1,
                        "TEXCOORD_0" : 2
                    },
                    "indices" : 3,
                    "material" : 0
                }
            ]
        },
        {
            "name" : "tak_M_leaf_0",
            "primitives" : [
                {
                    "attributes" : {
                        "POSITION" : 4,
                        "NORMAL" : 5,
                        "TEXCOORD_0" : 6
                    },
                    "indices" : 7,
                    "material" : 1
                }
            ]
        }
    ],
    "textures" : [
        {
            "sampler" : 0,
            "source" : 0
        },
        {
            "sampler" : 0,
            "source" : 1
        },
        {
            "sampler" : 0,
            "source" : 2
        },
        {
            "sampler" : 0,
            "source" : 3
        },
        {
            "sampler" : 0,
            "source" : 4
        },
        {
            "sampler" : 0,
            "source" : 5
        }
    ],
    "images" : [
        {
            "mimeType" : "image/png",
            "name" : "M_bark_normal",
            "uri" : "M_bark_normal.jpg"
        },
        {
            "mimeType" : "image/png",
            "name" : "M_bark_baseColor",
            "uri" : "M_bark_baseColor.jpg"
        },
        {
            "mimeType" : "image/png",
            "name" : "M_bark_metallicRoughness",
            "uri" : "M_bark_metallicRoughness.jpg"
        },
        {
            "mimeType" : "image/png",
            "name" : "M_leaf_normal",
            "uri" : "M_leaf_normal.jpg"
        },
        {
            "mimeType" : "image/png",
            "name" : "M_leaf_baseColor",
            "uri" : "M_leaf_baseColor.jpg"
        },
        {
            "mimeType" : "image/png",
            "name" : "M_leaf_metallicRoughness",
            "uri" : "M_leaf_metallicRoughness.jpg"
        }
    ],
    "accessors" : [
        {
            "bufferView" : 0,
            "componentType" : 5126,
            "count" : 791,
            "max" : [
                75.97740173339844,
                66.69264221191406,
                274.8728942871094
            ],
            "min" : [
                -80.05656433105469,
                -137.89926147460938,
                -11.032501220703125
            ],
            "type" : "VEC3"
        },
        {
            "bufferView" : 1,
            "componentType" : 5126,
            "count" : 791,
            "type" : "VEC3"
        },
        {
            "bufferView" : 2,
            "componentType" : 5126,
            "count" : 791,
            "type" : "VEC2"
        },
        {
            "bufferView" : 3,
            "componentType" : 5123,
            "count" : 2064,
            "type" : "SCALAR"
        },
        {
            "bufferView" : 4,
            "componentType" : 5126,
            "count" : 11914,
            "max" : [
                103.39656066894531,
                92.23790740966797,
                329.6329345703125
            ],
            "min" : [
                -111.80156707763672,
                -124.91542053222656,
                129.6715087890625
            ],
            "type" : "VEC3"
        },
        {
            "bufferView" : 5,
            "componentType" : 5126,
            "count" : 11914,
            "type" : "VEC3"
        },
        {
            "bufferView" : 6,
            "componentType" : 5126,
            "count" : 11914,
            "type" : "VEC2"
        },
        {
            "bufferView" : 7,
            "componentType" : 5123,
            "count" : 11946,
            "type" : "SCALAR"
        }
    ],
    "bufferViews" : [
        {
            "buffer" : 0,
            "byteLength" : 9492,
            "byteOffset" : 0
        },
        {
            "buffer" : 0,
            "byteLength" : 9492,
            "byteOffset" : 9492
        },
        {
            "buffer" : 0,
            "byteLength" : 6328,
            "byteOffset" : 18984
        },
        {
            "buffer" : 0,
            "byteLength" : 4128,
            "byteOffset" : 25312
        },
        {
            "buffer" : 0,
            "byteLength" : 142968,
            "byteOffset" : 29440
        },
        {
            "buffer" : 0,
            "byteLength" : 142968,
            "byteOffset" : 172408
        },
        {
            "buffer" : 0,
            "byteLength" : 95312,
            "byteOffset" : 315376
        },
        {
            "buffer" : 0,
            "byteLength" : 23892,
            "byteOffset" : 410688
        }
    ],
    "samplers" : [
        {
            "magFilter" : 9729,
            "minFilter" : 9986
        }
    ],
    "buffers" : [
        {
            "byteLength" : 434580,
            "uri" : "scene.bin"
        }
    ]
}
