{
  "accessors": [
    {
      "bufferView": 2,
      "componentType": 5126,
      "count": 1068,
      "max": [
        12.866550445556641,
        23.548530578613281,
        18.622814178466797
      ],
      "min": [
        -12.844810485839844,
        -53.677028656005859,
        0.091315150260925293
      ],
      "type": "VEC3"
    },
    {
      "bufferView": 2,
      "byteOffset": 12816,
      "componentType": 5126,
      "count": 1068,
      "max": [
        1,
        1,
        1
      ],
      "min": [
        -1,
        -1,
        -1
      ],
      "type": "VEC3"
    },
    {
      "bufferView": 1,
      "componentType": 5126,
      "count": 1068,
      "max": [
        0.98574894666671753,
        0.99134987592697144
      ],
      "min": [
        0.010079845786094666,
        0.020590970292687416
      ],
      "type": "VEC2"
    },
    {
      "bufferView": 0,
      "componentType": 5125,
      "count": 2220,
      "max": [
        1067
      ],
      "min": [
        0
      ],
      "type": "SCALAR"
    },
    {
      "bufferView": 2,
      "byteOffset": 25632,
      "componentType": 5126,
      "count": 224,
      "max": [
        10.077457427978516,
        9.0635442733764648,
        5.1421422958374023
      ],
      "min": [
        -10.076750755310059,
        -40.758518218994141,
        -2.9984273910522461
      ],
      "type": "VEC3"
    },
    {
      "bufferView": 2,
      "byteOffset": 28320,
      "componentType": 5126,
      "count": 224,
      "max": [
        1.9668991768639899e-08,
        1,
        0.97492808103561401
      ],
      "min": [
        -1.6606142594355333e-07,
        -1,
        -0.97492802143096924
      ],
      "type": "VEC3"
    },
    {
      "bufferView": 1,
      "byteOffset": 8544,
      "componentType": 5126,
      "count": 224,
      "max": [
        1.0099999904632568,
        2
      ],
      "min": [
        0,
        0
      ],
      "type": "VEC2"
    },
    {
      "bufferView": 0,
      "byteOffset": 8880,
      "componentType": 5125,
      "count": 336,
      "max": [
        223
      ],
      "min": [
        0
      ],
      "type": "SCALAR"
    },
    {
      "bufferView": 2,
      "byteOffset": 31008,
      "componentType": 5126,
      "count": 140,
      "max": [
        10.490108489990234,
        9.0635442733764648,
        5.1421422958374023
      ],
      "min": [
        -10.464629173278809,
        0.71362447738647461,
        -2.9984273910522461
      ],
      "type": "VEC3"
    },
    {
      "bufferView": 2,
      "byteOffset": 32688,
      "componentType": 5126,
      "count": 140,
      "max": [
        1,
        0.62285041809082031,
        0.60723567008972168
      ],
      "min": [
        -1,
        -0.62285095453262329,
        -0.60723364353179932
      ],
      "type": "VEC3"
    },
    {
      "bufferView": 1,
      "byteOffset": 10336,
      "componentType": 5126,
      "count": 140,
      "max": [
        0.98746395111083984,
        1
      ],
      "min": [
        0.012536019086837769,
        0
      ],
      "type": "VEC2"
    },
    {
      "bufferView": 0,
      "byteOffset": 10224,
      "componentType": 5125,
      "count": 384,
      "max": [
        139
      ],
      "min": [
        0
      ],
      "type": "SCALAR"
    },
    {
      "bufferView": 2,
      "byteOffset": 34368,
      "componentType": 5126,
      "count": 56,
      "max": [
        10.075209617614746,
        -32.408603668212891,
        5.1421422958374023
      ],
      "min": [
        -10.076750755310059,
        -40.758518218994141,
        -2.9984269142150879
      ],
      "type": "VEC3"
    },
    {
      "bufferView": 2,
      "byteOffset": 35040,
      "componentType": 5126,
      "count": 56,
      "max": [
        1,
        1.8030925730272429e-06,
        5.0459198064345401e-07
      ],
      "min": [
        -1,
        -1.8324935808777809e-06,
        -4.9604193463892443e-07
      ],
      "type": "VEC3"
    },
    {
      "bufferView": 1,
      "byteOffset": 11456,
      "componentType": 5126,
      "count": 56,
      "max": [
        0.98746395111083984,
        1
      ],
      "min": [
        0.012536019086837769,
        0
      ],
      "type": "VEC2"
    },
    {
      "bufferView": 0,
      "byteOffset": 11760,
      "componentType": 5125,
      "count": 144,
      "max": [
        55
      ],
      "min": [
        0
      ],
      "type": "SCALAR"
    }
  ],
  "asset": {
    "extras": {
      "author": "codexito (https://sketchfab.com/codexito)",
      "license": "CC-BY-4.0 (http://creativecommons.org/licenses/by/4.0/)",
      "source": "https://sketchfab.com/3d-models/fire-truck-e0fadd42bd3b448eaa0eb660764c170a",
      "title": "Fire Truck"
    },
    "generator": "Sketchfab-7.82.0",
    "version": "2.0"
  },
  "bufferViews": [
    {
      "buffer": 0,
      "byteLength": 12336,
      "byteOffset": 0,
      "name": "floatBufferViews",
      "target": 34963
    },
    {
      "buffer": 0,
      "byteLength": 11904,
      "byteOffset": 12336,
      "byteStride": 8,
      "name": "floatBufferViews",
      "target": 34962
    },
    {
      "buffer": 0,
      "byteLength": 35712,
      "byteOffset": 24240,
      "byteStride": 12,
      "name": "floatBufferViews",
      "target": 34962
    }
  ],
  "buffers": [
    {
      "byteLength": 59952,
      "uri": "scene.bin"
    }
  ],
  "images": [
    {
      "uri": "textures/bomberbase_baseColor.jpeg"
    },
    {
      "uri": "textures/bomberbase_metallicRoughness.jpg"
    },
    {
      "uri": "textures/bombllanta_baseColor.jpeg"
    },
    {
      "uri": "textures/bombllanta_metallicRoughness.jpg"
    },
    {
      "uri": "textures/bombruedafron_baseColor.jpeg"
    },
    {
      "uri": "textures/bombruedafron_metallicRoughness.jpg"
    },
    {
      "uri": "textures/bomruedaback_baseColor.jpeg"
    },
    {
      "uri": "textures/bomruedaback_metallicRoughness.jpg"
    }
  ],
  "materials": [
    {
      "doubleSided": true,
      "emissiveFactor": [
        0,
        0,
        0
      ],
      "name": "bomberbase",
      "pbrMetallicRoughness": {
        "baseColorFactor": [
          1,
          1,
          1,
          1
        ],
        "baseColorTexture": {
          "index": 0,
          "texCoord": 0
        },
        "metallicFactor": 1,
        "metallicRoughnessTexture": {
          "index": 1,
          "texCoord": 0
        },
        "roughnessFactor": 0.17511432926829273
      }
    },
    {
      "doubleSided": true,
      "name": "bombllanta",
      "pbrMetallicRoughness": {
        "baseColorFactor": [
          1,
          1,
          1,
          1
        ],
        "baseColorTexture": {
          "index": 2,
          "texCoord": 0
        },
        "metallicFactor": 1,
        "metallicRoughnessTexture": {
          "index": 3,
          "texCoord": 0
        },
        "roughnessFactor": 0.9921875
      }
    },
    {
      "doubleSided": true,
      "emissiveFactor": [
        0,
        0,
        0
      ],
      "name": "bombruedafron",
      "pbrMetallicRoughness": {
        "baseColorFactor": [
          1,
          1,
          1,
          1
        ],
        "baseColorTexture": {
          "index": 4,
          "texCoord": 0
        },
        "metallicFactor": 1,
        "metallicRoughnessTexture": {
          "index": 5,
          "texCoord": 0
        },
        "roughnessFactor": 1
      }
    },
    {
      "doubleSided": true,
      "emissiveFactor": [
        0,
        0,
        0
      ],
      "name": "bomruedaback",
      "pbrMetallicRoughness": {
        "baseColorFactor": [
          1,
          1,
          1,
          1
        ],
        "baseColorTexture": {
          "index": 6,
          "texCoord": 0
        },
        "metallicFactor": 1,
        "metallicRoughnessTexture": {
          "index": 7,
          "texCoord": 0
        },
        "roughnessFactor": 0.80000000000000004
      }
    }
  ],
  "meshes": [
    {
      "name": "camion bomberos_bomberbase_0",
      "primitives": [
        {
          "attributes": {
            "NORMAL": 1,
            "POSITION": 0,
            "TEXCOORD_0": 2
          },
          "indices": 3,
          "material": 0,
          "mode": 4
        }
      ]
    },
    {
      "name": "camion bomberos_bombllanta_0",
      "primitives": [
        {
          "attributes": {
            "NORMAL": 5,
            "POSITION": 4,
            "TEXCOORD_0": 6
          },
          "indices": 7,
          "material": 1,
          "mode": 4
        }
      ]
    },
    {
      "name": "camion bomberos_bombruedafron_0",
      "primitives": [
        {
          "attributes": {
            "NORMAL": 9,
            "POSITION": 8,
            "TEXCOORD_0": 10
          },
          "indices": 11,
          "material": 2,
          "mode": 4
        }
      ]
    },
    {
      "name": "camion bomberos_bomruedaback_0",
      "primitives": [
        {
          "attributes": {
            "NORMAL": 13,
            "POSITION": 12,
            "TEXCOORD_0": 14
          },
          "indices": 15,
          "material": 3,
          "mode": 4
        }
      ]
    }
  ],
  "nodes": [
    {
      "children": [
        1
      ],
      "name": "RootNode (gltf orientation matrix)",
      "rotation": [
        -0.70710678118654746,
        -0,
        -0,
        0.70710678118654757
      ]
    },
    {
      "children": [
        2
      ],
      "name": "RootNode (model correction matrix)"
    },
    {
      "children": [
        3
      ],
      "matrix": [
        1,
        0,
        0,
        0,
        0,
        0,
        1,
        0,
        0,
        -1,
        0,
        0,
        0,
        0,
        0,
        1
      ],
      "name": "f76d49c2d95d4bb5a6331058e7560b0b.fbx"
    },
    {
      "children": [
        4
      ],
      "name": "RootNode"
    },
    {
      "children": [
        5
      ],
      "matrix": [
        1,
        0,
        0,
        0,
        0,
        2.2204460492503131e-16,
        -1,
        0,
        0,
        1,
        2.2204460492503131e-16,
        0,
        0,
        9.8162031173706055,
        0,
        1
      ],
      "name": "camion bomberos"
    },
    {
      "children": [
        6,
        7,
        8,
        9
      ],
      "matrix": [
        1,
        0,
        -0,
        0,
        0,
        1,
        0,
        0,
        0,
        0,
        1,
        0,
        -0.00033903121948242188,
        15.064249038696289,
        -9.8112030029296875,
        1
      ],
      "name": ""
    },
    {
      "mesh": 0,
      "name": "camion bomberos_bomberbase_0"
    },
    {
      "mesh": 1,
      "name": "camion bomberos_bombllanta_0"
    },
    {
      "mesh": 2,
      "name": "camion bomberos_bombruedafron_0"
    },
    {
      "mesh": 3,
      "name": "camion bomberos_bomruedaback_0"
    }
  ],
  "samplers": [
    {
      "magFilter": 9729,
      "minFilter": 9987,
      "wrapS": 10497,
      "wrapT": 10497
    }
  ],
  "scene": 0,
  "scenes": [
    {
      "name": "OSG_Scene",
      "nodes": [
        0
      ]
    }
  ],
  "textures": [
    {
      "sampler": 0,
      "source": 0
    },
    {
      "sampler": 0,
      "source": 1
    },
    {
      "sampler": 0,
      "source": 2
    },
    {
      "sampler": 0,
      "source": 3
    },
    {
      "sampler": 0,
      "source": 4
    },
    {
      "sampler": 0,
      "source": 5
    },
    {
      "sampler": 0,
      "source": 6
    },
    {
      "sampler": 0,
      "source": 7
    }
  ]
}

