{
    "asset" : {
        "generator" : "Khronos glTF Blender I/O v1.4.40",
        "version" : "2.0"
    },
    "scene" : 0,
    "scenes" : [
        {
            "name" : "Scene",
            "nodes" : [
                5
            ]
        }
    ],
    "nodes" : [
        {
            "mesh" : 0,
            "name" : "prop_book_03_inst_002_prop_books_01_mt_0"
        },
        {
            "children" : [
                0
            ],
            "name" : "prop_book_03_inst_002",
            "rotation" : [
                0,
                0.7071068286895752,
                0,
                0.7071068286895752
            ],
            "scale" : [
                0.009999999776482582,
                0.009999999776482582,
                0.009999999776482582
            ],
            "translation" : [
                -1.25,
                0,
                -3
            ]
        },
        {
            "children" : [
                1
            ],
            "name" : "RootNode"
        },
        {
            "children" : [
                2
            ],
            "name" : "buchset_artstation.fbx",
            "rotation" : [
                0.7071068286895752,
                0,
                0,
                0.7071068286895752
            ]
        },
        {
            "children" : [
                3
            ],
            "name" : "RootNode (model correction matrix)"
        },
        {
            "children" : [
                4
            ],
            "name" : "RootNode (gltf orientation matrix)",
            "rotation" : [
                -0.7071068286895752,
                0,
                0,
                0.7071068286895752
            ]
        }
    ],
    "materials" : [
        {
            "doubleSided" : true,
            "name" : "prop_books_01_mt",
            "normalTexture" : {
                "index" : 0,
                "texCoord" : 0
            },
            "occlusionTexture" : {
                "index" : 1,
                "texCoord" : 0
            },
            "pbrMetallicRoughness" : {
                "baseColorTexture" : {
                    "index" : 2,
                    "texCoord" : 0
                },
                "metallicRoughnessTexture" : {
                    "index" : 1,
                    "texCoord" : 0
                }
            }
        }
    ],
    "meshes" : [
        {
            "name" : "prop_book_03_inst_002_prop_books_01_mt_0",
            "primitives" : [
                {
                    "attributes" : {
                        "POSITION" : 0,
                        "NORMAL" : 1,
                        "TEXCOORD_0" : 2,
                        "TEXCOORD_1" : 3,
                        "TEXCOORD_2" : 4,
                        "TEXCOORD_3" : 5,
                        "TEXCOORD_4" : 6
                    },
                    "indices" : 7,
                    "material" : 0
                }
            ]
        }
    ],
    "textures" : [
        {
            "sampler" : 0,
            "source" : 0
        },
        {
            "sampler" : 0,
            "source" : 1
        },
        {
            "sampler" : 0,
            "source" : 2
        }
    ],
    "images" : [
        {
            "mimeType" : "image/png",
            "name" : "prop_books_01_mt_normal",
            "uri" : "prop_books_01_mt_normal.jpg"
        },
        {
            "mimeType" : "image/png",
            "name" : "prop_books_01_mt_metallicRoughness",
            "uri" : "prop_books_01_mt_metallicRoughness.jpg"
        },
        {
            "mimeType" : "image/png",
            "name" : "prop_books_01_mt_baseColor",
            "uri" : "prop_books_01_mt_baseColor.jpg"
        }
    ],
    "accessors" : [
        {
            "bufferView" : 0,
            "componentType" : 5126,
            "count" : 171,
            "max" : [
                20.915428161621094,
                9.56381607055664,
                14.83953857421875
            ],
            "min" : [
                -20.915428161621094,
                -1.04746675491333,
                -15.359588623046875
            ],
            "type" : "VEC3"
        },
        {
            "bufferView" : 1,
            "componentType" : 5126,
            "count" : 171,
            "type" : "VEC3"
        },
        {
            "bufferView" : 2,
            "componentType" : 5126,
            "count" : 171,
            "type" : "VEC2"
        },
        {
            "bufferView" : 3,
            "componentType" : 5126,
            "count" : 171,
            "type" : "VEC2"
        },
        {
            "bufferView" : 4,
            "componentType" : 5126,
            "count" : 171,
            "type" : "VEC2"
        },
        {
            "bufferView" : 5,
            "componentType" : 5126,
            "count" : 171,
            "type" : "VEC2"
        },
        {
            "bufferView" : 6,
            "componentType" : 5126,
            "count" : 171,
            "type" : "VEC2"
        },
        {
            "bufferView" : 7,
            "componentType" : 5123,
            "count" : 276,
            "type" : "SCALAR"
        }
    ],
    "bufferViews" : [
        {
            "buffer" : 0,
            "byteLength" : 2052,
            "byteOffset" : 0
        },
        {
            "buffer" : 0,
            "byteLength" : 2052,
            "byteOffset" : 2052
        },
        {
            "buffer" : 0,
            "byteLength" : 1368,
            "byteOffset" : 4104
        },
        {
            "buffer" : 0,
            "byteLength" : 1368,
            "byteOffset" : 5472
        },
        {
            "buffer" : 0,
            "byteLength" : 1368,
            "byteOffset" : 6840
        },
        {
            "buffer" : 0,
            "byteLength" : 1368,
            "byteOffset" : 8208
        },
        {
            "buffer" : 0,
            "byteLength" : 1368,
            "byteOffset" : 9576
        },
        {
            "buffer" : 0,
            "byteLength" : 552,
            "byteOffset" : 10944
        }
    ],
    "samplers" : [
        {
            "magFilter" : 9729,
            "minFilter" : 9986
        }
    ],
    "buffers" : [
        {
            "byteLength" : 11496,
            "uri" : "scene.bin"
        }
    ]
}
