{
  "accessors": [
    {
      "bufferView": 2,
      "componentType": 5126,
      "count": 114,
      "max": [
        60.503684997558594,
        59.584499359130859,
        197.2017822265625
      ],
      "min": [
        -60.503684997558594,
        -59.584503173828125,
        2.5973129272460938
      ],
      "type": "VEC3"
    },
    {
      "bufferView": 2,
      "byteOffset": 1368,
      "componentType": 5126,
      "count": 114,
      "max": [
        0.99926978349685669,
        0.9840887188911438,
        0.44100013375282288
      ],
      "min": [
        -0.99926984310150146,
        -0.98408883810043335,
        -0.44100034236907959
      ],
      "type": "VEC3"
    },
    {
      "bufferView": 3,
      "componentType": 5126,
      "count": 114,
      "max": [
        0.9864804744720459,
        1,
        0.069580107927322388,
        1
      ],
      "min": [
        -0.98778069019317627,
        -1,
        -0.069580152630805969,
        1
      ],
      "type": "VEC4"
    },
    {
      "bufferView": 1,
      "componentType": 5126,
      "count": 114,
      "max": [
        1.0277777910232544,
        1
      ],
      "min": [
        0.027777820825576782,
        0
      ],
      "type": "VEC2"
    },
    {
      "bufferView": 0,
      "componentType": 5125,
      "count": 540,
      "max": [
        113
      ],
      "min": [
        0
      ],
      "type": "SCALAR"
    },
    {
      "bufferView": 2,
      "byteOffset": 2736,
      "componentType": 5126,
      "count": 198,
      "max": [
        58.797100067138672,
        57.903842926025391,
        382.374755859375
      ],
      "min": [
        -58.797100067138672,
        -57.903846740722656,
        -15
      ],
      "type": "VEC3"
    },
    {
      "bufferView": 2,
      "byteOffset": 5112,
      "componentType": 5126,
      "count": 198,
      "max": [
        1,
        0.98480790853500366,
        0.39034706354141235
      ],
      "min": [
        -1,
        -0.98480790853500366,
        -0.99698930978775024
      ],
      "type": "VEC3"
    },
    {
      "bufferView": 3,
      "byteOffset": 1824,
      "componentType": 5126,
      "count": 198,
      "max": [
        0.28125777840614319,
        0,
        0.99613469839096069,
        1
      ],
      "min": [
        -0.35389614105224609,
        -0.9999997615814209,
        -0.99613463878631592,
        -1
      ],
      "type": "VEC4"
    },
    {
      "bufferView": 1,
      "byteOffset": 912,
      "componentType": 5126,
      "count": 198,
      "max": [
        0.99240392446517944,
        1
      ],
      "min": [
        0.0075961053371429443,
        0
      ],
      "type": "VEC2"
    },
    {
      "bufferView": 0,
      "byteOffset": 2160,
      "componentType": 5125,
      "count": 1020,
      "max": [
        197
      ],
      "min": [
        0
      ],
      "type": "SCALAR"
    },
    {
      "bufferView": 2,
      "byteOffset": 7488,
      "componentType": 5126,
      "count": 126,
      "max": [
        25.99029541015625,
        25.595455169677734,
        403.94338989257812
      ],
      "min": [
        -25.99029541015625,
        -25.595457077026367,
        382.374755859375
      ],
      "type": "VEC3"
    },
    {
      "bufferView": 2,
      "byteOffset": 9000,
      "componentType": 5126,
      "count": 126,
      "max": [
        0.99999356269836426,
        0.98480165004730225,
        0.97614091634750366
      ],
      "min": [
        -0.99999362230300903,
        -0.98480170965194702,
        -1
      ],
      "type": "VEC3"
    },
    {
      "bufferView": 3,
      "byteOffset": 4992,
      "componentType": 5126,
      "count": 126,
      "max": [
        0.35878446698188782,
        0,
        0.9797210693359375,
        1
      ],
      "min": [
        -0.36896386742591858,
        -0.9991680383682251,
        -0.9797210693359375,
        1
      ],
      "type": "VEC4"
    },
    {
      "bufferView": 1,
      "byteOffset": 2496,
      "componentType": 5126,
      "count": 126,
      "max": [
        0.99240392446517944,
        1
      ],
      "min": [
        0.0075961053371429443,
        0
      ],
      "type": "VEC2"
    },
    {
      "bufferView": 0,
      "byteOffset": 6240,
      "componentType": 5125,
      "count": 480,
      "max": [
        125
      ],
      "min": [
        0
      ],
      "type": "SCALAR"
    }
  ],
  "asset": {
    "extras": {
      "author": "Anthony Yanez (https://sketchfab.com/paulyanez)",
      "license": "CC-BY-4.0 (http://creativecommons.org/licenses/by/4.0/)",
      "source": "https://sketchfab.com/models/52ef7a0dc7614bd1bab532c6b72dd5b0",
      "title": "Low Poly Wine Bottle"
    },
    "generator": "Sketchfab-3.47.2",
    "version": "2.0"
  },
  "bufferViews": [
    {
      "buffer": 0,
      "byteLength": 8160,
      "byteOffset": 0,
      "name": "floatBufferViews",
      "target": 34963
    },
    {
      "buffer": 0,
      "byteLength": 3504,
      "byteOffset": 8160,
      "byteStride": 8,
      "name": "floatBufferViews",
      "target": 34962
    },
    {
      "buffer": 0,
      "byteLength": 10512,
      "byteOffset": 11664,
      "byteStride": 12,
      "name": "floatBufferViews",
      "target": 34962
    },
    {
      "buffer": 0,
      "byteLength": 7008,
      "byteOffset": 22176,
      "byteStride": 16,
      "name": "floatBufferViews",
      "target": 34962
    }
  ],
  "buffers": [
    {
      "byteLength": 29184,
      "uri": "scene.bin"
    }
  ],
  "images": [
    {
      "uri": "textures/21_-_Default_baseColor.jpeg"
    },
    {
      "uri": "textures/21_-_Default_normal.jpg"
    }
  ],
  "materials": [
    {
      "doubleSided": true,
      "emissiveFactor": [
        0,
        0,
        0
      ],
      "name": "21_-_Default",
      "normalTexture": {
        "index": 1,
        "scale": 1,
        "texCoord": 0
      },
      "pbrMetallicRoughness": {
        "baseColorFactor": [
          1,
          1,
          1,
          1
        ],
        "baseColorTexture": {
          "index": 0,
          "texCoord": 0
        },
        "metallicFactor": 0.58366047249999997,
        "roughnessFactor": 0.89297135959999996
      }
    },
    {
      "alphaMode": "BLEND",
      "doubleSided": true,
      "emissiveFactor": [
        0,
        0,
        0
      ],
      "name": "20_-_Default",
      "pbrMetallicRoughness": {
        "baseColorFactor": [
          0.047058799999999998,
          0.145098,
          0,
          0.99578168460000005
        ],
        "metallicFactor": 0.62608471489999995,
        "roughnessFactor": 0.24058195169999996
      }
    },
    {
      "doubleSided": true,
      "emissiveFactor": [
        0,
        0,
        0
      ],
      "name": "19_-_Default",
      "pbrMetallicRoughness": {
        "baseColorFactor": [
          0.466667,
          0,
          0,
          1
        ],
        "metallicFactor": 1,
        "roughnessFactor": 0.89297135959999996
      }
    }
  ],
  "meshes": [
    {
      "name": "Wine Bottle_21 - Default_0",
      "primitives": [
        {
          "attributes": {
            "NORMAL": 1,
            "POSITION": 0,
            "TANGENT": 2,
            "TEXCOORD_0": 3
          },
          "indices": 4,
          "material": 0,
          "mode": 4
        }
      ]
    },
    {
      "name": "Wine Bottle_20 - Default_0",
      "primitives": [
        {
          "attributes": {
            "NORMAL": 6,
            "POSITION": 5,
            "TANGENT": 7,
            "TEXCOORD_0": 8
          },
          "indices": 9,
          "material": 1,
          "mode": 4
        }
      ]
    },
    {
      "name": "Wine Bottle_19 - Default_0",
      "primitives": [
        {
          "attributes": {
            "NORMAL": 11,
            "POSITION": 10,
            "TANGENT": 12,
            "TEXCOORD_0": 13
          },
          "indices": 14,
          "material": 2,
          "mode": 4
        }
      ]
    }
  ],
  "nodes": [
    {
      "children": [
        1
      ],
      "name": "RootNode (gltf orientation matrix)",
      "rotation": [
        -0.70710678118654746,
        -0,
        -0,
        0.70710678118654757
      ]
    },
    {
      "children": [
        2
      ],
      "name": "RootNode (model correction matrix)"
    },
    {
      "children": [
        3
      ],
      "matrix": [
        1,
        0,
        0,
        0,
        0,
        0,
        1,
        0,
        0,
        -1,
        0,
        0,
        0,
        0,
        0,
        1
      ],
      "name": "Wine Bottle.FBX"
    },
    {
      "children": [
        4
      ],
      "name": "RootNode"
    },
    {
      "children": [
        5,
        6,
        7
      ],
      "matrix": [
        0.71211016178131104,
        0,
        0,
        0,
        0,
        1.5812021953583134e-16,
        -0.71211016178131104,
        0,
        0,
        0.80946409702301025,
        1.7973713562447152e-16,
        0,
        0,
        0,
        0,
        1
      ],
      "name": "Wine Bottle"
    },
    {
      "mesh": 0,
      "name": "Wine Bottle_21 - Default_0"
    },
    {
      "mesh": 1,
      "name": "Wine Bottle_20 - Default_0"
    },
    {
      "mesh": 2,
      "name": "Wine Bottle_19 - Default_0"
    }
  ],
  "samplers": [
    {
      "magFilter": 9729,
      "minFilter": 9987,
      "wrapS": 10497,
      "wrapT": 10497
    }
  ],
  "scene": 0,
  "scenes": [
    {
      "name": "OSG_Scene",
      "nodes": [
        0
      ]
    }
  ],
  "textures": [
    {
      "sampler": 0,
      "source": 0
    },
    {
      "sampler": 0,
      "source": 1
    }
  ]
}

