{
    "asset" : {
        "generator" : "Khronos glTF Blender I/O v1.4.40",
        "version" : "2.0"
    },
    "scene" : 0,
    "scenes" : [
        {
            "name" : "Scene",
            "nodes" : [
                7,
                8,
                9
            ]
        }
    ],
    "nodes" : [
        {
            "mesh" : 0,
            "name" : "Mesh_0"
        },
        {
            "children" : [
                0
            ],
            "name" : "node_Sword_One_Handed.01_V01_-11484_1"
        },
        {
            "children" : [
                1
            ],
            "name" : "UnityGlTF_correctionMatrix_0",
            "rotation" : [
                0,
                1,
                0,
                4.371138828673793e-08
            ]
        },
        {
            "children" : [
                2
            ],
            "name" : "GLTF_SceneRootNode"
        },
        {
            "children" : [
                3
            ],
            "name" : "Correction matrix",
            "rotation" : [
                0.7071068286895752,
                0,
                0,
                0.7071068286895752
            ]
        },
        {
            "children" : [
                4
            ],
            "name" : "root"
        },
        {
            "children" : [
                5
            ],
            "name" : "RootNode (model correction matrix)",
            "rotation" : [
                -0.4525239169597626,
                0.5318937301635742,
                -0.140046164393425,
                0.701924741268158
            ],
            "translation" : [
                -0.2494533509016037,
                -0.1376369297504425,
                0.06410280615091324
            ]
        },
        {
            "children" : [
                6
            ],
            "name" : "RootNode (gltf orientation matrix)",
            "rotation" : [
                -0.7071068286895752,
                0,
                0,
                0.7071068286895752
            ]
        },
        {
            "name" : "Light",
            "rotation" : [
                0.16907575726509094,
                0.7558803558349609,
                -0.27217137813568115,
                0.570947527885437
            ],
            "translation" : [
                4.076245307922363,
                5.903861999511719,
                -1.0054539442062378
            ]
        },
        {
            "name" : "Camera",
            "rotation" : [
                0.483536034822464,
                0.33687159419059753,
                -0.20870360732078552,
                0.7804827094078064
            ],
            "translation" : [
                7.358891487121582,
                4.958309173583984,
                6.925790786743164
            ]
        }
    ],
    "materials" : [
        {
            "name" : "Sword_One_Handed.01_V01",
            "normalTexture" : {
                "index" : 0,
                "texCoord" : 0
            },
            "occlusionTexture" : {
                "index" : 1,
                "texCoord" : 0
            },
            "pbrMetallicRoughness" : {
                "baseColorTexture" : {
                    "index" : 2,
                    "texCoord" : 0
                },
                "metallicRoughnessTexture" : {
                    "index" : 1,
                    "texCoord" : 0
                }
            }
        }
    ],
    "meshes" : [
        {
            "name" : "Mesh_0",
            "primitives" : [
                {
                    "attributes" : {
                        "POSITION" : 0,
                        "NORMAL" : 1,
                        "TEXCOORD_0" : 2
                    },
                    "indices" : 3,
                    "material" : 0
                }
            ]
        }
    ],
    "textures" : [
        {
            "sampler" : 0,
            "source" : 0
        },
        {
            "sampler" : 0,
            "source" : 1
        },
        {
            "sampler" : 0,
            "source" : 2
        }
    ],
    "images" : [
        {
            "mimeType" : "image/jpeg",
            "name" : "Sword_One_Handed.01_V01_normal",
            "uri" : "Sword_One_Handed_01_V01_normal.jpg"
        },
        {
            "mimeType" : "image/jpeg",
            "name" : "Sword_One_Handed.01_V01_metallicRoughness",
            "uri" : "Sword_One_Handed_01_V01_metallicRoughness.jpg"
        },
        {
            "mimeType" : "image/jpeg",
            "name" : "Sword_One_Handed.01_V01_baseColor",
            "uri" : "Sword_One_Handed_01_V01_baseColor.jpg"
        }
    ],
    "accessors" : [
        {
            "bufferView" : 0,
            "componentType" : 5126,
            "count" : 725,
            "max" : [
                0.11580199748277664,
                0.8306229710578918,
                0.01181500032544136
            ],
            "min" : [
                -0.11568299680948257,
                -0.15177200734615326,
                -0.011939999647438526
            ],
            "type" : "VEC3"
        },
        {
            "bufferView" : 1,
            "componentType" : 5126,
            "count" : 725,
            "type" : "VEC3"
        },
        {
            "bufferView" : 2,
            "componentType" : 5126,
            "count" : 725,
            "type" : "VEC2"
        },
        {
            "bufferView" : 3,
            "componentType" : 5123,
            "count" : 3420,
            "type" : "SCALAR"
        }
    ],
    "bufferViews" : [
        {
            "buffer" : 0,
            "byteLength" : 8700,
            "byteOffset" : 0
        },
        {
            "buffer" : 0,
            "byteLength" : 8700,
            "byteOffset" : 8700
        },
        {
            "buffer" : 0,
            "byteLength" : 5800,
            "byteOffset" : 17400
        },
        {
            "buffer" : 0,
            "byteLength" : 6840,
            "byteOffset" : 23200
        }
    ],
    "samplers" : [
        {
            "magFilter" : 9729,
            "minFilter" : 9986,
            "wrapS" : 33071,
            "wrapT" : 33071
        }
    ],
    "buffers" : [
        {
            "byteLength" : 30040,
            "uri" : "scene.bin"
        }
    ]
}
