{
  "accessors": [
    {
      "bufferView": 2,
      "componentType": 5126,
      "count": 63,
      "max": [
        0.22529299557209015,
        1.1258460283279419,
        1.6872889995574951
      ],
      "min": [
        -1.2359839677810669,
        -0.20369599759578705,
        0.41790199279785156
      ],
      "type": "VEC3"
    },
    {
      "bufferView": 2,
      "byteOffset": 756,
      "componentType": 5126,
      "count": 63,
      "max": [
        0.63305705785751343,
        0.94159001111984253,
        0.98835712671279907
      ],
      "min": [
        -0.97423738241195679,
        -0.69185465574264526,
        -0.91549986600875854
      ],
      "type": "VEC3"
    },
    {
      "bufferView": 3,
      "componentType": 5126,
      "count": 63,
      "max": [
        0.96974188089370728,
        0.97206324338912964,
        0.89800620079040527,
        1
      ],
      "min": [
        -0.99221807718276978,
        -0.82623052597045898,
        -0.74094361066818237,
        -1
      ],
      "type": "VEC4"
    },
    {
      "bufferView": 1,
      "componentType": 5126,
      "count": 63,
      "max": [
        0.625,
        0.93604397773742676
      ],
      "min": [
        0.375,
        0.063982002437114716
      ],
      "type": "VEC2"
    },
    {
      "bufferView": 0,
      "componentType": 5125,
      "count": 180,
      "max": [
        62
      ],
      "min": [
        0
      ],
      "type": "SCALAR"
    },
    {
      "bufferView": 2,
      "byteOffset": 1512,
      "componentType": 5126,
      "count": 20,
      "max": [
        0.22635500133037567,
        1.1258460283279419,
        1.6870349645614624
      ],
      "min": [
        -1.1630640029907227,
        -0.21073000133037567,
        0.59286898374557495
      ],
      "type": "VEC3"
    },
    {
      "bufferView": 2,
      "byteOffset": 1752,
      "componentType": 5126,
      "count": 20,
      "max": [
        0.67428779602050781,
        0.94159001111984253,
        0.98835712671279907
      ],
      "min": [
        -0.67896902561187744,
        -0.68601870536804199,
        -0.43552207946777344
      ],
      "type": "VEC3"
    },
    {
      "bufferView": 3,
      "byteOffset": 1008,
      "componentType": 5126,
      "count": 20,
      "max": [
        0.74227583408355713,
        0.99825727939605713,
        0.67853033542633057,
        1
      ],
      "min": [
        -0.24946096539497375,
        -0.72632735967636108,
        -0.71711748838424683,
        1
      ],
      "type": "VEC4"
    },
    {
      "bufferView": 1,
      "byteOffset": 504,
      "componentType": 5126,
      "count": 20,
      "max": [
        0.74947702884674072,
        0.75707197189331055
      ],
      "min": [
        0.66333800554275513,
        0.55720597505569458
      ],
      "type": "VEC2"
    },
    {
      "bufferView": 0,
      "byteOffset": 720,
      "componentType": 5125,
      "count": 48,
      "max": [
        19
      ],
      "min": [
        0
      ],
      "type": "SCALAR"
    },
    {
      "bufferView": 2,
      "byteOffset": 1992,
      "componentType": 5126,
      "count": 2210,
      "max": [
        2.9100279808044434,
        3.3575119972229004,
        1.3639309406280518
      ],
      "min": [
        -3.433197021484375,
        -3.0474569797515869,
        -0.063666000962257385
      ],
      "type": "VEC3"
    },
    {
      "bufferView": 2,
      "byteOffset": 28512,
      "componentType": 5126,
      "count": 2210,
      "max": [
        0.9993283748626709,
        0.99962621927261353,
        0.99975258111953735
      ],
      "min": [
        -0.99825197458267212,
        -0.9993366003036499,
        -1
      ],
      "type": "VEC3"
    },
    {
      "bufferView": 3,
      "byteOffset": 1328,
      "componentType": 5126,
      "count": 2210,
      "max": [
        0.98879092931747437,
        0.99008584022521973,
        0.99997979402542114,
        1
      ],
      "min": [
        -0.99532830715179443,
        -0.99030691385269165,
        -1,
        1
      ],
      "type": "VEC4"
    },
    {
      "bufferView": 1,
      "byteOffset": 664,
      "componentType": 5126,
      "count": 2210,
      "max": [
        0.99800801277160645,
        0.98289698362350464
      ],
      "min": [
        0.0019920000340789557,
        0.0019620000384747982
      ],
      "type": "VEC2"
    },
    {
      "bufferView": 0,
      "byteOffset": 912,
      "componentType": 5125,
      "count": 8736,
      "max": [
        2209
      ],
      "min": [
        0
      ],
      "type": "SCALAR"
    },
    {
      "bufferView": 2,
      "byteOffset": 55032,
      "componentType": 5126,
      "count": 786,
      "max": [
        2.3714940547943115,
        2.7355198860168457,
        0.73886901140213013
      ],
      "min": [
        -2.7450211048126221,
        -2.6795060634613037,
        0.22135299444198608
      ],
      "type": "VEC3"
    },
    {
      "bufferView": 2,
      "byteOffset": 64464,
      "componentType": 5126,
      "count": 786,
      "max": [
        0.41258808970451355,
        0.39459395408630371,
        1
      ],
      "min": [
        -0.51248008012771606,
        -0.50013810396194458,
        -1
      ],
      "type": "VEC3"
    },
    {
      "bufferView": 3,
      "byteOffset": 36688,
      "componentType": 5126,
      "count": 786,
      "max": [
        1,
        0.94108408689498901,
        0.51401585340499878,
        1
      ],
      "min": [
        -0.99259048700332642,
        -0.99997341632843018,
        -0.37972897291183472,
        -1
      ],
      "type": "VEC4"
    },
    {
      "bufferView": 1,
      "byteOffset": 18344,
      "componentType": 5126,
      "count": 786,
      "max": [
        1.0756299495697021,
        1.1471799612045288
      ],
      "min": [
        -0.070276997983455658,
        0.0012730000307783484
      ],
      "type": "VEC2"
    },
    {
      "bufferView": 0,
      "byteOffset": 35856,
      "componentType": 5125,
      "count": 4224,
      "max": [
        785
      ],
      "min": [
        0
      ],
      "type": "SCALAR"
    },
    {
      "bufferView": 2,
      "byteOffset": 73896,
      "componentType": 5126,
      "count": 1245,
      "max": [
        1.6251950263977051,
        1.1258460283279419,
        1.6872889995574951
      ],
      "min": [
        -1.4962190389633179,
        -1.2289600372314453,
        0.28870201110839844
      ],
      "type": "VEC3"
    },
    {
      "bufferView": 2,
      "byteOffset": 88836,
      "componentType": 5126,
      "count": 1245,
      "max": [
        0.99731451272964478,
        0.99847054481506348,
        0.99870878458023071
      ],
      "min": [
        -0.98868000507354736,
        -0.99276578426361084,
        -0.99601590633392334
      ],
      "type": "VEC3"
    },
    {
      "bufferView": 3,
      "byteOffset": 49264,
      "componentType": 5126,
      "count": 1245,
      "max": [
        0.9999813437461853,
        0.99889308214187622,
        0.99550414085388184,
        1
      ],
      "min": [
        -0.99439924955368042,
        -0.99807089567184448,
        -0.99964612722396851,
        -1
      ],
      "type": "VEC4"
    },
    {
      "bufferView": 1,
      "byteOffset": 24632,
      "componentType": 5126,
      "count": 1245,
      "max": [
        1.1351050138473511,
        0.99150598049163818
      ],
      "min": [
        -0.20435099303722382,
        0.0037559999618679285
      ],
      "type": "VEC2"
    },
    {
      "bufferView": 0,
      "byteOffset": 52752,
      "componentType": 5125,
      "count": 5616,
      "max": [
        1244
      ],
      "min": [
        0
      ],
      "type": "SCALAR"
    },
    {
      "bufferView": 2,
      "byteOffset": 103776,
      "componentType": 5126,
      "count": 129,
      "max": [
        0.24156300723552704,
        1.1258460283279419,
        1.6858119964599609
      ],
      "min": [
        -1.5064129829406738,
        -0.611549973487854,
        0.28870201110839844
      ],
      "type": "VEC3"
    },
    {
      "bufferView": 2,
      "byteOffset": 105324,
      "componentType": 5126,
      "count": 129,
      "max": [
        0.88330924510955811,
        0.98773777484893799,
        0.98144686222076416
      ],
      "min": [
        -0.99847173690795898,
        -0.99179065227508545,
        -0.99408888816833496
      ],
      "type": "VEC3"
    },
    {
      "bufferView": 3,
      "byteOffset": 69184,
      "componentType": 5126,
      "count": 129,
      "max": [
        0.98648518323898315,
        0.75516927242279053,
        0.97974681854248047,
        1
      ],
      "min": [
        -0.9992140531539917,
        -0.8855552077293396,
        -0.054536495357751846,
        -1
      ],
      "type": "VEC4"
    },
    {
      "bufferView": 1,
      "byteOffset": 34592,
      "componentType": 5126,
      "count": 129,
      "max": [
        1,
        1.0027869939804077
      ],
      "min": [
        0,
        0
      ],
      "type": "VEC2"
    },
    {
      "bufferView": 0,
      "byteOffset": 75216,
      "componentType": 5125,
      "count": 588,
      "max": [
        128
      ],
      "min": [
        0
      ],
      "type": "SCALAR"
    }
  ],
  "asset": {
    "extras": {
      "author": "JalenJacobson (https://sketchfab.com/JalenJacobson)",
      "license": "CC-BY-4.0 (http://creativecommons.org/licenses/by/4.0/)",
      "source": "https://sketchfab.com/3d-models/camp-fire-b7967d9c16b64f2790b87e5ff8a80b52",
      "title": "Camp Fire"
    },
    "generator": "Sketchfab-6.22.0",
    "version": "2.0"
  },
  "bufferViews": [
    {
      "buffer": 0,
      "byteLength": 77568,
      "byteOffset": 0,
      "name": "floatBufferViews",
      "target": 34963
    },
    {
      "buffer": 0,
      "byteLength": 35624,
      "byteOffset": 77568,
      "byteStride": 8,
      "name": "floatBufferViews",
      "target": 34962
    },
    {
      "buffer": 0,
      "byteLength": 106872,
      "byteOffset": 113192,
      "byteStride": 12,
      "name": "floatBufferViews",
      "target": 34962
    },
    {
      "buffer": 0,
      "byteLength": 71248,
      "byteOffset": 220064,
      "byteStride": 16,
      "name": "floatBufferViews",
      "target": 34962
    }
  ],
  "buffers": [
    {
      "byteLength": 291312,
      "uri": "scene.bin"
    }
  ],
  "images": [
    {
      "uri": "textures/lambert2SG_baseColor.jpeg"
    },
    {
      "uri": "textures/lambert3SG_baseColor.jpeg"
    },
    {
      "uri": "textures/lambert5SG_baseColor.jpeg"
    },
    {
      "uri": "textures/lambert6SG_baseColor.jpeg"
    }
  ],
  "materials": [
    {
      "doubleSided": true,
      "name": "initialShadingGroup",
      "pbrMetallicRoughness": {
        "baseColorFactor": [
          1,
          1,
          1,
          1
        ],
        "metallicFactor": 0,
        "roughnessFactor": 0.59999999999999998
      }
    },
    {
      "doubleSided": true,
      "name": "lambert2SG",
      "pbrMetallicRoughness": {
        "baseColorFactor": [
          1,
          1,
          1,
          1
        ],
        "baseColorTexture": {
          "index": 0,
          "texCoord": 0
        },
        "metallicFactor": 0,
        "roughnessFactor": 0.56878810980000005
      }
    },
    {
      "doubleSided": true,
      "name": "lambert3SG",
      "pbrMetallicRoughness": {
        "baseColorFactor": [
          0.35537347559999999,
          0.35537347559999999,
          0.35537347559999999,
          1
        ],
        "baseColorTexture": {
          "index": 1,
          "texCoord": 0
        },
        "metallicFactor": 0,
        "roughnessFactor": 0.59999999999999998
      }
    },
    {
      "doubleSided": true,
      "name": "lambert4SG",
      "pbrMetallicRoughness": {
        "baseColorFactor": [
          1,
          1,
          1,
          1
        ],
        "metallicFactor": 0,
        "roughnessFactor": 0.59999999999999998
      }
    },
    {
      "doubleSided": true,
      "name": "lambert5SG",
      "pbrMetallicRoughness": {
        "baseColorFactor": [
          1,
          1,
          1,
          1
        ],
        "baseColorTexture": {
          "index": 2,
          "texCoord": 0
        },
        "metallicFactor": 0,
        "roughnessFactor": 1
      }
    },
    {
      "doubleSided": true,
      "name": "lambert6SG",
      "pbrMetallicRoughness": {
        "baseColorFactor": [
          1,
          1,
          1,
          1
        ],
        "baseColorTexture": {
          "index": 3,
          "texCoord": 0
        },
        "metallicFactor": 0,
        "roughnessFactor": 0.59999999999999998
      }
    }
  ],
  "meshes": [
    {
      "primitives": [
        {
          "attributes": {
            "NORMAL": 1,
            "POSITION": 0,
            "TANGENT": 2,
            "TEXCOORD_0": 3
          },
          "indices": 4,
          "material": 0,
          "mode": 4
        }
      ]
    },
    {
      "primitives": [
        {
          "attributes": {
            "NORMAL": 6,
            "POSITION": 5,
            "TANGENT": 7,
            "TEXCOORD_0": 8
          },
          "indices": 9,
          "material": 3,
          "mode": 4
        }
      ]
    },
    {
      "primitives": [
        {
          "attributes": {
            "NORMAL": 11,
            "POSITION": 10,
            "TANGENT": 12,
            "TEXCOORD_0": 13
          },
          "indices": 14,
          "material": 1,
          "mode": 4
        }
      ]
    },
    {
      "primitives": [
        {
          "attributes": {
            "NORMAL": 16,
            "POSITION": 15,
            "TANGENT": 17,
            "TEXCOORD_0": 18
          },
          "indices": 19,
          "material": 2,
          "mode": 4
        }
      ]
    },
    {
      "primitives": [
        {
          "attributes": {
            "NORMAL": 21,
            "POSITION": 20,
            "TANGENT": 22,
            "TEXCOORD_0": 23
          },
          "indices": 24,
          "material": 4,
          "mode": 4
        }
      ]
    },
    {
      "primitives": [
        {
          "attributes": {
            "NORMAL": 26,
            "POSITION": 25,
            "TANGENT": 27,
            "TEXCOORD_0": 28
          },
          "indices": 29,
          "material": 5,
          "mode": 4
        }
      ]
    }
  ],
  "nodes": [
    {
      "children": [
        1
      ],
      "name": "RootNode (gltf orientation matrix)",
      "rotation": [
        -0.70710678118654746,
        -0,
        -0,
        0.70710678118654757
      ]
    },
    {
      "children": [
        2
      ],
      "name": "RootNode (model correction matrix)"
    },
    {
      "children": [
        3,
        4,
        5,
        6,
        7,
        8
      ],
      "name": "8771ee9cf63740938863ec6a14e8884c.obj.cleaner.materialmerger.gles"
    },
    {
      "mesh": 0,
      "name": ""
    },
    {
      "mesh": 1,
      "name": ""
    },
    {
      "mesh": 2,
      "name": ""
    },
    {
      "mesh": 3,
      "name": ""
    },
    {
      "mesh": 4,
      "name": ""
    },
    {
      "mesh": 5,
      "name": ""
    }
  ],
  "samplers": [
    {
      "magFilter": 9729,
      "minFilter": 9987,
      "wrapS": 10497,
      "wrapT": 10497
    }
  ],
  "scene": 0,
  "scenes": [
    {
      "name": "OSG_Scene",
      "nodes": [
        0
      ]
    }
  ],
  "textures": [
    {
      "sampler": 0,
      "source": 0
    },
    {
      "sampler": 0,
      "source": 1
    },
    {
      "sampler": 0,
      "source": 2
    },
    {
      "sampler": 0,
      "source": 3
    }
  ]
}

