{
    "asset" : {
        "generator" : "Khronos glTF Blender I/O v1.4.40",
        "version" : "2.0"
    },
    "scene" : 0,
    "scenes" : [
        {
            "name" : "Scene",
            "nodes" : [
                7,
                8,
                9
            ]
        }
    ],
    "nodes" : [
        {
            "mesh" : 0,
            "name" : "2-way road_Material.001_0"
        },
        {
            "mesh" : 1,
            "name" : "2-way road_Material.002_0"
        },
        {
            "mesh" : 2,
            "name" : "2-way road_Material.003_0"
        },
        {
            "children" : [
                0,
                1,
                2
            ],
            "name" : "2-way road",
            "rotation" : [
                -0.5,
                0.5,
                0.4999999403953552,
                0.5000000596046448
            ],
            "scale" : [
                100,
                100,
                100
            ],
            "translation" : [
                -90,
                0,
                0
            ]
        },
        {
            "children" : [
                3
            ],
            "name" : "RootNode"
        },
        {
            "children" : [
                4
            ],
            "name" : "0e15d4811c62454f8594ee33606fc66a.fbx",
            "rotation" : [
                0.7071068286895752,
                0,
                0,
                0.7071068286895752
            ]
        },
        {
            "children" : [
                5
            ],
            "name" : "RootNode (model correction matrix)"
        },
        {
            "children" : [
                6
            ],
            "name" : "RootNode (gltf orientation matrix)",
            "rotation" : [
                -0.7071068286895752,
                0,
                0,
                0.7071068286895752
            ]
        },
        {
            "name" : "Light",
            "rotation" : [
                0.16907575726509094,
                0.7558803558349609,
                -0.27217137813568115,
                0.570947527885437
            ],
            "translation" : [
                4.076245307922363,
                5.903861999511719,
                -1.0054539442062378
            ]
        },
        {
            "name" : "Camera",
            "rotation" : [
                0.483536034822464,
                0.33687159419059753,
                -0.20870360732078552,
                0.7804827094078064
            ],
            "translation" : [
                7.358891487121582,
                4.958309173583984,
                6.925790786743164
            ]
        }
    ],
    "materials" : [
        {
            "doubleSided" : true,
            "name" : "Material.001",
            "pbrMetallicRoughness" : {
                "baseColorFactor" : [
                    0.17886200547218323,
                    0.17886200547218323,
                    0.17886200547218323,
                    1
                ],
                "metallicFactor" : 0,
                "roughnessFactor" : 0.6000000238418579
            }
        },
        {
            "doubleSided" : true,
            "name" : "Material.002",
            "pbrMetallicRoughness" : {
                "baseColorFactor" : [
                    0.5488510131835938,
                    0.5488510131835938,
                    0.5488510131835938,
                    1
                ],
                "metallicFactor" : 0,
                "roughnessFactor" : 0.6000000238418579
            }
        },
        {
            "doubleSided" : true,
            "name" : "Material.003",
            "pbrMetallicRoughness" : {
                "baseColorFactor" : [
                    0.546841025352478,
                    0.6623600125312805,
                    0.800000011920929,
                    1
                ],
                "metallicFactor" : 0,
                "roughnessFactor" : 0.6000000238418579
            }
        }
    ],
    "meshes" : [
        {
            "name" : "2-way road_Material.001_0",
            "primitives" : [
                {
                    "attributes" : {
                        "POSITION" : 0,
                        "NORMAL" : 1
                    },
                    "indices" : 2,
                    "material" : 0
                }
            ]
        },
        {
            "name" : "2-way road_Material.002_0",
            "primitives" : [
                {
                    "attributes" : {
                        "POSITION" : 3,
                        "NORMAL" : 4
                    },
                    "indices" : 5,
                    "material" : 1
                }
            ]
        },
        {
            "name" : "2-way road_Material.003_0",
            "primitives" : [
                {
                    "attributes" : {
                        "POSITION" : 6,
                        "NORMAL" : 7
                    },
                    "indices" : 8,
                    "material" : 2
                }
            ]
        }
    ],
    "accessors" : [
        {
            "bufferView" : 0,
            "componentType" : 5126,
            "count" : 24,
            "max" : [
                0.3333333134651184,
                0,
                0.004999999888241291
            ],
            "min" : [
                -0.3333333134651184,
                -1.968663215637207,
                -0.004999999888241291
            ],
            "type" : "VEC3"
        },
        {
            "bufferView" : 1,
            "componentType" : 5126,
            "count" : 24,
            "type" : "VEC3"
        },
        {
            "bufferView" : 2,
            "componentType" : 5123,
            "count" : 36,
            "type" : "SCALAR"
        },
        {
            "bufferView" : 3,
            "componentType" : 5126,
            "count" : 78,
            "max" : [
                0.3333333134651184,
                0,
                0.015562034212052822
            ],
            "min" : [
                -0.3333333134651184,
                -1.968663215637207,
                0.004999999888241291
            ],
            "type" : "VEC3"
        },
        {
            "bufferView" : 4,
            "componentType" : 5126,
            "count" : 78,
            "type" : "VEC3"
        },
        {
            "bufferView" : 5,
            "componentType" : 5123,
            "count" : 108,
            "type" : "SCALAR"
        },
        {
            "bufferView" : 6,
            "componentType" : 5126,
            "count" : 50,
            "max" : [
                0.5066666603088379,
                1.6093254089355469e-06,
                0.015562034212052822
            ],
            "min" : [
                -0.5066666603088379,
                -1.968663215637207,
                0.00556203443557024
            ],
            "type" : "VEC3"
        },
        {
            "bufferView" : 7,
            "componentType" : 5126,
            "count" : 50,
            "type" : "VEC3"
        },
        {
            "bufferView" : 8,
            "componentType" : 5123,
            "count" : 60,
            "type" : "SCALAR"
        }
    ],
    "bufferViews" : [
        {
            "buffer" : 0,
            "byteLength" : 288,
            "byteOffset" : 0
        },
        {
            "buffer" : 0,
            "byteLength" : 288,
            "byteOffset" : 288
        },
        {
            "buffer" : 0,
            "byteLength" : 72,
            "byteOffset" : 576
        },
        {
            "buffer" : 0,
            "byteLength" : 936,
            "byteOffset" : 648
        },
        {
            "buffer" : 0,
            "byteLength" : 936,
            "byteOffset" : 1584
        },
        {
            "buffer" : 0,
            "byteLength" : 216,
            "byteOffset" : 2520
        },
        {
            "buffer" : 0,
            "byteLength" : 600,
            "byteOffset" : 2736
        },
        {
            "buffer" : 0,
            "byteLength" : 600,
            "byteOffset" : 3336
        },
        {
            "buffer" : 0,
            "byteLength" : 120,
            "byteOffset" : 3936
        }
    ],
    "buffers" : [
        {
            "byteLength" : 4056,
            "uri" : "scene.bin"
        }
    ]
}
