{
  "accessors": [
    {
      "bufferView": 2,
      "componentType": 5126,
      "count": 54,
      "max": [
        0.53403729200363159,
        1.3235194683074951,
        4.7129225730895996
      ],
      "min": [
        -0.53403729200363159,
        1.2432037591934204,
        -1.1523902416229248
      ],
      "type": "VEC3"
    },
    {
      "bufferView": 2,
      "byteOffset": 648,
      "componentType": 5126,
      "count": 54,
      "max": [
        4.4014146283188893e-07,
        1,
        1
      ],
      "min": [
        -6.2066646933089942e-08,
        -1,
        -1
      ],
      "type": "VEC3"
    },
    {
      "bufferView": 3,
      "componentType": 5126,
      "count": 54,
      "max": [
        1,
        0.00027504353784024715,
        0.00035057446802966297,
        1
      ],
      "min": [
        -1,
        -0.00034795535611920059,
        -0.00037990088458172977,
        1
      ],
      "type": "VEC4"
    },
    {
      "bufferView": 1,
      "componentType": 5126,
      "count": 54,
      "max": [
        0.38213399052619934,
        0.53941500186920166
      ],
      "min": [
        0.25996899604797363,
        0.404121994972229
      ],
      "type": "VEC2"
    },
    {
      "bufferView": 0,
      "componentType": 5125,
      "count": 144,
      "max": [
        53
      ],
      "min": [
        0
      ],
      "type": "SCALAR"
    },
    {
      "bufferView": 2,
      "byteOffset": 1296,
      "componentType": 5126,
      "count": 302,
      "max": [
        1,
        1.4197186231613159,
        0.99999982118606567
      ],
      "min": [
        -0.99999970197677612,
        1.160679817199707,
        -0.99999946355819702
      ],
      "type": "VEC3"
    },
    {
      "bufferView": 2,
      "byteOffset": 4920,
      "componentType": 5126,
      "count": 302,
      "max": [
        1,
        6.9811587621870785e-09,
        1
      ],
      "min": [
        -0.99999994039535522,
        -1,
        -1
      ],
      "type": "VEC3"
    },
    {
      "bufferView": 3,
      "byteOffset": 864,
      "componentType": 5126,
      "count": 302,
      "max": [
        1,
        1,
        0.16626188158988953,
        1
      ],
      "min": [
        -0.00013988463615532964,
        -0.71140110492706299,
        -0.15336000919342041,
        1
      ],
      "type": "VEC4"
    },
    {
      "bufferView": 1,
      "byteOffset": 432,
      "componentType": 5126,
      "count": 302,
      "max": [
        0.63390398025512695,
        0.99210798740386963
      ],
      "min": [
        0.0076850000768899918,
        0.0068999999202787876
      ],
      "type": "VEC2"
    },
    {
      "bufferView": 0,
      "byteOffset": 576,
      "componentType": 5125,
      "count": 1146,
      "max": [
        301
      ],
      "min": [
        0
      ],
      "type": "SCALAR"
    },
    {
      "bufferView": 2,
      "byteOffset": 8544,
      "componentType": 5126,
      "count": 734,
      "max": [
        0.48773330450057983,
        1.3476321697235107,
        4.7590551376342773
      ],
      "min": [
        -0.49313139915466309,
        1.2226210832595825,
        -7.3000402450561523
      ],
      "type": "VEC3"
    },
    {
      "bufferView": 2,
      "byteOffset": 17352,
      "componentType": 5126,
      "count": 734,
      "max": [
        0.99999964237213135,
        1,
        1
      ],
      "min": [
        -0.99999958276748657,
        -1,
        -1
      ],
      "type": "VEC3"
    },
    {
      "bufferView": 3,
      "byteOffset": 5696,
      "componentType": 5126,
      "count": 734,
      "max": [
        1,
        1,
        0.99999600648880005,
        1
      ],
      "min": [
        -1,
        -1,
        -0.99999666213989258,
        1
      ],
      "type": "VEC4"
    },
    {
      "bufferView": 1,
      "byteOffset": 2848,
      "componentType": 5126,
      "count": 734,
      "max": [
        0.98881798982620239,
        0.99159002304077148
      ],
      "min": [
        0.0098069999366998672,
        0.26170098781585693
      ],
      "type": "VEC2"
    },
    {
      "bufferView": 0,
      "byteOffset": 5160,
      "componentType": 5125,
      "count": 2508,
      "max": [
        733
      ],
      "min": [
        0
      ],
      "type": "SCALAR"
    },
    {
      "bufferView": 2,
      "byteOffset": 26160,
      "componentType": 5126,
      "count": 24,
      "max": [
        0.81256693601608276,
        1.5763336420059204,
        0.81256651878356934
      ],
      "min": [
        -0.81256693601608276,
        1.5763336420059204,
        -0.81256651878356934
      ],
      "type": "VEC3"
    },
    {
      "bufferView": 2,
      "byteOffset": 26448,
      "componentType": 5126,
      "count": 24,
      "max": [
        0,
        1,
        5.1181132221245207e-06
      ],
      "min": [
        0,
        1,
        -3.4355844036326744e-06
      ],
      "type": "VEC3"
    },
    {
      "bufferView": 3,
      "byteOffset": 17440,
      "componentType": 5126,
      "count": 24,
      "max": [
        1,
        1.6129006463749818e-10,
        5.7176755944965407e-05,
        1
      ],
      "min": [
        1,
        -1.4122022995444183e-10,
        -0.00011954043293371797,
        1
      ],
      "type": "VEC4"
    },
    {
      "bufferView": 1,
      "byteOffset": 8720,
      "componentType": 5126,
      "count": 24,
      "max": [
        0.71745598316192627,
        0.2147890031337738
      ],
      "min": [
        0.53305399417877197,
        0.030384000390768051
      ],
      "type": "VEC2"
    },
    {
      "bufferView": 0,
      "byteOffset": 15192,
      "componentType": 5125,
      "count": 66,
      "max": [
        23
      ],
      "min": [
        0
      ],
      "type": "SCALAR"
    },
    {
      "bufferView": 2,
      "byteOffset": 26736,
      "componentType": 5126,
      "count": 272,
      "max": [
        0.53199851512908936,
        1.369599461555481,
        2.0471618175506592
      ],
      "min": [
        -0.53739643096923828,
        1.056333065032959,
        1.6024293899536133
      ],
      "type": "VEC3"
    },
    {
      "bufferView": 2,
      "byteOffset": 30000,
      "componentType": 5126,
      "count": 272,
      "max": [
        0.9952768087387085,
        0.99990618228912354,
        1
      ],
      "min": [
        -0.9952768087387085,
        -0.99990618228912354,
        -1
      ],
      "type": "VEC3"
    },
    {
      "bufferView": 3,
      "byteOffset": 17824,
      "componentType": 5126,
      "count": 272,
      "max": [
        0.99750053882598877,
        0.99999445676803589,
        1,
        1
      ],
      "min": [
        -0.99775457382202148,
        -0.99999511241912842,
        -1,
        1
      ],
      "type": "VEC4"
    },
    {
      "bufferView": 1,
      "byteOffset": 8912,
      "componentType": 5126,
      "count": 272,
      "max": [
        0.80946201086044312,
        0.99140900373458862
      ],
      "min": [
        0.6779789924621582,
        0.40819799900054932
      ],
      "type": "VEC2"
    },
    {
      "bufferView": 0,
      "byteOffset": 15456,
      "componentType": 5125,
      "count": 768,
      "max": [
        271
      ],
      "min": [
        0
      ],
      "type": "SCALAR"
    },
    {
      "bufferView": 2,
      "byteOffset": 33264,
      "componentType": 5126,
      "count": 108,
      "max": [
        0.64783954620361328,
        1.436511754989624,
        0.9117240309715271
      ],
      "min": [
        -0.64783960580825806,
        1.3285729885101318,
        -0.91098880767822266
      ],
      "type": "VEC3"
    },
    {
      "bufferView": 2,
      "byteOffset": 34560,
      "componentType": 5126,
      "count": 108,
      "max": [
        1,
        0,
        1
      ],
      "min": [
        -1,
        -1,
        -1
      ],
      "type": "VEC3"
    },
    {
      "bufferView": 3,
      "byteOffset": 22176,
      "componentType": 5126,
      "count": 108,
      "max": [
        1,
        1.9885728619328802e-08,
        1,
        1
      ],
      "min": [
        -1,
        -6.8844063207507133e-05,
        -1,
        1
      ],
      "type": "VEC4"
    },
    {
      "bufferView": 1,
      "byteOffset": 11088,
      "componentType": 5126,
      "count": 108,
      "max": [
        0.98847699165344238,
        0.56963199377059937
      ],
      "min": [
        0.65159201622009277,
        0.29364898800849915
      ],
      "type": "VEC2"
    },
    {
      "bufferView": 0,
      "byteOffset": 18528,
      "componentType": 5125,
      "count": 276,
      "max": [
        107
      ],
      "min": [
        0
      ],
      "type": "SCALAR"
    },
    {
      "bufferView": 2,
      "byteOffset": 35856,
      "componentType": 5126,
      "count": 140,
      "max": [
        0.10108201950788498,
        1.3569433689117432,
        5.3260746002197266
      ],
      "min": [
        -0.099587880074977875,
        1.1955349445343018,
        4.6043667793273926
      ],
      "type": "VEC3"
    },
    {
      "bufferView": 2,
      "byteOffset": 37536,
      "componentType": 5126,
      "count": 140,
      "max": [
        0.99999678134918213,
        0.99999344348907471,
        0.9999883770942688
      ],
      "min": [
        -0.99999761581420898,
        -0.99973201751708984,
        -0.98125910758972168
      ],
      "type": "VEC3"
    },
    {
      "bufferView": 3,
      "byteOffset": 23904,
      "componentType": 5126,
      "count": 140,
      "max": [
        0.99999761581420898,
        0.032444141805171967,
        0.99999934434890747,
        1
      ],
      "min": [
        -0.99999725818634033,
        -0.047322828322649002,
        -0.99999731779098511,
        1
      ],
      "type": "VEC4"
    },
    {
      "bufferView": 1,
      "byteOffset": 11952,
      "componentType": 5126,
      "count": 140,
      "max": [
        0.98554801940917969,
        0.91697901487350464
      ],
      "min": [
        0.81690502166748047,
        0.66423100233078003
      ],
      "type": "VEC2"
    },
    {
      "bufferView": 0,
      "byteOffset": 19632,
      "componentType": 5125,
      "count": 396,
      "max": [
        139
      ],
      "min": [
        0
      ],
      "type": "SCALAR"
    },
    {
      "bufferView": 2,
      "byteOffset": 39216,
      "componentType": 5126,
      "count": 312,
      "max": [
        0.54905301332473755,
        1.3667840957641602,
        5.561119556427002
      ],
      "min": [
        -0.54905301332473755,
        1.1700999736785889,
        4.5668396949768066
      ],
      "type": "VEC3"
    },
    {
      "bufferView": 2,
      "byteOffset": 42960,
      "componentType": 5126,
      "count": 312,
      "max": [
        1,
        0.99994057416915894,
        0.99918055534362793
      ],
      "min": [
        -1,
        -0.99983078241348267,
        -0.99702572822570801
      ],
      "type": "VEC3"
    },
    {
      "bufferView": 3,
      "byteOffset": 26144,
      "componentType": 5126,
      "count": 312,
      "max": [
        1,
        0.52921944856643677,
        1,
        1
      ],
      "min": [
        -1,
        -0.52879875898361206,
        -1,
        1
      ],
      "type": "VEC4"
    },
    {
      "bufferView": 1,
      "byteOffset": 13072,
      "componentType": 5126,
      "count": 312,
      "max": [
        0.99389702081680298,
        0.99002301692962646
      ],
      "min": [
        0.76410698890686035,
        0.72936999797821045
      ],
      "type": "VEC2"
    },
    {
      "bufferView": 0,
      "byteOffset": 21216,
      "componentType": 5125,
      "count": 870,
      "max": [
        311
      ],
      "min": [
        0
      ],
      "type": "SCALAR"
    },
    {
      "bufferView": 2,
      "byteOffset": 46704,
      "componentType": 5126,
      "count": 168,
      "max": [
        -0.83002060651779175,
        1.4608869552612305,
        0.56658822298049927
      ],
      "min": [
        -1.0435605049133301,
        1.2120270729064941,
        -0.56684356927871704
      ],
      "type": "VEC3"
    },
    {
      "bufferView": 2,
      "byteOffset": 48720,
      "componentType": 5126,
      "count": 168,
      "max": [
        0.9306294322013855,
        1,
        0.9314609169960022
      ],
      "min": [
        -0.93062949180603027,
        -1,
        -0.93146169185638428
      ],
      "type": "VEC3"
    },
    {
      "bufferView": 3,
      "byteOffset": 31136,
      "componentType": 5126,
      "count": 168,
      "max": [
        0.93146073818206787,
        0.0054855411872267723,
        0.93064284324645996,
        1
      ],
      "min": [
        -0.92899799346923828,
        -0.0062105502001941204,
        -0.93064248561859131,
        1
      ],
      "type": "VEC4"
    },
    {
      "bufferView": 1,
      "byteOffset": 15568,
      "componentType": 5126,
      "count": 168,
      "max": [
        0.98865401744842529,
        0.64781397581100464
      ],
      "min": [
        0.76011699438095093,
        0.37995898723602295
      ],
      "type": "VEC2"
    },
    {
      "bufferView": 0,
      "byteOffset": 24696,
      "componentType": 5125,
      "count": 456,
      "max": [
        167
      ],
      "min": [
        0
      ],
      "type": "SCALAR"
    },
    {
      "bufferView": 2,
      "byteOffset": 50736,
      "componentType": 5126,
      "count": 708,
      "max": [
        1,
        1.6560626029968262,
        1.2309310436248779
      ],
      "min": [
        -1,
        1.1676533222198486,
        -1.2309310436248779
      ],
      "type": "VEC3"
    },
    {
      "bufferView": 2,
      "byteOffset": 59232,
      "componentType": 5126,
      "count": 708,
      "max": [
        1,
        1,
        1
      ],
      "min": [
        -1,
        -0.99998694658279419,
        -1
      ],
      "type": "VEC3"
    },
    {
      "bufferView": 3,
      "byteOffset": 33824,
      "componentType": 5126,
      "count": 708,
      "max": [
        1,
        1,
        0.70098882913589478,
        1
      ],
      "min": [
        -0.99996823072433472,
        -0.91294825077056885,
        -0.99998021125793457,
        1
      ],
      "type": "VEC4"
    },
    {
      "bufferView": 1,
      "byteOffset": 16912,
      "componentType": 5126,
      "count": 708,
      "max": [
        0.96968597173690796,
        0.99202197790145874
      ],
      "min": [
        0.24780499935150146,
        0.0076290001161396503
      ],
      "type": "VEC2"
    },
    {
      "bufferView": 0,
      "byteOffset": 26520,
      "componentType": 5125,
      "count": 2466,
      "max": [
        707
      ],
      "min": [
        0
      ],
      "type": "SCALAR"
    }
  ],
  "asset": {
    "extras": {
      "author": "NovanOo (https://sketchfab.com/NovanOo)",
      "license": "CC-BY-4.0 (http://creativecommons.org/licenses/by/4.0/)",
      "source": "https://sketchfab.com/3d-models/watch-18577fafc40242c685f65261b12f654c",
      "title": "Watch"
    },
    "generator": "Sketchfab-8.22.0",
    "version": "2.0"
  },
  "bufferViews": [
    {
      "buffer": 0,
      "byteLength": 36384,
      "byteOffset": 0,
      "name": "floatBufferViews",
      "target": 34963
    },
    {
      "buffer": 0,
      "byteLength": 22576,
      "byteOffset": 36384,
      "byteStride": 8,
      "name": "floatBufferViews",
      "target": 34962
    },
    {
      "buffer": 0,
      "byteLength": 67728,
      "byteOffset": 58960,
      "byteStride": 12,
      "name": "floatBufferViews",
      "target": 34962
    },
    {
      "buffer": 0,
      "byteLength": 45152,
      "byteOffset": 126688,
      "byteStride": 16,
      "name": "floatBufferViews",
      "target": 34962
    }
  ],
  "buffers": [
    {
      "byteLength": 171840,
      "uri": "scene.bin"
    }
  ],
  "images": [
    {
      "uri": "textures/lambert13_baseColor.jpg"
    },
    {
      "uri": "textures/lambert13_metallicRoughness.jpg"
    },
    {
      "uri": "textures/lambert13_normal.jpg"
    }
  ],
  "materials": [
    {
      "alphaMode": "BLEND",
      "doubleSided": true,
      "name": "lambert13",
      "normalTexture": {
        "index": 2,
        "scale": 1,
        "texCoord": 0
      },
      "pbrMetallicRoughness": {
        "baseColorFactor": [
          1,
          1,
          1,
          1
        ],
        "baseColorTexture": {
          "index": 0,
          "texCoord": 0
        },
        "metallicFactor": 1,
        "metallicRoughnessTexture": {
          "index": 1,
          "texCoord": 0
        },
        "roughnessFactor": 1
      }
    }
  ],
  "meshes": [
    {
      "name": "cilindrs_lp_lambert13_0",
      "primitives": [
        {
          "attributes": {
            "NORMAL": 1,
            "POSITION": 0,
            "TANGENT": 2,
            "TEXCOORD_0": 3
          },
          "indices": 4,
          "material": 0,
          "mode": 4
        }
      ]
    },
    {
      "name": "body_lp_lambert13_0",
      "primitives": [
        {
          "attributes": {
            "NORMAL": 6,
            "POSITION": 5,
            "TANGENT": 7,
            "TEXCOORD_0": 8
          },
          "indices": 9,
          "material": 0,
          "mode": 4
        }
      ]
    },
    {
      "name": "belts_lp_lambert13_0",
      "primitives": [
        {
          "attributes": {
            "NORMAL": 11,
            "POSITION": 10,
            "TANGENT": 12,
            "TEXCOORD_0": 13
          },
          "indices": 14,
          "material": 0,
          "mode": 4
        }
      ]
    },
    {
      "name": "timer_lp_lambert13_0",
      "primitives": [
        {
          "attributes": {
            "NORMAL": 16,
            "POSITION": 15,
            "TANGENT": 17,
            "TEXCOORD_0": 18
          },
          "indices": 19,
          "material": 0,
          "mode": 4
        }
      ]
    },
    {
      "name": "mini_belts_lp_lambert13_0",
      "primitives": [
        {
          "attributes": {
            "NORMAL": 21,
            "POSITION": 20,
            "TANGENT": 22,
            "TEXCOORD_0": 23
          },
          "indices": 24,
          "material": 0,
          "mode": 4
        }
      ]
    },
    {
      "name": "mini_body_lp_lambert13_0",
      "primitives": [
        {
          "attributes": {
            "NORMAL": 26,
            "POSITION": 25,
            "TANGENT": 27,
            "TEXCOORD_0": 28
          },
          "indices": 29,
          "material": 0,
          "mode": 4
        }
      ]
    },
    {
      "name": "mini_metall_lp_lambert13_0",
      "primitives": [
        {
          "attributes": {
            "NORMAL": 31,
            "POSITION": 30,
            "TANGENT": 32,
            "TEXCOORD_0": 33
          },
          "indices": 34,
          "material": 0,
          "mode": 4
        }
      ]
    },
    {
      "name": "locked_lp_lambert13_0",
      "primitives": [
        {
          "attributes": {
            "NORMAL": 36,
            "POSITION": 35,
            "TANGENT": 37,
            "TEXCOORD_0": 38
          },
          "indices": 39,
          "material": 0,
          "mode": 4
        }
      ]
    },
    {
      "name": "bottoms_lp_lambert13_0",
      "primitives": [
        {
          "attributes": {
            "NORMAL": 41,
            "POSITION": 40,
            "TANGENT": 42,
            "TEXCOORD_0": 43
          },
          "indices": 44,
          "material": 0,
          "mode": 4
        }
      ]
    },
    {
      "name": "top_lp1_lambert13_0",
      "primitives": [
        {
          "attributes": {
            "NORMAL": 46,
            "POSITION": 45,
            "TANGENT": 47,
            "TEXCOORD_0": 48
          },
          "indices": 49,
          "material": 0,
          "mode": 4
        }
      ]
    }
  ],
  "nodes": [
    {
      "children": [
        1
      ],
      "name": "RootNode (gltf orientation matrix)",
      "rotation": [
        -0.70710678118654746,
        -0,
        -0,
        0.70710678118654757
      ]
    },
    {
      "children": [
        2
      ],
      "name": "RootNode (model correction matrix)"
    },
    {
      "children": [
        3
      ],
      "matrix": [
        1,
        0,
        0,
        0,
        0,
        0,
        1,
        0,
        0,
        -1,
        0,
        0,
        0,
        0,
        0,
        1
      ],
      "name": "06db853599a34543be75b0e84f7f3c21.fbx"
    },
    {
      "children": [
        4
      ],
      "name": "RootNode"
    },
    {
      "children": [
        5,
        7,
        9,
        11,
        13,
        15,
        17,
        19,
        21,
        23
      ],
      "name": "group1"
    },
    {
      "children": [
        6
      ],
      "name": "cilindrs_lp"
    },
    {
      "mesh": 0,
      "name": "cilindrs_lp_lambert13_0"
    },
    {
      "children": [
        8
      ],
      "name": "body_lp"
    },
    {
      "mesh": 1,
      "name": "body_lp_lambert13_0"
    },
    {
      "children": [
        10
      ],
      "name": "belts_lp"
    },
    {
      "mesh": 2,
      "name": "belts_lp_lambert13_0"
    },
    {
      "children": [
        12
      ],
      "name": "timer_lp"
    },
    {
      "mesh": 3,
      "name": "timer_lp_lambert13_0"
    },
    {
      "children": [
        14
      ],
      "name": "mini_belts_lp"
    },
    {
      "mesh": 4,
      "name": "mini_belts_lp_lambert13_0"
    },
    {
      "children": [
        16
      ],
      "name": "mini_body_lp"
    },
    {
      "mesh": 5,
      "name": "mini_body_lp_lambert13_0"
    },
    {
      "children": [
        18
      ],
      "name": "mini_metall_lp"
    },
    {
      "mesh": 6,
      "name": "mini_metall_lp_lambert13_0"
    },
    {
      "children": [
        20
      ],
      "name": "locked_lp"
    },
    {
      "mesh": 7,
      "name": "locked_lp_lambert13_0"
    },
    {
      "children": [
        22
      ],
      "name": "bottoms_lp"
    },
    {
      "mesh": 8,
      "name": "bottoms_lp_lambert13_0"
    },
    {
      "children": [
        24
      ],
      "name": "top_lp1"
    },
    {
      "mesh": 9,
      "name": "top_lp1_lambert13_0"
    }
  ],
  "samplers": [
    {
      "magFilter": 9729,
      "minFilter": 9987,
      "wrapS": 10497,
      "wrapT": 10497
    }
  ],
  "scene": 0,
  "scenes": [
    {
      "name": "OSG_Scene",
      "nodes": [
        0
      ]
    }
  ],
  "textures": [
    {
      "sampler": 0,
      "source": 0
    },
    {
      "sampler": 0,
      "source": 1
    },
    {
      "sampler": 0,
      "source": 2
    }
  ]
}

