{
    "asset" : {
        "generator" : "Khronos glTF Blender I/O v1.4.40",
        "version" : "2.0"
    },
    "scene" : 0,
    "scenes" : [
        {
            "name" : "Scene",
            "nodes" : [
                7,
                8,
                9
            ]
        }
    ],
    "nodes" : [
        {
            "mesh" : 0,
            "name" : "4-way road_Material.001_0"
        },
        {
            "mesh" : 1,
            "name" : "4-way road_Material.002_0"
        },
        {
            "mesh" : 2,
            "name" : "4-way road_Material.003_0"
        },
        {
            "children" : [
                0,
                1,
                2
            ],
            "name" : "4-way road",
            "rotation" : [
                0,
                0.7071068286895752,
                0.7071068286895752,
                -1.3767879636361613e-07
            ],
            "scale" : [
                100,
                100,
                100
            ],
            "translation" : [
                0,
                0,
                100
            ]
        },
        {
            "children" : [
                3
            ],
            "name" : "RootNode"
        },
        {
            "children" : [
                4
            ],
            "name" : "0e15d4811c62454f8594ee33606fc66a.fbx",
            "rotation" : [
                0.7071068286895752,
                0,
                0,
                0.7071068286895752
            ]
        },
        {
            "children" : [
                5
            ],
            "name" : "RootNode (model correction matrix)"
        },
        {
            "children" : [
                6
            ],
            "name" : "RootNode (gltf orientation matrix)",
            "rotation" : [
                -0.7071068286895752,
                0,
                0,
                0.7071068286895752
            ]
        },
        {
            "name" : "Light",
            "rotation" : [
                0.16907575726509094,
                0.7558803558349609,
                -0.27217137813568115,
                0.570947527885437
            ],
            "translation" : [
                4.076245307922363,
                5.903861999511719,
                -1.0054539442062378
            ]
        },
        {
            "name" : "Camera",
            "rotation" : [
                0.483536034822464,
                0.33687159419059753,
                -0.20870360732078552,
                0.7804827094078064
            ],
            "translation" : [
                7.358891487121582,
                4.958309173583984,
                6.925790786743164
            ]
        }
    ],
    "materials" : [
        {
            "doubleSided" : true,
            "name" : "Material.001",
            "pbrMetallicRoughness" : {
                "baseColorFactor" : [
                    0.17886200547218323,
                    0.17886200547218323,
                    0.17886200547218323,
                    1
                ],
                "metallicFactor" : 0,
                "roughnessFactor" : 0.6000000238418579
            }
        },
        {
            "doubleSided" : true,
            "name" : "Material.002",
            "pbrMetallicRoughness" : {
                "baseColorFactor" : [
                    0.5488510131835938,
                    0.5488510131835938,
                    0.5488510131835938,
                    1
                ],
                "metallicFactor" : 0,
                "roughnessFactor" : 0.6000000238418579
            }
        },
        {
            "doubleSided" : true,
            "name" : "Material.003",
            "pbrMetallicRoughness" : {
                "baseColorFactor" : [
                    0.546841025352478,
                    0.6623600125312805,
                    0.800000011920929,
                    1
                ],
                "metallicFactor" : 0,
                "roughnessFactor" : 0.6000000238418579
            }
        }
    ],
    "meshes" : [
        {
            "name" : "4-way road_Material.001_0",
            "primitives" : [
                {
                    "attributes" : {
                        "POSITION" : 0,
                        "NORMAL" : 1
                    },
                    "indices" : 2,
                    "material" : 0
                }
            ]
        },
        {
            "name" : "4-way road_Material.002_0",
            "primitives" : [
                {
                    "attributes" : {
                        "POSITION" : 3,
                        "NORMAL" : 4
                    },
                    "indices" : 5,
                    "material" : 1
                }
            ]
        },
        {
            "name" : "4-way road_Material.003_0",
            "primitives" : [
                {
                    "attributes" : {
                        "POSITION" : 6,
                        "NORMAL" : 7
                    },
                    "indices" : 8,
                    "material" : 2
                }
            ]
        }
    ],
    "accessors" : [
        {
            "bufferView" : 0,
            "componentType" : 5126,
            "count" : 86,
            "max" : [
                0.9843316078186035,
                0,
                0.005000000353902578
            ],
            "min" : [
                -0.9843316078186035,
                -1.968663215637207,
                -0.004999999422580004
            ],
            "type" : "VEC3"
        },
        {
            "bufferView" : 1,
            "componentType" : 5126,
            "count" : 86,
            "type" : "VEC3"
        },
        {
            "bufferView" : 2,
            "componentType" : 5123,
            "count" : 132,
            "type" : "SCALAR"
        },
        {
            "bufferView" : 3,
            "componentType" : 5126,
            "count" : 308,
            "max" : [
                0.9843316078186035,
                0,
                0.015562035143375397
            ],
            "min" : [
                -0.9843316078186035,
                -1.968663215637207,
                0.005000000353902578
            ],
            "type" : "VEC3"
        },
        {
            "bufferView" : 4,
            "componentType" : 5126,
            "count" : 308,
            "type" : "VEC3"
        },
        {
            "bufferView" : 5,
            "componentType" : 5123,
            "count" : 336,
            "type" : "SCALAR"
        },
        {
            "bufferView" : 6,
            "componentType" : 5126,
            "count" : 142,
            "max" : [
                0.9843316078186035,
                0,
                0.015562035143375397
            ],
            "min" : [
                -0.9843318462371826,
                -1.968663215637207,
                0.005562034901231527
            ],
            "type" : "VEC3"
        },
        {
            "bufferView" : 7,
            "componentType" : 5126,
            "count" : 142,
            "type" : "VEC3"
        },
        {
            "bufferView" : 8,
            "componentType" : 5123,
            "count" : 192,
            "type" : "SCALAR"
        }
    ],
    "bufferViews" : [
        {
            "buffer" : 0,
            "byteLength" : 1032,
            "byteOffset" : 0
        },
        {
            "buffer" : 0,
            "byteLength" : 1032,
            "byteOffset" : 1032
        },
        {
            "buffer" : 0,
            "byteLength" : 264,
            "byteOffset" : 2064
        },
        {
            "buffer" : 0,
            "byteLength" : 3696,
            "byteOffset" : 2328
        },
        {
            "buffer" : 0,
            "byteLength" : 3696,
            "byteOffset" : 6024
        },
        {
            "buffer" : 0,
            "byteLength" : 672,
            "byteOffset" : 9720
        },
        {
            "buffer" : 0,
            "byteLength" : 1704,
            "byteOffset" : 10392
        },
        {
            "buffer" : 0,
            "byteLength" : 1704,
            "byteOffset" : 12096
        },
        {
            "buffer" : 0,
            "byteLength" : 384,
            "byteOffset" : 13800
        }
    ],
    "buffers" : [
        {
            "byteLength" : 14184,
            "uri" : "scene.bin"
        }
    ]
}
