{
  "accessors": [
    {
      "bufferView": 2,
      "componentType": 5126,
      "count": 300,
      "max": [
        0.062527351081371307,
        0.12646448612213135,
        0.065126702189445496
      ],
      "min": [
        -0.062527351081371307,
        -0.000927753746509552,
        -0.065745152533054352
      ],
      "type": "VEC3"
    },
    {
      "bufferView": 2,
      "byteOffset": 3600,
      "componentType": 5126,
      "count": 300,
      "max": [
        0.9445534348487854,
        1,
        0.99315935373306274
      ],
      "min": [
        -0.9445534348487854,
        -1,
        -0.99303692579269409
      ],
      "type": "VEC3"
    },
    {
      "bufferView": 1,
      "componentType": 5126,
      "count": 300,
      "max": [
        0.99700635671615601,
        0.94621634483337402
      ],
      "min": [
        0.0029935752972960472,
        0.0029935752972960472
      ],
      "type": "VEC2"
    },
    {
      "bufferView": 0,
      "componentType": 5125,
      "count": 1260,
      "max": [
        299
      ],
      "min": [
        0
      ],
      "type": "SCALAR"
    },
    {
      "bufferView": 2,
      "byteOffset": 7200,
      "componentType": 5126,
      "count": 1218,
      "max": [
        0.14705140888690948,
        0.40044590830802917,
        0.17418523132801056
      ],
      "min": [
        -0.12943613529205322,
        0.087017923593521118,
        -0.11713224649429321
      ],
      "type": "VEC3"
    },
    {
      "bufferView": 2,
      "byteOffset": 21816,
      "componentType": 5126,
      "count": 1218,
      "max": [
        0.99998891353607178,
        0.9912412166595459,
        0.99846422672271729
      ],
      "min": [
        -0.99961972236633301,
        -0.99532055854797363,
        -0.98986047506332397
      ],
      "type": "VEC3"
    },
    {
      "bufferView": 1,
      "byteOffset": 2400,
      "componentType": 5126,
      "count": 1218,
      "max": [
        0.94719439744949341,
        0.99186593294143677
      ],
      "min": [
        0.0029935752972960472,
        0.0029935752972960472
      ],
      "type": "VEC2"
    },
    {
      "bufferView": 0,
      "byteOffset": 5040,
      "componentType": 5125,
      "count": 5940,
      "max": [
        1217
      ],
      "min": [
        0
      ],
      "type": "SCALAR"
    }
  ],
  "asset": {
    "extras": {
      "author": "Valo Niskanen (https://sketchfab.com/Valo.Niskanen)",
      "license": "CC-BY-NC-4.0 (http://creativecommons.org/licenses/by-nc/4.0/)",
      "source": "https://sketchfab.com/3d-models/potted-plant-1-824d1e60a96040439469d7e969965891",
      "title": "Potted Plant 1"
    },
    "generator": "Sketchfab-9.52.0",
    "version": "2.0"
  },
  "bufferViews": [
    {
      "buffer": 0,
      "byteLength": 28800,
      "byteOffset": 0,
      "name": "floatBufferViews",
      "target": 34963
    },
    {
      "buffer": 0,
      "byteLength": 12144,
      "byteOffset": 28800,
      "byteStride": 8,
      "name": "floatBufferViews",
      "target": 34962
    },
    {
      "buffer": 0,
      "byteLength": 36432,
      "byteOffset": 40944,
      "byteStride": 12,
      "name": "floatBufferViews",
      "target": 34962
    }
  ],
  "buffers": [
    {
      "byteLength": 77376,
      "uri": "scene.bin"
    }
  ],
  "images": [
    {
      "uri": "textures/material_baseColor.jpg"
    },
    {
      "uri": "textures/Leaves_baseColor.jpg"
    }
  ],
  "materials": [
    {
      "doubleSided": true,
      "name": "material",
      "pbrMetallicRoughness": {
        "baseColorFactor": [
          0.91876709430589421,
          0.91876709430589421,
          0.91876709430589421,
          1
        ],
        "baseColorTexture": {
          "index": 0,
          "texCoord": 0
        },
        "metallicFactor": 0,
        "roughnessFactor": 1
      }
    },
    {
      "doubleSided": true,
      "emissiveFactor": [
        0,
        0,
        0
      ],
      "name": "Leaves",
      "pbrMetallicRoughness": {
        "baseColorFactor": [
          0.70522205828587115,
          0.70522205828587115,
          0.70522205828587115,
          1
        ],
        "baseColorTexture": {
          "index": 1,
          "texCoord": 0
        },
        "metallicFactor": 0.095990631993452716,
        "roughnessFactor": 1
      }
    }
  ],
  "meshes": [
    {
      "primitives": [
        {
          "attributes": {
            "NORMAL": 1,
            "POSITION": 0,
            "TEXCOORD_0": 2
          },
          "indices": 3,
          "material": 0,
          "mode": 4
        }
      ]
    },
    {
      "primitives": [
        {
          "attributes": {
            "NORMAL": 5,
            "POSITION": 4,
            "TEXCOORD_0": 6
          },
          "indices": 7,
          "material": 1,
          "mode": 4
        }
      ]
    }
  ],
  "nodes": [
    {
      "children": [
        1
      ],
      "name": "RootNode (gltf orientation matrix)",
      "rotation": [
        -0.70710678118654746,
        -0,
        -0,
        0.70710678118654757
      ]
    },
    {
      "children": [
        2
      ],
      "name": "RootNode (model correction matrix)"
    },
    {
      "children": [
        3
      ],
      "name": "root"
    },
    {
      "children": [
        4
      ],
      "matrix": [
        1,
        0,
        0,
        0,
        0,
        2.2204460492503131e-16,
        1,
        0,
        0,
        -1,
        2.2204460492503131e-16,
        0,
        0,
        0,
        0,
        1
      ],
      "name": "GLTF_SceneRootNode"
    },
    {
      "children": [
        5,
        6
      ],
      "name": "Cylinder_0"
    },
    {
      "mesh": 0,
      "name": ""
    },
    {
      "mesh": 1,
      "name": ""
    }
  ],
  "samplers": [
    {
      "magFilter": 9729,
      "minFilter": 9987,
      "wrapS": 10497,
      "wrapT": 10497
    }
  ],
  "scene": 0,
  "scenes": [
    {
      "name": "OSG_Scene",
      "nodes": [
        0
      ]
    }
  ],
  "textures": [
    {
      "sampler": 0,
      "source": 0
    },
    {
      "sampler": 0,
      "source": 1
    }
  ]
}

