{
  "accessors": [
    {
      "bufferView": 2,
      "componentType": 5126,
      "count": 2986,
      "max": [
        3.6977810859680176,
        16.680742263793945,
        14.22301197052002
      ],
      "min": [
        -3.6977810859680176,
        -13.009381294250488,
        -0.085715003311634064
      ],
      "type": "VEC3"
    },
    {
      "bufferView": 2,
      "byteOffset": 35832,
      "componentType": 5126,
      "count": 2986,
      "max": [
        0.99998348951339722,
        0.99999964237213135,
        0.99999785423278809
      ],
      "min": [
        -0.99998348951339722,
        -0.99994510412216187,
        -1
      ],
      "type": "VEC3"
    },
    {
      "bufferView": 3,
      "componentType": 5126,
      "count": 2986,
      "max": [
        0.99997073411941528,
        0.99612778425216675,
        0.99985736608505249,
        1
      ],
      "min": [
        -1,
        -0.99550545215606689,
        -0.99998104572296143,
        -1
      ],
      "type": "VEC4"
    },
    {
      "bufferView": 1,
      "componentType": 5126,
      "count": 2986,
      "max": [
        0.99547797441482544,
        0.9834129810333252
      ],
      "min": [
        0.0052169999107718468,
        0.025573000311851501
      ],
      "type": "VEC2"
    },
    {
      "bufferView": 0,
      "componentType": 5125,
      "count": 14694,
      "max": [
        2985
      ],
      "min": [
        0
      ],
      "type": "SCALAR"
    }
  ],
  "asset": {
    "extras": {
      "author": "Josué Boisvert (https://sketchfab.com/JosueBoisvert)",
      "license": "CC-BY-4.0 (http://creativecommons.org/licenses/by/4.0/)",
      "source": "https://sketchfab.com/3d-models/cow-99d333e3b4e4470a8d7d38436489c001",
      "title": "Cow"
    },
    "generator": "Sketchfab-9.86.0",
    "version": "2.0"
  },
  "bufferViews": [
    {
      "buffer": 0,
      "byteLength": 58776,
      "byteOffset": 0,
      "name": "floatBufferViews",
      "target": 34963
    },
    {
      "buffer": 0,
      "byteLength": 23888,
      "byteOffset": 58776,
      "byteStride": 8,
      "name": "floatBufferViews",
      "target": 34962
    },
    {
      "buffer": 0,
      "byteLength": 71664,
      "byteOffset": 82664,
      "byteStride": 12,
      "name": "floatBufferViews",
      "target": 34962
    },
    {
      "buffer": 0,
      "byteLength": 47776,
      "byteOffset": 154328,
      "byteStride": 16,
      "name": "floatBufferViews",
      "target": 34962
    }
  ],
  "buffers": [
    {
      "byteLength": 202104,
      "uri": "scene.bin"
    }
  ],
  "images": [
    {
      "uri": "textures/tornado_cow_material_baseColor.jpg"
    },
    {
      "uri": "textures/tornado_cow_material_metallicRoughness.jpg"
    },
    {
      "uri": "textures/tornado_cow_material_normal.jpg"
    }
  ],
  "materials": [
    {
      "doubleSided": false,
      "name": "tornado_cow_material",
      "normalTexture": {
        "index": 2,
        "scale": 0.69964555859894217,
        "texCoord": 0
      },
      "pbrMetallicRoughness": {
        "baseColorFactor": [
          1,
          1,
          1,
          1
        ],
        "baseColorTexture": {
          "index": 0,
          "texCoord": 0
        },
        "metallicFactor": 1,
        "metallicRoughnessTexture": {
          "index": 1,
          "texCoord": 0
        },
        "roughnessFactor": 1
      }
    }
  ],
  "meshes": [
    {
      "primitives": [
        {
          "attributes": {
            "NORMAL": 1,
            "POSITION": 0,
            "TANGENT": 2,
            "TEXCOORD_0": 3
          },
          "indices": 4,
          "material": 0,
          "mode": 4
        }
      ]
    }
  ],
  "nodes": [
    {
      "children": [
        1
      ],
      "name": "RootNode (gltf orientation matrix)",
      "rotation": [
        -0.70710678118654746,
        -0,
        -0,
        0.70710678118654757
      ]
    },
    {
      "children": [
        2
      ],
      "name": "RootNode (model correction matrix)"
    },
    {
      "children": [
        3
      ],
      "name": "cow.obj.cleaner"
    },
    {
      "mesh": 0,
      "name": ""
    }
  ],
  "samplers": [
    {
      "magFilter": 9729,
      "minFilter": 9987,
      "wrapS": 10497,
      "wrapT": 10497
    }
  ],
  "scene": 0,
  "scenes": [
    {
      "name": "OSG_Scene",
      "nodes": [
        0
      ]
    }
  ],
  "textures": [
    {
      "sampler": 0,
      "source": 0
    },
    {
      "sampler": 0,
      "source": 1
    },
    {
      "sampler": 0,
      "source": 2
    }
  ]
}

