{
    "asset" : {
        "generator" : "Khronos glTF Blender I/O v1.4.40",
        "version" : "2.0"
    },
    "scene" : 0,
    "scenes" : [
        {
            "name" : "Scene",
            "nodes" : [
                7,
                8,
                9
            ]
        }
    ],
    "nodes" : [
        {
            "mesh" : 0,
            "name" : "Curve road_Material.001_0"
        },
        {
            "mesh" : 1,
            "name" : "Curve road_Material.002_0"
        },
        {
            "mesh" : 2,
            "name" : "Curve road_Material.003_0"
        },
        {
            "children" : [
                0,
                1,
                2
            ],
            "name" : "Curve road",
            "rotation" : [
                -0.5,
                0.5,
                0.4999999403953552,
                0.5000000596046448
            ],
            "scale" : [
                100,
                100,
                100
            ],
            "translation" : [
                -30,
                0,
                -70
            ]
        },
        {
            "children" : [
                3
            ],
            "name" : "RootNode"
        },
        {
            "children" : [
                4
            ],
            "name" : "0e15d4811c62454f8594ee33606fc66a.fbx",
            "rotation" : [
                0.7071068286895752,
                0,
                0,
                0.7071068286895752
            ]
        },
        {
            "children" : [
                5
            ],
            "name" : "RootNode (model correction matrix)"
        },
        {
            "children" : [
                6
            ],
            "name" : "RootNode (gltf orientation matrix)",
            "rotation" : [
                -0.7071068286895752,
                0,
                0,
                0.7071068286895752
            ]
        },
        {
            "name" : "Light",
            "rotation" : [
                0.16907575726509094,
                0.7558803558349609,
                -0.27217137813568115,
                0.570947527885437
            ],
            "translation" : [
                4.076245307922363,
                5.903861999511719,
                -1.0054539442062378
            ]
        },
        {
            "name" : "Camera",
            "rotation" : [
                0.483536034822464,
                0.33687159419059753,
                -0.20870360732078552,
                0.7804827094078064
            ],
            "translation" : [
                7.358891487121582,
                4.958309173583984,
                6.925790786743164
            ]
        }
    ],
    "materials" : [
        {
            "doubleSided" : true,
            "name" : "Material.001",
            "pbrMetallicRoughness" : {
                "baseColorFactor" : [
                    0.17886200547218323,
                    0.17886200547218323,
                    0.17886200547218323,
                    1
                ],
                "metallicFactor" : 0,
                "roughnessFactor" : 0.6000000238418579
            }
        },
        {
            "doubleSided" : true,
            "name" : "Material.002",
            "pbrMetallicRoughness" : {
                "baseColorFactor" : [
                    0.5488510131835938,
                    0.5488510131835938,
                    0.5488510131835938,
                    1
                ],
                "metallicFactor" : 0,
                "roughnessFactor" : 0.6000000238418579
            }
        },
        {
            "doubleSided" : true,
            "name" : "Material.003",
            "pbrMetallicRoughness" : {
                "baseColorFactor" : [
                    0.546841025352478,
                    0.6623600125312805,
                    0.800000011920929,
                    1
                ],
                "metallicFactor" : 0,
                "roughnessFactor" : 0.6000000238418579
            }
        }
    ],
    "meshes" : [
        {
            "name" : "Curve road_Material.001_0",
            "primitives" : [
                {
                    "attributes" : {
                        "POSITION" : 0,
                        "NORMAL" : 1
                    },
                    "indices" : 2,
                    "material" : 0
                }
            ]
        },
        {
            "name" : "Curve road_Material.002_0",
            "primitives" : [
                {
                    "attributes" : {
                        "POSITION" : 3,
                        "NORMAL" : 4
                    },
                    "indices" : 5,
                    "material" : 1
                }
            ]
        },
        {
            "name" : "Curve road_Material.003_0",
            "primitives" : [
                {
                    "attributes" : {
                        "POSITION" : 6,
                        "NORMAL" : 7
                    },
                    "indices" : 8,
                    "material" : 2
                }
            ]
        }
    ],
    "accessors" : [
        {
            "bufferView" : 0,
            "componentType" : 5126,
            "count" : 228,
            "max" : [
                2.2415722611413003e-08,
                0.333333283662796,
                0.005000030621886253
            ],
            "min" : [
                -1.3256847858428955,
                -0.9843314290046692,
                -0.005000021308660507
            ],
            "type" : "VEC3"
        },
        {
            "bufferView" : 1,
            "componentType" : 5126,
            "count" : 228,
            "type" : "VEC3"
        },
        {
            "bufferView" : 2,
            "componentType" : 5123,
            "count" : 228,
            "type" : "SCALAR"
        },
        {
            "bufferView" : 3,
            "componentType" : 5126,
            "count" : 639,
            "max" : [
                0.00031079177279025316,
                0.3322770893573761,
                0.015590637922286987
            ],
            "min" : [
                -1.314681053161621,
                -0.9843314290046692,
                0.00438911747187376
            ],
            "type" : "VEC3"
        },
        {
            "bufferView" : 4,
            "componentType" : 5126,
            "count" : 639,
            "type" : "VEC3"
        },
        {
            "bufferView" : 5,
            "componentType" : 5123,
            "count" : 648,
            "type" : "SCALAR"
        },
        {
            "bufferView" : 6,
            "componentType" : 5126,
            "count" : 344,
            "max" : [
                7.808208465576172e-05,
                0.5066666603088379,
                0.015590637922286987
            ],
            "min" : [
                -1.494200348854065,
                -0.984331488609314,
                0.00503236148506403
            ],
            "type" : "VEC3"
        },
        {
            "bufferView" : 7,
            "componentType" : 5126,
            "count" : 344,
            "type" : "VEC3"
        },
        {
            "bufferView" : 8,
            "componentType" : 5123,
            "count" : 360,
            "type" : "SCALAR"
        }
    ],
    "bufferViews" : [
        {
            "buffer" : 0,
            "byteLength" : 2736,
            "byteOffset" : 0
        },
        {
            "buffer" : 0,
            "byteLength" : 2736,
            "byteOffset" : 2736
        },
        {
            "buffer" : 0,
            "byteLength" : 456,
            "byteOffset" : 5472
        },
        {
            "buffer" : 0,
            "byteLength" : 7668,
            "byteOffset" : 5928
        },
        {
            "buffer" : 0,
            "byteLength" : 7668,
            "byteOffset" : 13596
        },
        {
            "buffer" : 0,
            "byteLength" : 1296,
            "byteOffset" : 21264
        },
        {
            "buffer" : 0,
            "byteLength" : 4128,
            "byteOffset" : 22560
        },
        {
            "buffer" : 0,
            "byteLength" : 4128,
            "byteOffset" : 26688
        },
        {
            "buffer" : 0,
            "byteLength" : 720,
            "byteOffset" : 30816
        }
    ],
    "buffers" : [
        {
            "byteLength" : 31536,
            "uri" : "scene.bin"
        }
    ]
}
