{
  "accessors": [
    {
      "bufferView": 2,
      "componentType": 5126,
      "count": 160,
      "max": [
        124.70005798339844,
        121.92565155029297,
        99.53515625
      ],
      "min": [
        -123.28334808349609,
        -126.05775451660156,
        87.317619323730469
      ],
      "type": "VEC3"
    },
    {
      "bufferView": 2,
      "byteOffset": 1920,
      "componentType": 5126,
      "count": 160,
      "max": [
        1,
        1,
        1
      ],
      "min": [
        -1,
        -1,
        -0.0047898893244564533
      ],
      "type": "VEC3"
    },
    {
      "bufferView": 1,
      "componentType": 5126,
      "count": 160,
      "max": [
        0.85331737995147705,
        0.93388074636459351
      ],
      "min": [
        0.45913699269294739,
        0.54118043184280396
      ],
      "type": "VEC2"
    },
    {
      "bufferView": 0,
      "componentType": 5125,
      "count": 474,
      "max": [
        159
      ],
      "min": [
        0
      ],
      "type": "SCALAR"
    },
    {
      "bufferView": 2,
      "byteOffset": 3840,
      "componentType": 5126,
      "count": 20,
      "max": [
        19.130334854125977,
        41.498764038085938,
        89.446815490722656
      ],
      "min": [
        -60.204017639160156,
        -19.130334854125977,
        87.446815490722656
      ],
      "type": "VEC3"
    },
    {
      "bufferView": 2,
      "byteOffset": 4080,
      "componentType": 5126,
      "count": 20,
      "max": [
        0.80803269147872925,
        0.81814932823181152,
        1
      ],
      "min": [
        -0.8080328106880188,
        -0.79953467845916748,
        0
      ],
      "type": "VEC3"
    },
    {
      "bufferView": 1,
      "byteOffset": 1280,
      "componentType": 5126,
      "count": 20,
      "max": [
        0.69440615177154541,
        0.2217557430267334
      ],
      "min": [
        0.54123574495315552,
        0.20063124597072601
      ],
      "type": "VEC2"
    },
    {
      "bufferView": 0,
      "byteOffset": 1896,
      "componentType": 5125,
      "count": 30,
      "max": [
        19
      ],
      "min": [
        0
      ],
      "type": "SCALAR"
    },
    {
      "bufferView": 2,
      "byteOffset": 4320,
      "componentType": 5126,
      "count": 20,
      "max": [
        89.569725036621094,
        44.955642700195312,
        91.492408752441406
      ],
      "min": [
        -21.944513320922852,
        -17.971292495727539,
        89.492401123046875
      ],
      "type": "VEC3"
    },
    {
      "bufferView": 2,
      "byteOffset": 4560,
      "componentType": 5126,
      "count": 20,
      "max": [
        0.82421350479125977,
        0.88740992546081543,
        1
      ],
      "min": [
        -0.87722581624984741,
        -0.87582939863204956,
        0
      ],
      "type": "VEC3"
    },
    {
      "bufferView": 1,
      "byteOffset": 1440,
      "componentType": 5126,
      "count": 20,
      "max": [
        0.55908000469207764,
        0.20031383633613586
      ],
      "min": [
        0.54123574495315552,
        0.00015871312643866986
      ],
      "type": "VEC2"
    },
    {
      "bufferView": 0,
      "byteOffset": 2016,
      "componentType": 5125,
      "count": 30,
      "max": [
        19
      ],
      "min": [
        0
      ],
      "type": "SCALAR"
    },
    {
      "bufferView": 2,
      "byteOffset": 4800,
      "componentType": 5126,
      "count": 123,
      "max": [
        90.651626586914062,
        -0.68011510372161865,
        93.632255554199219
      ],
      "min": [
        -39.191204071044922,
        -7.2473869323730469,
        91.618522644042969
      ],
      "type": "VEC3"
    },
    {
      "bufferView": 2,
      "byteOffset": 6276,
      "componentType": 5126,
      "count": 123,
      "max": [
        1,
        1,
        1
      ],
      "min": [
        -1,
        -1,
        -1.9177892340849212e-07
      ],
      "type": "VEC3"
    },
    {
      "bufferView": 1,
      "byteOffset": 1600,
      "componentType": 5126,
      "count": 123,
      "max": [
        0.55586999654769897,
        0.4371856153011322
      ],
      "min": [
        0.54123574495315552,
        0.22207316756248474
      ],
      "type": "VEC2"
    },
    {
      "bufferView": 0,
      "byteOffset": 2136,
      "componentType": 5125,
      "count": 330,
      "max": [
        122
      ],
      "min": [
        0
      ],
      "type": "SCALAR"
    },
    {
      "bufferView": 2,
      "byteOffset": 7752,
      "componentType": 5126,
      "count": 449,
      "max": [
        158.87579345703125,
        156.10139465332031,
        98.7342529296875
      ],
      "min": [
        -157.45907592773438,
        -160.23347473144531,
        73.734245300292969
      ],
      "type": "VEC3"
    },
    {
      "bufferView": 2,
      "byteOffset": 13140,
      "componentType": 5126,
      "count": 449,
      "max": [
        1,
        1,
        1
      ],
      "min": [
        -1,
        -1,
        -1
      ],
      "type": "VEC3"
    },
    {
      "bufferView": 3,
      "componentType": 5126,
      "count": 449,
      "max": [
        0.81820935010910034,
        0.96217989921569824,
        0.9995688796043396,
        1
      ],
      "min": [
        -0.33950692415237427,
        -0.090845845639705658,
        -0.9999091625213623,
        1
      ],
      "type": "VEC4"
    },
    {
      "bufferView": 3,
      "byteOffset": 7184,
      "componentType": 5126,
      "count": 449,
      "max": [
        1,
        0.25882354378700256,
        1,
        1
      ],
      "min": [
        0.17254902422428131,
        0.22745098173618317,
        0.25098040699958801,
        1
      ],
      "type": "VEC4"
    },
    {
      "bufferView": 1,
      "byteOffset": 2584,
      "componentType": 5126,
      "count": 449,
      "max": [
        0.54091829061508179,
        0.99984127283096313
      ],
      "min": [
        0.00015871312643866986,
        0.00015871312643866986
      ],
      "type": "VEC2"
    },
    {
      "bufferView": 1,
      "byteOffset": 6176,
      "componentType": 5126,
      "count": 449,
      "max": [
        0.54091829061508179,
        0.99984127283096313
      ],
      "min": [
        0.00015871312643866986,
        0.00015871312643866986
      ],
      "type": "VEC2"
    },
    {
      "bufferView": 1,
      "byteOffset": 9768,
      "componentType": 5126,
      "count": 449,
      "max": [
        0.54091829061508179,
        0.99984127283096313
      ],
      "min": [
        0.00015871312643866986,
        0.00015871312643866986
      ],
      "type": "VEC2"
    },
    {
      "bufferView": 0,
      "byteOffset": 3456,
      "componentType": 5125,
      "count": 1530,
      "max": [
        448
      ],
      "min": [
        0
      ],
      "type": "SCALAR"
    }
  ],
  "asset": {
    "extras": {
      "author": "felipeprodev (https://sketchfab.com/felipeprodev)",
      "license": "CC-BY-4.0 (http://creativecommons.org/licenses/by/4.0/)",
      "source": "https://sketchfab.com/3d-models/wall-clock-2e964ac0242e4b1789adfd9549c653dc",
      "title": "Wall Clock"
    },
    "generator": "Sketchfab-9.36.0",
    "version": "2.0"
  },
  "bufferViews": [
    {
      "buffer": 0,
      "byteLength": 9576,
      "byteOffset": 0,
      "name": "floatBufferViews",
      "target": 34963
    },
    {
      "buffer": 0,
      "byteLength": 13360,
      "byteOffset": 9576,
      "byteStride": 8,
      "name": "floatBufferViews",
      "target": 34962
    },
    {
      "buffer": 0,
      "byteLength": 18528,
      "byteOffset": 22936,
      "byteStride": 12,
      "name": "floatBufferViews",
      "target": 34962
    },
    {
      "buffer": 0,
      "byteLength": 14368,
      "byteOffset": 41464,
      "byteStride": 16,
      "name": "floatBufferViews",
      "target": 34962
    }
  ],
  "buffers": [
    {
      "byteLength": 55832,
      "uri": "scene.bin"
    }
  ],
  "extensionsRequired": [
    "KHR_materials_pbrSpecularGlossiness"
  ],
  "extensionsUsed": [
    "KHR_materials_pbrSpecularGlossiness"
  ],
  "images": [
    {
      "uri": "textures/Clock_specularGlossiness.jpg"
    },
    {
      "uri": "textures/Clock_normal.jpg"
    }
  ],
  "materials": [
    {
      "alphaMode": "BLEND",
      "doubleSided": true,
      "emissiveFactor": [
        0,
        0,
        0
      ],
      "extensions": {
        "KHR_materials_pbrSpecularGlossiness": {
          "diffuseFactor": [
            0.80000000000000004,
            0.80000000000000004,
            0.80000000000000004,
            0.026030741355513805
          ],
          "glossinessFactor": 0,
          "specularFactor": [
            0.050000000000000003,
            0.050000000000000003,
            0.050000000000000003
          ]
        }
      },
      "name": "Glass"
    },
    {
      "doubleSided": true,
      "emissiveFactor": [
        0,
        0,
        0
      ],
      "extensions": {
        "KHR_materials_pbrSpecularGlossiness": {
          "diffuseFactor": [
            0.015989799999999998,
            0.015989799999999998,
            0.015989799999999998,
            1
          ],
          "glossinessFactor": 0.0035754279746626136,
          "specularFactor": [
            0.050000000000000003,
            0.050000000000000003,
            0.050000000000000003
          ]
        }
      },
      "name": "Black_Pointer"
    },
    {
      "doubleSided": true,
      "emissiveFactor": [
        0,
        0,
        0
      ],
      "extensions": {
        "KHR_materials_pbrSpecularGlossiness": {
          "diffuseFactor": [
            0.80000000000000004,
            0.021914599999999999,
            0.0263041,
            1
          ],
          "glossinessFactor": 0.041960369682011972,
          "specularFactor": [
            0.050000000000000003,
            0.050000000000000003,
            0.050000000000000003
          ]
        }
      },
      "name": "Red_Pointer"
    },
    {
      "doubleSided": true,
      "emissiveFactor": [
        0,
        0,
        0
      ],
      "extensions": {
        "KHR_materials_pbrSpecularGlossiness": {
          "diffuseFactor": [
            0,
            0,
            0,
            1
          ],
          "glossinessFactor": 0.54284546023870761,
          "specularFactor": [
            1,
            1,
            1
          ],
          "specularGlossinessTexture": {
            "index": 0,
            "texCoord": 0
          }
        }
      },
      "name": "Clock",
      "normalTexture": {
        "index": 1,
        "scale": 1,
        "texCoord": 0
      }
    }
  ],
  "meshes": [
    {
      "name": "Glass_LP_Glass_0",
      "primitives": [
        {
          "attributes": {
            "NORMAL": 1,
            "POSITION": 0,
            "TEXCOORD_0": 2
          },
          "indices": 3,
          "material": 0,
          "mode": 4
        }
      ]
    },
    {
      "name": "Hours_Pointer_Black_Pointer_0",
      "primitives": [
        {
          "attributes": {
            "NORMAL": 5,
            "POSITION": 4,
            "TEXCOORD_0": 6
          },
          "indices": 7,
          "material": 1,
          "mode": 4
        }
      ]
    },
    {
      "name": "Minutes_Pointer_Black_Pointer_0",
      "primitives": [
        {
          "attributes": {
            "NORMAL": 9,
            "POSITION": 8,
            "TEXCOORD_0": 10
          },
          "indices": 11,
          "material": 1,
          "mode": 4
        }
      ]
    },
    {
      "name": "Seconds_Pointer_Red_Pointer_0",
      "primitives": [
        {
          "attributes": {
            "NORMAL": 13,
            "POSITION": 12,
            "TEXCOORD_0": 14
          },
          "indices": 15,
          "material": 2,
          "mode": 4
        }
      ]
    },
    {
      "name": "Clock_LP_Clock_0",
      "primitives": [
        {
          "attributes": {
            "COLOR_0": 19,
            "NORMAL": 17,
            "POSITION": 16,
            "TANGENT": 18,
            "TEXCOORD_0": 20,
            "TEXCOORD_1": 21,
            "TEXCOORD_2": 22
          },
          "indices": 23,
          "material": 3,
          "mode": 4
        }
      ]
    }
  ],
  "nodes": [
    {
      "children": [
        1
      ],
      "name": "RootNode (gltf orientation matrix)",
      "rotation": [
        -0.70710678118654746,
        -0,
        -0,
        0.70710678118654757
      ]
    },
    {
      "children": [
        2
      ],
      "name": "RootNode (model correction matrix)"
    },
    {
      "children": [
        3
      ],
      "matrix": [
        1,
        0,
        0,
        0,
        0,
        0,
        1,
        0,
        0,
        -1,
        0,
        0,
        0,
        0,
        0,
        1
      ],
      "name": "WallClock_LP.fbx"
    },
    {
      "children": [
        4,
        6,
        8,
        10,
        12
      ],
      "name": "RootNode"
    },
    {
      "children": [
        5
      ],
      "name": "Glass_LP"
    },
    {
      "mesh": 0,
      "name": "Glass_LP_Glass_0"
    },
    {
      "children": [
        7
      ],
      "name": "Hours_Pointer"
    },
    {
      "mesh": 1,
      "name": "Hours_Pointer_Black_Pointer_0"
    },
    {
      "children": [
        9
      ],
      "name": "Minutes_Pointer"
    },
    {
      "mesh": 2,
      "name": "Minutes_Pointer_Black_Pointer_0"
    },
    {
      "children": [
        11
      ],
      "name": "Seconds_Pointer"
    },
    {
      "mesh": 3,
      "name": "Seconds_Pointer_Red_Pointer_0"
    },
    {
      "children": [
        13
      ],
      "name": "Clock_LP"
    },
    {
      "mesh": 4,
      "name": "Clock_LP_Clock_0"
    }
  ],
  "samplers": [
    {
      "magFilter": 9729,
      "minFilter": 9987,
      "wrapS": 10497,
      "wrapT": 10497
    }
  ],
  "scene": 0,
  "scenes": [
    {
      "name": "OSG_Scene",
      "nodes": [
        0
      ]
    }
  ],
  "textures": [
    {
      "sampler": 0,
      "source": 0
    },
    {
      "sampler": 0,
      "source": 1
    }
  ]
}

