{
  "accessors": [
    {
      "bufferView": 1,
      "componentType": 5126,
      "count": 9000,
      "max": [
        0.47536998987197876,
        0.21851000189781189,
        0.90088999271392822
      ],
      "min": [
        -0.47758999466896057,
        -0.28053000569343567,
        -0.58059000968933105
      ],
      "type": "VEC3"
    },
    {
      "bufferView": 1,
      "byteOffset": 108000,
      "componentType": 5126,
      "count": 9000,
      "max": [
        0.99885094165802002,
        0.99913513660430908,
        0.99965691566467285
      ],
      "min": [
        -0.99979680776596069,
        -0.99998259544372559,
        -0.99994188547134399
      ],
      "type": "VEC3"
    },
    {
      "bufferView": 0,
      "componentType": 5125,
      "count": 9000,
      "max": [
        8999
      ],
      "min": [
        0
      ],
      "type": "SCALAR"
    }
  ],
  "asset": {
    "extras": {
      "author": "Jérémie Louvetz (https://sketchfab.com/jeremielouvetz)",
      "license": "CC-BY-NC-4.0 (http://creativecommons.org/licenses/by-nc/4.0/)",
      "source": "https://sketchfab.com/3d-models/lion-96b2b3cb5aa0454fa59c120dd9deecb0",
      "title": "Lion"
    },
    "generator": "Sketchfab-6.24.0",
    "version": "2.0"
  },
  "bufferViews": [
    {
      "buffer": 0,
      "byteLength": 36000,
      "byteOffset": 0,
      "name": "floatBufferViews",
      "target": 34963
    },
    {
      "buffer": 0,
      "byteLength": 216000,
      "byteOffset": 36000,
      "byteStride": 12,
      "name": "floatBufferViews",
      "target": 34962
    }
  ],
  "buffers": [
    {
      "byteLength": 252000,
      "uri": "scene.bin"
    }
  ],
  "materials": [
    {
      "doubleSided": true,
      "name": "material0",
      "pbrMetallicRoughness": {
        "baseColorFactor": [
          0.34191442490866092,
          0.14995978981060856,
          0.056128490049600091,
          1
        ],
        "metallicFactor": 0,
        "roughnessFactor": 0.5
      }
    }
  ],
  "meshes": [
    {
      "name": "Model",
      "primitives": [
        {
          "attributes": {
            "NORMAL": 1,
            "POSITION": 0
          },
          "indices": 2,
          "material": 0,
          "mode": 4
        }
      ]
    }
  ],
  "nodes": [
    {
      "children": [
        1
      ],
      "name": "RootNode (gltf orientation matrix)",
      "rotation": [
        -0.70710678118654746,
        -0,
        -0,
        0.70710678118654757
      ]
    },
    {
      "children": [
        2
      ],
      "name": "RootNode (model correction matrix)"
    },
    {
      "children": [
        3
      ],
      "name": "Root"
    },
    {
      "children": [
        4
      ],
      "matrix": [
        -0.087160000000000029,
        -0.028290000000000003,
        0.99579000000000006,
        0,
        0.99619000000000002,
        -0.0024700000000000008,
        0.087120000000000031,
        0,
        -0,
        0.99960000000000004,
        0.028390000000000006,
        0,
        0,
        0,
        0.4582,
        1
      ],
      "name": "Model"
    },
    {
      "mesh": 0,
      "name": "Model"
    }
  ],
  "scene": 0,
  "scenes": [
    {
      "name": "OSG_Scene",
      "nodes": [
        0
      ]
    }
  ]
}

