{
  "accessors": [
    {
      "bufferView": 2,
      "componentType": 5126,
      "count": 198,
      "max": [
        0.75579798221588135,
        -0.84860998392105103,
        0.75579798221588135
      ],
      "min": [
        -0.75579899549484253,
        -0.98303598165512085,
        -0.75579798221588135
      ],
      "type": "VEC3"
    },
    {
      "bufferView": 2,
      "byteOffset": 2376,
      "componentType": 5126,
      "count": 198,
      "max": [
        0.97079265117645264,
        1,
        0.97079265117645264
      ],
      "min": [
        -0.97079265117645264,
        -1,
        -0.97079247236251831
      ],
      "type": "VEC3"
    },
    {
      "bufferView": 3,
      "componentType": 5126,
      "count": 198,
      "max": [
        0.99986797571182251,
        0,
        0.99997198581695557,
        1
      ],
      "min": [
        -0.99982500076293945,
        -0.97079300880432129,
        -0.99996101856231689,
        1
      ],
      "type": "VEC4"
    },
    {
      "bufferView": 1,
      "componentType": 5126,
      "count": 198,
      "max": [
        0.84520101547241211,
        0.83701598644256592
      ],
      "min": [
        0.8029789924621582,
        0.0094268200919032097
      ],
      "type": "VEC2"
    },
    {
      "bufferView": 0,
      "componentType": 5125,
      "count": 576,
      "max": [
        197
      ],
      "min": [
        0
      ],
      "type": "SCALAR"
    },
    {
      "bufferView": 2,
      "byteOffset": 4752,
      "componentType": 5126,
      "count": 198,
      "max": [
        0.78902000188827515,
        -0.59479200839996338,
        0.78902000188827515
      ],
      "min": [
        -0.78902101516723633,
        -0.71561002731323242,
        -0.78902000188827515
      ],
      "type": "VEC3"
    },
    {
      "bufferView": 2,
      "byteOffset": 7128,
      "componentType": 5126,
      "count": 198,
      "max": [
        0.98963278532028198,
        1,
        0.98963278532028198
      ],
      "min": [
        -0.98963278532028198,
        -1,
        -0.98963278532028198
      ],
      "type": "VEC3"
    },
    {
      "bufferView": 3,
      "byteOffset": 3168,
      "componentType": 5126,
      "count": 198,
      "max": [
        0.99984902143478394,
        0.98963302373886108,
        0.99997001886367798,
        1
      ],
      "min": [
        -0.99990600347518921,
        0,
        -0.99999302625656128,
        1
      ],
      "type": "VEC4"
    },
    {
      "bufferView": 1,
      "byteOffset": 1584,
      "componentType": 5126,
      "count": 198,
      "max": [
        0.94002401828765869,
        0.88343501091003418
      ],
      "min": [
        0.90308600664138794,
        0.0075162099674344063
      ],
      "type": "VEC2"
    },
    {
      "bufferView": 0,
      "byteOffset": 2304,
      "componentType": 5125,
      "count": 576,
      "max": [
        197
      ],
      "min": [
        0
      ],
      "type": "SCALAR"
    },
    {
      "bufferView": 2,
      "byteOffset": 9504,
      "componentType": 5126,
      "count": 705,
      "max": [
        0.80888599157333374,
        1,
        0.81454300880432129
      ],
      "min": [
        -0.81451600790023804,
        -1,
        -0.81780099868774414
      ],
      "type": "VEC3"
    },
    {
      "bufferView": 2,
      "byteOffset": 17964,
      "componentType": 5126,
      "count": 705,
      "max": [
        1,
        1,
        1
      ],
      "min": [
        -1,
        -1,
        -1
      ],
      "type": "VEC3"
    },
    {
      "bufferView": 3,
      "byteOffset": 6336,
      "componentType": 5126,
      "count": 705,
      "max": [
        0.99794000387191772,
        1,
        0.99980098009109497,
        1
      ],
      "min": [
        -0.99829399585723877,
        -0.99999499320983887,
        -0.99983900785446167,
        1
      ],
      "type": "VEC4"
    },
    {
      "bufferView": 1,
      "byteOffset": 3168,
      "componentType": 5126,
      "count": 705,
      "max": [
        0.73745399713516235,
        0.98869198560714722
      ],
      "min": [
        0.01195830013602972,
        0.010771400295197964
      ],
      "type": "VEC2"
    },
    {
      "bufferView": 0,
      "byteOffset": 4608,
      "componentType": 5125,
      "count": 2340,
      "max": [
        704
      ],
      "min": [
        0
      ],
      "type": "SCALAR"
    },
    {
      "bufferView": 2,
      "byteOffset": 26424,
      "componentType": 5126,
      "count": 198,
      "max": [
        0.75589197874069214,
        0.99168300628662109,
        0.75589197874069214
      ],
      "min": [
        -0.75589197874069214,
        0.84101802110671997,
        -0.75589197874069214
      ],
      "type": "VEC3"
    },
    {
      "bufferView": 2,
      "byteOffset": 28800,
      "componentType": 5126,
      "count": 198,
      "max": [
        0.97602975368499756,
        1,
        0.97603023052215576
      ],
      "min": [
        -0.97602999210357666,
        -1,
        -0.97602999210357666
      ],
      "type": "VEC3"
    },
    {
      "bufferView": 3,
      "byteOffset": 17616,
      "componentType": 5126,
      "count": 198,
      "max": [
        0.99998897314071655,
        0.97602999210357666,
        0.99999302625656128,
        1
      ],
      "min": [
        -0.99999898672103882,
        0,
        -1,
        1
      ],
      "type": "VEC4"
    },
    {
      "bufferView": 1,
      "byteOffset": 8808,
      "componentType": 5126,
      "count": 198,
      "max": [
        0.79124099016189575,
        0.8400689959526062
      ],
      "min": [
        0.75189298391342163,
        0.0067357202060520649
      ],
      "type": "VEC2"
    },
    {
      "bufferView": 0,
      "byteOffset": 13968,
      "componentType": 5125,
      "count": 576,
      "max": [
        197
      ],
      "min": [
        0
      ],
      "type": "SCALAR"
    },
    {
      "bufferView": 2,
      "byteOffset": 31176,
      "componentType": 5126,
      "count": 198,
      "max": [
        0.80203598737716675,
        0.64270001649856567,
        0.80203598737716675
      ],
      "min": [
        -0.80203700065612793,
        0.51085197925567627,
        -0.80203598737716675
      ],
      "type": "VEC3"
    },
    {
      "bufferView": 2,
      "byteOffset": 33552,
      "componentType": 5126,
      "count": 198,
      "max": [
        0.99098664522171021,
        1,
        0.99098664522171021
      ],
      "min": [
        -0.99098676443099976,
        -1,
        -0.99098676443099976
      ],
      "type": "VEC3"
    },
    {
      "bufferView": 3,
      "byteOffset": 20784,
      "componentType": 5126,
      "count": 198,
      "max": [
        0.99999797344207764,
        0,
        1,
        1
      ],
      "min": [
        -0.99997901916503906,
        -0.99098700284957886,
        -0.99999600648880005,
        1
      ],
      "type": "VEC4"
    },
    {
      "bufferView": 1,
      "byteOffset": 10392,
      "componentType": 5126,
      "count": 198,
      "max": [
        0.89385801553726196,
        0.90047001838684082
      ],
      "min": [
        0.85494500398635864,
        0.0093757901340723038
      ],
      "type": "VEC2"
    },
    {
      "bufferView": 0,
      "byteOffset": 16272,
      "componentType": 5125,
      "count": 576,
      "max": [
        197
      ],
      "min": [
        0
      ],
      "type": "SCALAR"
    },
    {
      "bufferView": 2,
      "byteOffset": 35928,
      "componentType": 5126,
      "count": 198,
      "max": [
        0.82725000381469727,
        0.24684199690818787,
        0.82724899053573608
      ],
      "min": [
        -0.82725000381469727,
        0.10014300048351288,
        -0.82724899053573608
      ],
      "type": "VEC3"
    },
    {
      "bufferView": 2,
      "byteOffset": 38304,
      "componentType": 5126,
      "count": 198,
      "max": [
        1,
        1,
        1
      ],
      "min": [
        -1,
        -1,
        -1
      ],
      "type": "VEC3"
    },
    {
      "bufferView": 3,
      "byteOffset": 23952,
      "componentType": 5126,
      "count": 198,
      "max": [
        0.99998599290847778,
        0,
        1,
        1
      ],
      "min": [
        -0.99996799230575562,
        -1,
        -0.99999797344207764,
        1
      ],
      "type": "VEC4"
    },
    {
      "bufferView": 1,
      "byteOffset": 11976,
      "componentType": 5126,
      "count": 198,
      "max": [
        0.9948049783706665,
        0.93320798873901367
      ],
      "min": [
        0.94935798645019531,
        0.0087802102789282799
      ],
      "type": "VEC2"
    },
    {
      "bufferView": 0,
      "byteOffset": 18576,
      "componentType": 5125,
      "count": 576,
      "max": [
        197
      ],
      "min": [
        0
      ],
      "type": "SCALAR"
    }
  ],
  "asset": {
    "extras": {
      "author": "ant_jura (https://sketchfab.com/ant_jura)",
      "license": "CC-BY-4.0 (http://creativecommons.org/licenses/by/4.0/)",
      "source": "https://sketchfab.com/3d-models/old-barrel-a148e1a7dda944a6a8c8beded5b7c95a",
      "title": "Old barrel"
    },
    "generator": "Sketchfab-4.90.0",
    "version": "2.0"
  },
  "bufferViews": [
    {
      "buffer": 0,
      "byteLength": 20880,
      "byteOffset": 0,
      "name": "floatBufferViews",
      "target": 34963
    },
    {
      "buffer": 0,
      "byteLength": 13560,
      "byteOffset": 20880,
      "byteStride": 8,
      "name": "floatBufferViews",
      "target": 34962
    },
    {
      "buffer": 0,
      "byteLength": 40680,
      "byteOffset": 34440,
      "byteStride": 12,
      "name": "floatBufferViews",
      "target": 34962
    },
    {
      "buffer": 0,
      "byteLength": 27120,
      "byteOffset": 75120,
      "byteStride": 16,
      "name": "floatBufferViews",
      "target": 34962
    }
  ],
  "buffers": [
    {
      "byteLength": 102240,
      "uri": "scene.bin"
    }
  ],
  "images": [
    {
      "uri": "textures/DefaultMaterial_metallicRoughness.jpg"
    },
    {
      "uri": "textures/DefaultMaterial_normal.jpeg"
    },
    {
      "uri": "textures/DefaultMaterial_baseColor.jpeg"
    }
  ],
  "materials": [
    {
      "doubleSided": true,
      "emissiveFactor": [
        0,
        0,
        0
      ],
      "name": "DefaultMaterial",
      "normalTexture": {
        "index": 1,
        "scale": 1,
        "texCoord": 0
      },
      "occlusionTexture": {
        "index": 0,
        "strength": 1,
        "texCoord": 0
      },
      "pbrMetallicRoughness": {
        "baseColorFactor": [
          1,
          1,
          1,
          1
        ],
        "baseColorTexture": {
          "index": 2,
          "texCoord": 0
        },
        "metallicFactor": 1,
        "metallicRoughnessTexture": {
          "index": 0,
          "texCoord": 0
        },
        "roughnessFactor": 1
      }
    }
  ],
  "meshes": [
    {
      "name": "defaultMaterial",
      "primitives": [
        {
          "attributes": {
            "NORMAL": 1,
            "POSITION": 0,
            "TANGENT": 2,
            "TEXCOORD_0": 3
          },
          "indices": 4,
          "material": 0,
          "mode": 4
        }
      ]
    },
    {
      "name": "defaultMaterial",
      "primitives": [
        {
          "attributes": {
            "NORMAL": 6,
            "POSITION": 5,
            "TANGENT": 7,
            "TEXCOORD_0": 8
          },
          "indices": 9,
          "material": 0,
          "mode": 4
        }
      ]
    },
    {
      "name": "defaultMaterial",
      "primitives": [
        {
          "attributes": {
            "NORMAL": 11,
            "POSITION": 10,
            "TANGENT": 12,
            "TEXCOORD_0": 13
          },
          "indices": 14,
          "material": 0,
          "mode": 4
        }
      ]
    },
    {
      "name": "defaultMaterial",
      "primitives": [
        {
          "attributes": {
            "NORMAL": 16,
            "POSITION": 15,
            "TANGENT": 17,
            "TEXCOORD_0": 18
          },
          "indices": 19,
          "material": 0,
          "mode": 4
        }
      ]
    },
    {
      "name": "defaultMaterial",
      "primitives": [
        {
          "attributes": {
            "NORMAL": 21,
            "POSITION": 20,
            "TANGENT": 22,
            "TEXCOORD_0": 23
          },
          "indices": 24,
          "material": 0,
          "mode": 4
        }
      ]
    },
    {
      "name": "defaultMaterial",
      "primitives": [
        {
          "attributes": {
            "NORMAL": 26,
            "POSITION": 25,
            "TANGENT": 27,
            "TEXCOORD_0": 28
          },
          "indices": 29,
          "material": 0,
          "mode": 4
        }
      ]
    }
  ],
  "nodes": [
    {
      "children": [
        1
      ],
      "name": "RootNode (gltf orientation matrix)",
      "rotation": [
        -0.70710678118654746,
        -0,
        -0,
        0.70710678118654757
      ]
    },
    {
      "children": [
        2
      ],
      "name": "RootNode (model correction matrix)"
    },
    {
      "children": [
        3,
        5,
        7,
        9,
        11,
        13
      ],
      "matrix": [
        1,
        0,
        0,
        0,
        0,
        -4.3711390063094768e-08,
        0.999999999999999,
        0,
        0,
        -0.999999999999999,
        -4.3711390063094768e-08,
        0,
        0,
        0,
        0,
        1
      ],
      "name": "Collada visual scene group"
    },
    {
      "children": [
        4
      ],
      "name": "g"
    },
    {
      "mesh": 0,
      "name": "defaultMaterial"
    },
    {
      "children": [
        6
      ],
      "name": "g"
    },
    {
      "mesh": 1,
      "name": "defaultMaterial"
    },
    {
      "children": [
        8
      ],
      "name": "g"
    },
    {
      "mesh": 2,
      "name": "defaultMaterial"
    },
    {
      "children": [
        10
      ],
      "name": "g"
    },
    {
      "mesh": 3,
      "name": "defaultMaterial"
    },
    {
      "children": [
        12
      ],
      "name": "g"
    },
    {
      "mesh": 4,
      "name": "defaultMaterial"
    },
    {
      "children": [
        14
      ],
      "name": "g"
    },
    {
      "mesh": 5,
      "name": "defaultMaterial"
    }
  ],
  "samplers": [
    {
      "magFilter": 9729,
      "minFilter": 9987,
      "wrapS": 10497,
      "wrapT": 10497
    }
  ],
  "scene": 0,
  "scenes": [
    {
      "name": "OSG_Scene",
      "nodes": [
        0
      ]
    }
  ],
  "textures": [
    {
      "sampler": 0,
      "source": 0
    },
    {
      "sampler": 0,
      "source": 1
    },
    {
      "sampler": 0,
      "source": 2
    }
  ]
}

