{
    "asset" : {
        "generator" : "Khronos glTF Blender I/O v1.4.40",
        "version" : "2.0"
    },
    "scene" : 0,
    "scenes" : [
        {
            "name" : "Scene",
            "nodes" : [
                7,
                8,
                9
            ]
        }
    ],
    "nodes" : [
        {
            "mesh" : 0,
            "name" : "Mesh_0.022"
        },
        {
            "mesh" : 1,
            "name" : "Mesh_0.023"
        },
        {
            "mesh" : 2,
            "name" : "Mesh_0.024"
        },
        {
            "mesh" : 3,
            "name" : "Mesh_1"
        },
        {
            "mesh" : 4,
            "name" : "Mesh_3.004"
        },
        {
            "children" : [
                0,
                1,
                2,
                3,
                4
            ],
            "name" : "8316cea6be5945c89043d3b553f9101f.obj.cleaner.materialmerger.gle",
            "translation" : [
                -0.8500000238418579,
                -4.099999904632568,
                0
            ]
        },
        {
            "children" : [
                5
            ],
            "name" : "RootNode (model correction matrix)"
        },
        {
            "children" : [
                6
            ],
            "name" : "RootNode (gltf orientation matrix)",
            "rotation" : [
                -0.7071068286895752,
                0,
                0,
                0.7071068286895752
            ]
        },
        {
            "name" : "Light",
            "rotation" : [
                0.16907575726509094,
                0.7558803558349609,
                -0.27217137813568115,
                0.570947527885437
            ],
            "translation" : [
                4.076245307922363,
                5.903861999511719,
                -1.0054539442062378
            ]
        },
        {
            "name" : "Camera",
            "rotation" : [
                0.483536034822464,
                0.33687159419059753,
                -0.20870360732078552,
                0.7804827094078064
            ],
            "translation" : [
                7.358891487121582,
                4.958309173583984,
                6.925790786743164
            ]
        }
    ],
    "materials" : [
        {
            "alphaMode" : "BLEND",
            "doubleSided" : true,
            "name" : "Vebena_Leaves",
            "pbrMetallicRoughness" : {
                "baseColorTexture" : {
                    "index" : 0,
                    "texCoord" : 0
                },
                "metallicFactor" : 0,
                "roughnessFactor" : 0.6000000238418579
            }
        },
        {
            "alphaMode" : "BLEND",
            "doubleSided" : true,
            "name" : "Verbena_Blue",
            "pbrMetallicRoughness" : {
                "baseColorTexture" : {
                    "index" : 1,
                    "texCoord" : 0
                },
                "metallicFactor" : 0,
                "roughnessFactor" : 0.6000000238418579
            }
        },
        {
            "doubleSided" : true,
            "name" : "Verbena_Stem",
            "pbrMetallicRoughness" : {
                "baseColorFactor" : [
                    0.10341612249612808,
                    0.28551802039146423,
                    0.0031277374364435673,
                    1
                ],
                "metallicFactor" : 0,
                "roughnessFactor" : 0.6000000238418579
            }
        }
    ],
    "meshes" : [
        {
            "name" : "Mesh_0.022",
            "primitives" : [
                {
                    "attributes" : {
                        "POSITION" : 0,
                        "NORMAL" : 1,
                        "TEXCOORD_0" : 2
                    },
                    "indices" : 3,
                    "material" : 0
                }
            ]
        },
        {
            "name" : "Mesh_0.023",
            "primitives" : [
                {
                    "attributes" : {
                        "POSITION" : 4,
                        "NORMAL" : 5,
                        "TEXCOORD_0" : 6
                    },
                    "indices" : 3,
                    "material" : 0
                }
            ]
        },
        {
            "name" : "Mesh_0.024",
            "primitives" : [
                {
                    "attributes" : {
                        "POSITION" : 7,
                        "NORMAL" : 8,
                        "TEXCOORD_0" : 9
                    },
                    "indices" : 3,
                    "material" : 0
                }
            ]
        },
        {
            "name" : "Mesh_1",
            "primitives" : [
                {
                    "attributes" : {
                        "POSITION" : 10,
                        "NORMAL" : 11,
                        "TEXCOORD_0" : 12
                    },
                    "indices" : 13,
                    "material" : 1
                }
            ]
        },
        {
            "name" : "Mesh_3.004",
            "primitives" : [
                {
                    "attributes" : {
                        "POSITION" : 14,
                        "NORMAL" : 15,
                        "TEXCOORD_0" : 16
                    },
                    "indices" : 17,
                    "material" : 2
                }
            ]
        }
    ],
    "textures" : [
        {
            "sampler" : 0,
            "source" : 0
        },
        {
            "sampler" : 0,
            "source" : 1
        }
    ],
    "images" : [
        {
            "mimeType" : "image/png",
            "name" : "Vebena_Leaves_baseColor",
            "uri" : "Vebena_Leaves_baseColor.PNG"
        },
        {
            "mimeType" : "image/png",
            "name" : "Verbena_Blue_baseColor",
            "uri" : "Verbena_Blue_baseColor.PNG"
        }
    ],
    "accessors" : [
        {
            "bufferView" : 0,
            "componentType" : 5126,
            "count" : 5,
            "max" : [
                1.2105849981307983,
                4.4053521156311035,
                0.38967201113700867
            ],
            "min" : [
                0.5259900093078613,
                3.7201709747314453,
                0.277987003326416
            ],
            "type" : "VEC3"
        },
        {
            "bufferView" : 1,
            "componentType" : 5126,
            "count" : 5,
            "type" : "VEC3"
        },
        {
            "bufferView" : 2,
            "componentType" : 5126,
            "count" : 5,
            "type" : "VEC2"
        },
        {
            "bufferView" : 3,
            "componentType" : 5123,
            "count" : 12,
            "type" : "SCALAR"
        },
        {
            "bufferView" : 4,
            "componentType" : 5126,
            "count" : 5,
            "max" : [
                1.1831810474395752,
                4.309185028076172,
                0.8340129852294922
            ],
            "min" : [
                0.7193610072135925,
                3.816338062286377,
                0.6661310195922852
            ],
            "type" : "VEC3"
        },
        {
            "bufferView" : 5,
            "componentType" : 5126,
            "count" : 5,
            "type" : "VEC3"
        },
        {
            "bufferView" : 6,
            "componentType" : 5126,
            "count" : 5,
            "type" : "VEC2"
        },
        {
            "bufferView" : 7,
            "componentType" : 5126,
            "count" : 5,
            "max" : [
                1.1427439451217651,
                4.308253765106201,
                0.6845189929008484
            ],
            "min" : [
                0.6705629825592041,
                3.8172690868377686,
                0.5193189978599548
            ],
            "type" : "VEC3"
        },
        {
            "bufferView" : 8,
            "componentType" : 5126,
            "count" : 5,
            "type" : "VEC3"
        },
        {
            "bufferView" : 9,
            "componentType" : 5126,
            "count" : 5,
            "type" : "VEC2"
        },
        {
            "bufferView" : 10,
            "componentType" : 5126,
            "count" : 5,
            "max" : [
                1.172752022743225,
                4.290547847747803,
                0.8913999795913696
            ],
            "min" : [
                0.7441340088844299,
                3.834975004196167,
                0.7079740166664124
            ],
            "type" : "VEC3"
        },
        {
            "bufferView" : 11,
            "componentType" : 5126,
            "count" : 5,
            "type" : "VEC3"
        },
        {
            "bufferView" : 12,
            "componentType" : 5126,
            "count" : 5,
            "type" : "VEC2"
        },
        {
            "bufferView" : 13,
            "componentType" : 5123,
            "count" : 12,
            "type" : "SCALAR"
        },
        {
            "bufferView" : 14,
            "componentType" : 5126,
            "count" : 16,
            "max" : [
                0.9857749938964844,
                4.071249961853027,
                0.8652179837226868
            ],
            "min" : [
                0.8517910242080688,
                4.0542731285095215,
                -3.000000106112566e-06
            ],
            "type" : "VEC3"
        },
        {
            "bufferView" : 15,
            "componentType" : 5126,
            "count" : 16,
            "type" : "VEC3"
        },
        {
            "bufferView" : 16,
            "componentType" : 5126,
            "count" : 16,
            "type" : "VEC2"
        },
        {
            "bufferView" : 17,
            "componentType" : 5123,
            "count" : 54,
            "type" : "SCALAR"
        }
    ],
    "bufferViews" : [
        {
            "buffer" : 0,
            "byteLength" : 60,
            "byteOffset" : 0
        },
        {
            "buffer" : 0,
            "byteLength" : 60,
            "byteOffset" : 60
        },
        {
            "buffer" : 0,
            "byteLength" : 40,
            "byteOffset" : 120
        },
        {
            "buffer" : 0,
            "byteLength" : 24,
            "byteOffset" : 160
        },
        {
            "buffer" : 0,
            "byteLength" : 60,
            "byteOffset" : 184
        },
        {
            "buffer" : 0,
            "byteLength" : 60,
            "byteOffset" : 244
        },
        {
            "buffer" : 0,
            "byteLength" : 40,
            "byteOffset" : 304
        },
        {
            "buffer" : 0,
            "byteLength" : 60,
            "byteOffset" : 344
        },
        {
            "buffer" : 0,
            "byteLength" : 60,
            "byteOffset" : 404
        },
        {
            "buffer" : 0,
            "byteLength" : 40,
            "byteOffset" : 464
        },
        {
            "buffer" : 0,
            "byteLength" : 60,
            "byteOffset" : 504
        },
        {
            "buffer" : 0,
            "byteLength" : 60,
            "byteOffset" : 564
        },
        {
            "buffer" : 0,
            "byteLength" : 40,
            "byteOffset" : 624
        },
        {
            "buffer" : 0,
            "byteLength" : 24,
            "byteOffset" : 664
        },
        {
            "buffer" : 0,
            "byteLength" : 192,
            "byteOffset" : 688
        },
        {
            "buffer" : 0,
            "byteLength" : 192,
            "byteOffset" : 880
        },
        {
            "buffer" : 0,
            "byteLength" : 128,
            "byteOffset" : 1072
        },
        {
            "buffer" : 0,
            "byteLength" : 108,
            "byteOffset" : 1200
        }
    ],
    "samplers" : [
        {
            "magFilter" : 9729,
            "minFilter" : 9986
        }
    ],
    "buffers" : [
        {
            "byteLength" : 1308,
            "uri" : "scene.bin"
        }
    ]
}
