{
  "accessors": [
    {
      "bufferView": 2,
      "componentType": 5126,
      "count": 826,
      "max": [
        205.68896484375,
        153.26020812988281,
        51.472721099853516
      ],
      "min": [
        0,
        0,
        0
      ],
      "type": "VEC3"
    },
    {
      "bufferView": 2,
      "byteOffset": 9912,
      "componentType": 5126,
      "count": 826,
      "max": [
        0.99107599258422852,
        0.99693024158477783,
        0.99951344728469849
      ],
      "min": [
        -0.99107599258422852,
        -0.99943786859512329,
        -0.9995918869972229
      ],
      "type": "VEC3"
    },
    {
      "bufferView": 3,
      "componentType": 5126,
      "count": 826,
      "max": [
        0.99823075532913208,
        0.99976885318756104,
        0.99539846181869507,
        1
      ],
      "min": [
        -0.99823081493377686,
        -0.96014606952667236,
        -0.99122416973114014,
        -1
      ],
      "type": "VEC4"
    },
    {
      "bufferView": 1,
      "componentType": 5126,
      "count": 826,
      "max": [
        0.98913699388504028,
        0.99800002574920654
      ],
      "min": [
        0.0020000000949949026,
        0.0020000000949949026
      ],
      "type": "VEC2"
    },
    {
      "bufferView": 0,
      "componentType": 5125,
      "count": 1512,
      "max": [
        825
      ],
      "min": [
        0
      ],
      "type": "SCALAR"
    }
  ],
  "asset": {
    "extras": {
      "author": "volkanongun (https://sketchfab.com/volkanongun)",
      "license": "CC-BY-4.0 (http://creativecommons.org/licenses/by/4.0/)",
      "source": "https://sketchfab.com/3d-models/low-poly-spider-f07c48191d8a437cbee572cb1bd78961",
      "title": "Low Poly Spider"
    },
    "generator": "Sketchfab-6.22.0",
    "version": "2.0"
  },
  "bufferViews": [
    {
      "buffer": 0,
      "byteLength": 6048,
      "byteOffset": 0,
      "name": "floatBufferViews",
      "target": 34963
    },
    {
      "buffer": 0,
      "byteLength": 6608,
      "byteOffset": 6048,
      "byteStride": 8,
      "name": "floatBufferViews",
      "target": 34962
    },
    {
      "buffer": 0,
      "byteLength": 19824,
      "byteOffset": 12656,
      "byteStride": 12,
      "name": "floatBufferViews",
      "target": 34962
    },
    {
      "buffer": 0,
      "byteLength": 13216,
      "byteOffset": 32480,
      "byteStride": 16,
      "name": "floatBufferViews",
      "target": 34962
    }
  ],
  "buffers": [
    {
      "byteLength": 45696,
      "uri": "scene.bin"
    }
  ],
  "materials": [
    {
      "doubleSided": true,
      "emissiveFactor": [
        0,
        0,
        0
      ],
      "name": "initialShadingGroup1",
      "pbrMetallicRoughness": {
        "baseColorFactor": [
          0,
          0,
          0,
          1
        ],
        "metallicFactor": 0,
        "roughnessFactor": 0.59999999999999998
      }
    }
  ],
  "meshes": [
    {
      "primitives": [
        {
          "attributes": {
            "NORMAL": 1,
            "POSITION": 0,
            "TANGENT": 2,
            "TEXCOORD_0": 3
          },
          "indices": 4,
          "material": 0,
          "mode": 4
        }
      ]
    }
  ],
  "nodes": [
    {
      "children": [
        1
      ],
      "name": "RootNode (gltf orientation matrix)",
      "rotation": [
        -0.70710678118654746,
        -0,
        -0,
        0.70710678118654757
      ]
    },
    {
      "children": [
        2
      ],
      "matrix": [
        0.99973607063293457,
        -0.021024832502007484,
        -0.0092617776244878769,
        0,
        0.021023711189627647,
        0.99977892637252808,
        -0.00021835346706211567,
        0,
        0.0092643210664391518,
        2.3578901164000854e-05,
        0.99995708465576172,
        0,
        -0.1348298192024231,
        -0.0033108876086771488,
        -0.00068297563120722771,
        1
      ],
      "name": "RootNode (model correction matrix)"
    },
    {
      "children": [
        3
      ],
      "matrix": [
        1,
        0,
        0,
        0,
        0,
        1,
        0,
        0,
        0,
        0,
        1,
        0,
        -102.92106628417969,
        -81.569976806640625,
        0.025474000722169876,
        1
      ],
      "name": "a222d3e1af2c4caf8811b2bd875a976c.obj.cleaner.gles"
    },
    {
      "children": [
        4
      ],
      "name": ""
    },
    {
      "mesh": 0,
      "name": ""
    }
  ],
  "scene": 0,
  "scenes": [
    {
      "name": "OSG_Scene",
      "nodes": [
        0
      ]
    }
  ]
}

