{
    "asset" : {
        "generator" : "Khronos glTF Blender I/O v1.4.40",
        "version" : "2.0"
    },
    "scene" : 0,
    "scenes" : [
        {
            "name" : "Scene",
            "nodes" : [
                5
            ]
        }
    ],
    "nodes" : [
        {
            "mesh" : 0,
            "name" : "SM_Pot_02_Coockware_0"
        },
        {
            "children" : [
                0
            ],
            "name" : "SM_Pot_02",
            "rotation" : [
                -0.6075398921966553,
                0.3617945611476898,
                0.3617946207523346,
                0.6075398325920105
            ],
            "scale" : [
                100,
                100,
                100
            ],
            "translation" : [
                0,
                7.543712854385376e-06,
                -10
            ]
        },
        {
            "children" : [
                1
            ],
            "name" : "RootNode"
        },
        {
            "children" : [
                2
            ],
            "name" : "Dishpile.fbx",
            "rotation" : [
                0.7071068286895752,
                0,
                0,
                0.7071068286895752
            ]
        },
        {
            "children" : [
                3
            ],
            "name" : "RootNode (model correction matrix)"
        },
        {
            "children" : [
                4
            ],
            "name" : "RootNode (gltf orientation matrix)",
            "rotation" : [
                -0.7071068286895752,
                0,
                0,
                0.7071068286895752
            ]
        }
    ],
    "materials" : [
        {
            "doubleSided" : true,
            "name" : "Coockware",
            "normalTexture" : {
                "index" : 0,
                "texCoord" : 0
            },
            "occlusionTexture" : {
                "index" : 1,
                "texCoord" : 0
            },
            "pbrMetallicRoughness" : {
                "baseColorTexture" : {
                    "index" : 2,
                    "texCoord" : 0
                },
                "metallicRoughnessTexture" : {
                    "index" : 1,
                    "texCoord" : 0
                }
            }
        }
    ],
    "meshes" : [
        {
            "name" : "SM_Pot_02_Coockware_0",
            "primitives" : [
                {
                    "attributes" : {
                        "POSITION" : 0,
                        "NORMAL" : 1,
                        "TEXCOORD_0" : 2,
                        "TEXCOORD_1" : 3,
                        "TEXCOORD_2" : 4,
                        "TEXCOORD_3" : 5
                    },
                    "indices" : 6,
                    "material" : 0
                }
            ]
        }
    ],
    "textures" : [
        {
            "sampler" : 0,
            "source" : 0
        },
        {
            "sampler" : 0,
            "source" : 1
        },
        {
            "sampler" : 0,
            "source" : 2
        }
    ],
    "images" : [
        {
            "mimeType" : "image/png",
            "name" : "Coockware_normal",
            "uri" : "Coockware_normal.jpg"
        },
        {
            "mimeType" : "image/png",
            "name" : "Coockware_metallicRoughness",
            "uri" : "Coockware_metallicRoughness.jpg"
        },
        {
            "mimeType" : "image/png",
            "name" : "Coockware_baseColor",
            "uri" : "Coockware_baseColor.jpg"
        }
    ],
    "accessors" : [
        {
            "bufferView" : 0,
            "componentType" : 5126,
            "count" : 729,
            "max" : [
                0.21578651666641235,
                0.14699004590511322,
                0.3114578127861023
            ],
            "min" : [
                -0.21578651666641235,
                -0.14699000120162964,
                -2.19311182547699e-08
            ],
            "type" : "VEC3"
        },
        {
            "bufferView" : 1,
            "componentType" : 5126,
            "count" : 729,
            "type" : "VEC3"
        },
        {
            "bufferView" : 2,
            "componentType" : 5126,
            "count" : 729,
            "type" : "VEC2"
        },
        {
            "bufferView" : 3,
            "componentType" : 5126,
            "count" : 729,
            "type" : "VEC2"
        },
        {
            "bufferView" : 4,
            "componentType" : 5126,
            "count" : 729,
            "type" : "VEC2"
        },
        {
            "bufferView" : 5,
            "componentType" : 5126,
            "count" : 729,
            "type" : "VEC2"
        },
        {
            "bufferView" : 6,
            "componentType" : 5123,
            "count" : 2124,
            "type" : "SCALAR"
        }
    ],
    "bufferViews" : [
        {
            "buffer" : 0,
            "byteLength" : 8748,
            "byteOffset" : 0
        },
        {
            "buffer" : 0,
            "byteLength" : 8748,
            "byteOffset" : 8748
        },
        {
            "buffer" : 0,
            "byteLength" : 5832,
            "byteOffset" : 17496
        },
        {
            "buffer" : 0,
            "byteLength" : 5832,
            "byteOffset" : 23328
        },
        {
            "buffer" : 0,
            "byteLength" : 5832,
            "byteOffset" : 29160
        },
        {
            "buffer" : 0,
            "byteLength" : 5832,
            "byteOffset" : 34992
        },
        {
            "buffer" : 0,
            "byteLength" : 4248,
            "byteOffset" : 40824
        }
    ],
    "samplers" : [
        {
            "magFilter" : 9729,
            "minFilter" : 9986
        }
    ],
    "buffers" : [
        {
            "byteLength" : 45072,
            "uri" : "scene.bin"
        }
    ]
}
